<svg width="43" height="17" viewBox="0 0 43 17" fill="none" xmlns="http://www.w3.org/2000/svg">
<g clip-path="url(#clip0_296_867)">
<path fill-rule="evenodd" clip-rule="evenodd" d="M1.01702 7.96111C1.01702 7.50581 1.38611 7.13672 1.84141 7.13672H41.2989C41.7542 7.13672 42.1233 7.50581 42.1233 7.96111C42.1233 8.41642 41.7542 8.78551 41.2989 8.78551H1.84141C1.38611 8.78551 1.01702 8.41642 1.01702 7.96111Z" fill="white"/>
<path fill-rule="evenodd" clip-rule="evenodd" d="M34.1206 0.782964C34.4426 0.461017 34.9645 0.461017 35.2865 0.782964L41.8816 7.37813C42.2036 7.70007 42.2036 8.22205 41.8816 8.544L35.2865 15.1392C34.9645 15.4611 34.4426 15.4611 34.1206 15.1392C33.7987 14.8172 33.7987 14.2952 34.1206 13.9733L40.1328 7.96106L34.1206 1.94884C33.7987 1.62689 33.7987 1.10491 34.1206 0.782964Z" fill="white"/>
</g>
<defs>
<clipPath id="clip0_296_867">
<rect width="42.4174" height="15.755" fill="white" transform="translate(0.0101318 0.449707)"/>
</clipPath>
</defs>
</svg>
