<svg id="done" width="300" height="240" viewBox="0 0 300 240" fill="none" xmlns="http://www.w3.org/2000/svg">
<path d="M235.819 207.468H155.51C136.859 207.468 121.719 192.321 121.719 173.661V93.2397C121.719 74.5797 136.859 59.4321 155.51 59.4321H235.892C254.543 59.4321 269.683 74.5797 269.683 93.2397V173.661C269.61 192.321 254.543 207.468 235.819 207.468Z" stroke="#9989FB" stroke-miterlimit="10" stroke-linecap="round" stroke-linejoin="round"/>
<path d="M166.993 124.633C164.725 120.901 153.974 120.974 153.023 122.657C153.023 122.657 158.362 139.926 164.286 138.097C170.284 136.268 166.993 124.633 166.993 124.633Z" fill="#9989FB"/>
<path opacity="0.3" d="M166.993 124.633C164.725 120.901 153.974 120.974 153.023 122.657C153.023 122.657 158.362 139.926 164.286 138.097C170.284 136.268 166.993 124.633 166.993 124.633Z" fill="#131313"/>
<path d="M166.993 124.633C164.725 120.901 153.974 120.974 153.023 122.657C153.023 122.657 158.362 139.926 164.286 138.097C170.284 136.268 166.993 124.633 166.993 124.633Z" stroke="#131313" stroke-miterlimit="10" stroke-linecap="round" stroke-linejoin="round"/>
<path d="M154.193 133.414C154.193 133.414 153.023 134.731 153.023 136.633C153.023 138.243 156.095 170.368 165.53 181.564C167.505 183.906 169.772 185.369 172.332 185.369C180.377 185.442 184.254 179.076 189.301 164.367C189.959 162.538 190.617 160.562 191.275 158.44C196.249 143.219 202.32 111.461 202.32 111.461C202.32 111.461 191.495 113.949 185.058 120.315C182.279 123.096 179.353 130.999 177.452 136.78C176.501 139.634 175.843 141.975 175.623 142.927C175.55 143.219 175.477 143.439 175.477 143.439C175.258 142.488 174.819 141.536 174.307 140.585C174.307 140.585 174.307 140.512 174.234 140.512C172.332 136.78 169.114 133.487 169.114 133.487L166.773 124.632C166.773 124.632 165.969 126.242 162.238 126.828C158.508 127.413 152.803 122.657 152.803 122.657L154.193 133.414Z" fill="#9989FB"/>
<path opacity="0.3" d="M165.603 181.637C167.578 183.979 169.845 185.442 172.405 185.442C180.451 185.515 184.327 179.149 189.374 164.44L189.228 130.121C189.228 130.121 183.23 131.291 177.525 136.853C176.574 139.707 175.916 142.048 175.696 143C177.964 147.683 181.913 158.513 177.379 170.002C174.526 177.466 169.699 180.466 165.603 181.637Z" fill="#131313"/>
<path d="M154.193 133.414C154.193 133.414 153.023 134.731 153.023 136.633C153.023 138.243 156.095 170.368 165.53 181.564C167.505 183.906 169.772 185.369 172.332 185.369C180.377 185.442 184.254 179.076 189.301 164.367C189.959 162.538 190.617 160.562 191.275 158.44C196.249 143.219 202.32 111.461 202.32 111.461C202.32 111.461 191.495 113.949 185.058 120.315C182.279 123.096 179.353 130.999 177.452 136.78C176.501 139.634 175.843 141.975 175.623 142.927C175.55 143.219 175.477 143.439 175.477 143.439C175.258 142.488 174.819 141.536 174.307 140.585C174.307 140.585 174.307 140.512 174.234 140.512C172.332 136.78 169.114 133.487 169.114 133.487L166.773 124.632C166.773 124.632 165.969 126.242 162.238 126.828C158.508 127.413 152.803 122.657 152.803 122.657L154.193 133.414Z" stroke="#131313" stroke-miterlimit="10" stroke-linecap="round" stroke-linejoin="round"/>
<path d="M179.646 153.903C180.231 156.903 180.231 160.196 178.841 162.977" stroke="#131313" stroke-miterlimit="10" stroke-linecap="round" stroke-linejoin="round"/>
<path d="M175.623 143.439C177.232 146.146 178.476 149.074 179.207 152.074" stroke="#131313" stroke-miterlimit="10" stroke-linecap="round" stroke-linejoin="round"/>
<path d="M180.743 147.244C180.743 147.244 179.646 144.171 176.574 143.439" stroke="#131313" stroke-miterlimit="10" stroke-linecap="round" stroke-linejoin="round"/>
<path d="M165.164 135.902C165.895 135.536 166.554 135.024 167.212 134.438" stroke="#131313" stroke-miterlimit="10" stroke-linecap="round" stroke-linejoin="round"/>
<path d="M154.193 133.414C156.607 135.975 160.337 137.658 163.774 136.56" stroke="#131313" stroke-miterlimit="10" stroke-linecap="round" stroke-linejoin="round"/>
<path d="M245.107 206.005C245.107 206.005 246.497 195.248 247.302 191.735C251.032 175.929 264.27 139.195 262.076 128.364C259.882 117.242 246.497 107.436 224.92 106.338C204.88 105.314 188.423 112.412 184.473 120.681C180.743 128.584 180.889 182.881 181.84 207.395C181.84 207.395 223.092 207.395 236.843 207.395C241.158 207.468 245.107 206.005 245.107 206.005Z" fill="#9989FB"/>
<path opacity="0.3" d="M240.792 140.585C230.406 154.781 219.142 176.076 219.142 176.076L188.277 137.585C188.277 137.585 195.371 186.467 199.175 191.735C203.051 197.004 202.832 199.492 202.832 199.492C202.832 199.492 212.633 210.03 219.947 208.639C226.164 207.395 248.545 182.442 255.567 153.464L240.792 140.585Z" fill="#131313"/>
<path d="M245.107 206.005C245.107 206.005 246.497 195.248 247.302 191.735C251.032 175.929 264.27 139.195 262.076 128.364C259.882 117.242 246.497 107.436 224.92 106.338C204.88 105.314 188.423 112.412 184.473 120.681C180.743 128.584 180.889 182.881 181.84 207.395C181.84 207.395 223.092 207.395 236.843 207.395C241.158 207.468 245.107 206.005 245.107 206.005Z" stroke="#131313" stroke-miterlimit="10" stroke-linecap="round" stroke-linejoin="round"/>
<path d="M233.697 108.534C233.697 108.534 222.946 113.144 211.316 109.338C211.316 109.338 212.852 105.68 212.852 102.679C212.852 101.143 212.486 99.8255 211.316 99.167C211.316 99.167 211.828 98.5815 212.706 97.7034C217.094 93.2396 230.479 80.5801 234.868 88.1173C234.868 88.1173 230.26 88.5563 233.697 108.534Z" fill="white" stroke="#131313" stroke-miterlimit="10" stroke-linecap="round" stroke-linejoin="round"/>
<path d="M221.483 94.6301C221.483 94.6301 219.727 101.143 212.779 102.68C212.779 101.143 212.413 99.8257 211.243 99.1671C211.243 99.1671 211.755 98.5817 212.633 97.7036C216.948 96.0205 221.483 94.6301 221.483 94.6301Z" fill="#131313"/>
<path d="M237.866 77.5068C242.474 59.0663 232.527 52.7732 226.237 50.3583C216.217 46.48 203.49 50.8706 200.564 61.1153C197.566 71.36 200.272 73.7017 200.126 77.8727C200.052 80.7998 198.078 82.2633 200.199 89.6542C201.588 94.4838 204.221 100.118 207.293 100.265C215.558 100.777 223.458 96.0205 223.019 93.8252" fill="white"/>
<path d="M237.866 77.5068C242.474 59.0663 232.527 52.7732 226.237 50.3583C216.217 46.48 203.49 50.8706 200.564 61.1153C197.566 71.36 200.272 73.7017 200.126 77.8727C200.052 80.7998 198.078 82.2633 200.199 89.6542C201.588 94.4838 204.221 100.118 207.293 100.265C215.558 100.777 223.458 96.0205 223.019 93.8252" stroke="#131313" stroke-miterlimit="10" stroke-linecap="round" stroke-linejoin="round"/>
<path d="M211.828 68.5061C211.828 68.5061 215.558 67.189 217.533 71.2868" stroke="#131313" stroke-miterlimit="10" stroke-linecap="round" stroke-linejoin="round"/>
<path d="M199.175 67.8473C199.175 67.8473 201.954 65.5057 204.733 68.7986" stroke="#131313" stroke-miterlimit="10" stroke-linecap="round" stroke-linejoin="round"/>
<path d="M213.437 77.7995C213.962 77.7995 214.388 77.1115 214.388 76.2628C214.388 75.4141 213.962 74.7261 213.437 74.7261C212.912 74.7261 212.486 75.4141 212.486 76.2628C212.486 77.1115 212.912 77.7995 213.437 77.7995Z" fill="#131313"/>
<path d="M201.954 75.4578C201.954 76.3359 202.393 76.9945 202.905 76.9945C203.417 76.9945 203.856 76.3359 203.856 75.4578C203.856 74.5797 203.417 73.9211 202.905 73.9211C202.32 73.8479 201.954 74.5797 201.954 75.4578Z" fill="#131313"/>
<path d="M204.734 71.8721C204.734 71.8721 205.319 76.1163 205.026 76.9944C204.734 77.8726 201.881 80.4337 201.808 81.6046C201.735 82.7754 204.222 83.9462 204.222 83.9462" fill="white"/>
<path d="M204.734 71.8721C204.734 71.8721 205.319 76.1163 205.026 76.9944C204.734 77.8726 201.881 80.4337 201.808 81.6046C201.735 82.7754 204.222 83.9462 204.222 83.9462" stroke="#131313" stroke-miterlimit="10" stroke-linecap="round" stroke-linejoin="round"/>
<path d="M202.832 86.3611C202.832 86.3611 208.61 87.8246 213.437 86.3611C213.437 86.3611 211.17 93.5324 206.635 92.8006C203.636 92.2884 204.441 87.6051 204.441 87.6051L202.832 86.3611Z" fill="#131313"/>
<path d="M218.777 58.1149C218.777 58.1149 216.363 56.5051 213.072 57.2368C209.78 58.0418 209.268 64.9935 209.268 64.9935C209.268 64.9935 207.513 63.4568 207.22 61.4811L206.196 64.4813L203.417 61.8469L202.466 64.9935L201.369 62.7251L199.248 66.8961C199.248 66.8961 196.03 62.7982 196.542 59.5785C197.858 50.8705 204.807 43.7723 219.215 44.5041C226.456 44.87 229.163 49.846 229.163 49.846C229.163 49.846 236.257 48.8947 239.402 52.5535C250.081 65.0667 243.425 78.6776 233.259 91.6298L229.748 79.3361L226.383 78.9703C226.383 78.9703 226.53 77.1409 226.383 75.1651C226.31 73.2625 225.14 70.4086 225.14 70.4086L223.896 70.994L224.408 68.6524L221.556 70.1159C221.556 70.1159 222.799 60.4566 221.556 58.7735C220.239 57.1636 218.777 58.1149 218.777 58.1149Z" fill="#272727"/>
<path d="M227.553 80.7265C227.553 80.7265 230.918 74.4333 234.429 75.97C237.94 77.5067 235.526 85.0439 232.454 87.4587C229.382 89.9467 227.553 87.4587 227.553 87.4587" fill="white"/>
<path d="M227.553 80.7265C227.553 80.7265 230.918 74.4333 234.429 75.97C237.94 77.5067 235.526 85.0439 232.454 87.4587C229.382 89.9467 227.553 87.4587 227.553 87.4587" stroke="#131313" stroke-miterlimit="10" stroke-linecap="round" stroke-linejoin="round"/>
<g opacity="0.2">
<path d="M221.775 55.5538C221.775 55.5538 220.532 52.0413 216.363 51.7486C212.267 51.4559 209.268 55.9928 209.195 59.0663" stroke="white" stroke-miterlimit="10" stroke-linecap="round" stroke-linejoin="round"/>
<path d="M224.628 55.4073C224.628 55.4073 227.48 53.212 229.09 55.4073C231.869 59.0662 229.602 67.9205 229.602 67.9205" stroke="white" stroke-miterlimit="10" stroke-linecap="round" stroke-linejoin="round"/>
<path d="M228.431 52.8461C228.431 52.8461 231.357 51.0167 233.917 54.5291C236.477 58.0416 236.184 66.5301 236.184 66.5301" stroke="white" stroke-miterlimit="10" stroke-linecap="round" stroke-linejoin="round"/>
<path d="M236.769 52.334C236.769 52.334 241.889 54.4561 242.182 64.774" stroke="white" stroke-miterlimit="10" stroke-linecap="round" stroke-linejoin="round"/>
<path d="M224.92 52.8462C224.92 52.8462 222.068 47.9434 213.584 49.6264C205.099 51.2363 203.783 59.9443 203.783 59.9443" stroke="white" stroke-miterlimit="10" stroke-linecap="round" stroke-linejoin="round"/>
<path d="M227.042 51.3826C227.042 51.3826 223.604 46.6262 213.218 47.5775C202.832 48.5287 198.663 57.6026 199.687 61.9932" stroke="white" stroke-miterlimit="10" stroke-linecap="round" stroke-linejoin="round"/>
</g>
<path d="M141.832 112.266C141.832 112.266 154.193 102.753 159.605 101.801C165.018 100.85 183.523 104.875 183.523 104.875V126.828C183.523 126.828 171.893 128.072 166.7 131.95C161.507 135.755 143.587 136.341 143.587 136.341L141.832 112.266Z" fill="#666666" stroke="#131313" stroke-miterlimit="10" stroke-linecap="round" stroke-linejoin="round"/>
<path d="M153.461 105.46C153.461 105.46 153.754 102.68 154.193 101.143C154.632 99.6062 157.63 99.7525 158.289 100.338C158.947 100.85 159.605 101.801 159.605 101.801C159.605 101.801 158.581 102.094 158.289 102.167C157.996 102.241 157.704 107.875 153.461 105.46Z" fill="white" stroke="#131313" stroke-miterlimit="10" stroke-linecap="round" stroke-linejoin="round"/>
<path d="M169.224 71.8902L156.893 107.653L174.593 113.762L186.924 77.9991L169.224 71.8902Z" fill="#9989FB"/>
<path opacity="0.5" d="M156.899 107.655L174.599 113.729L186.887 78.019L169.187 71.9453L156.899 107.655ZM185.059 78.8971L173.722 111.9L158.801 106.777L170.138 73.7747L185.059 78.8971Z" fill="#131313"/>
<path opacity="0.5" d="M171.893 76.5554L170.357 80.946C170.211 81.4582 169.626 81.6778 169.187 81.5314C168.675 81.3851 168.455 80.7997 168.602 80.3606L170.138 75.97C170.284 75.4578 170.869 75.2382 171.308 75.3846C171.82 75.531 172.039 76.0432 171.893 76.5554Z" fill="#131313"/>
<path opacity="0.5" d="M175.331 105.314L173.795 109.704C173.648 110.217 173.063 110.436 172.624 110.29C172.112 110.143 171.893 109.558 172.039 109.119L173.575 104.728C173.722 104.216 174.307 103.997 174.746 104.143C175.184 104.289 175.477 104.801 175.331 105.314Z" fill="#131313"/>
<path opacity="0.5" d="M166.407 90.8979C165.384 93.9714 166.993 97.2643 170.065 98.362C173.136 99.3864 176.428 97.7765 177.525 94.7031C178.549 91.6297 176.94 88.3368 173.868 87.2391C170.796 86.1415 167.431 87.8245 166.407 90.8979ZM175.038 93.4591L175.477 93.6055L175.184 94.4104L174.746 94.2641C174.38 94.9227 173.722 95.069 172.917 94.7763L172.478 94.6299L172.771 93.7518L173.21 93.8982C173.648 94.0445 173.868 93.8982 173.941 93.6055C174.014 93.3128 173.941 93.0932 173.502 92.9469C173.063 92.8005 172.698 92.8737 171.966 93.3128C171.089 93.8982 170.503 93.9714 169.845 93.7518C169.041 93.4591 168.675 92.9469 168.748 92.2151L168.309 92.0688L168.602 91.2638L169.041 91.4102C169.406 90.8248 170.065 90.6052 170.869 90.8979L171.089 90.9711L170.796 91.8492L170.577 91.7761C170.138 91.6297 169.918 91.7761 169.845 92.0688C169.772 92.3615 169.845 92.581 170.284 92.7274C170.723 92.8737 171.089 92.8005 171.82 92.3615C172.698 91.7761 173.283 91.7029 173.941 91.9224C174.672 92.2151 175.111 92.7274 175.038 93.4591Z" fill="#131313"/>
<path d="M169.224 71.8902L156.893 107.653L174.593 113.762L186.924 77.9991L169.224 71.8902Z" stroke="#131313" stroke-width="0.999967" stroke-miterlimit="10" stroke-linecap="round" stroke-linejoin="round"/>
<path d="M167.83 51.5611L158.115 15L140.02 19.8126L149.735 56.3737L167.83 51.5611Z" fill="#9989FB"/>
<path opacity="0.5" d="M158.066 15.0142L140 19.8438L149.728 56.3589L167.794 51.5293L158.066 15.0142ZM150.752 54.5295L141.829 20.7951L157.115 16.7704L166.038 50.5048L150.752 54.5295Z" fill="#131313"/>
<path opacity="0.5" d="M163.039 49.1141L161.869 44.5772C161.723 44.0649 162.015 43.5527 162.527 43.4063C163.039 43.26 163.551 43.5527 163.698 44.0649L164.868 48.6019C165.014 49.1141 164.722 49.6263 164.21 49.7727C163.698 49.919 163.186 49.6263 163.039 49.1141Z" fill="#131313"/>
<path opacity="0.5" d="M144.169 27.1612L142.999 22.6243C142.853 22.112 143.145 21.5998 143.657 21.4534C144.169 21.3071 144.681 21.5998 144.827 22.112L145.998 26.649C146.144 27.1612 145.851 27.6735 145.339 27.8198C144.827 27.9662 144.315 27.6735 144.169 27.1612Z" fill="#131313"/>
<path opacity="0.5" d="M159.529 34.1862C158.724 31.0396 155.506 29.2102 152.361 30.0151C149.216 30.8201 147.387 34.0399 148.192 37.1864C148.996 40.333 152.215 42.1625 155.36 41.3575C158.505 40.4794 160.406 37.2596 159.529 34.1862ZM150.971 36.8206L150.532 36.9669L150.313 36.162L150.752 36.0156C150.679 35.2839 151.117 34.7716 151.995 34.5521L152.434 34.4057L152.653 35.2839L152.141 35.4302C151.703 35.5766 151.629 35.7961 151.703 36.0888C151.776 36.3815 151.995 36.5279 152.434 36.4547C152.873 36.3083 153.165 36.0888 153.458 35.2839C153.897 34.3326 154.263 33.8935 154.994 33.7471C155.798 33.5276 156.457 33.7471 156.749 34.3326L157.188 34.1862L157.408 34.9911L156.969 35.1375C157.042 35.8693 156.603 36.3815 155.725 36.601L155.506 36.6742L155.286 35.7961L155.506 35.7229C155.945 35.5766 156.091 35.357 156.018 35.0643C155.945 34.7716 155.725 34.6253 155.286 34.7716C154.848 34.918 154.555 35.1375 154.263 35.9424C153.824 36.8937 153.458 37.3328 152.727 37.4792C151.922 37.6987 151.337 37.4792 150.971 36.8206Z" fill="#131313"/>
<path d="M167.83 51.5611L158.115 15L140.02 19.8126L149.735 56.3737L167.83 51.5611Z" stroke="#131313" stroke-width="0.999963" stroke-miterlimit="10" stroke-linecap="round" stroke-linejoin="round"/>
<path d="M141.832 112.266C141.832 112.266 159.752 106.192 164.579 105.314C169.406 104.436 183.523 104.802 183.523 104.802V126.755C183.523 126.755 168.821 131.218 166.481 133.048C164.14 134.877 143.514 136.268 143.514 136.268L141.832 112.266Z" fill="#666666" stroke="#131313" stroke-miterlimit="10" stroke-linecap="round" stroke-linejoin="round"/>
<path d="M166.334 114.9C165.383 120.022 166.042 126.828 162.677 130.926" stroke="#131313" stroke-miterlimit="10" stroke-linecap="round" stroke-linejoin="round"/>
<path d="M167.87 107.143C167.505 108.826 167.139 110.436 166.846 112.119" stroke="#131313" stroke-miterlimit="10" stroke-linecap="round" stroke-linejoin="round"/>
<path d="M196.249 115.924C195.225 114.095 192.299 114.973 188.862 120.315C185.424 125.657 184.034 131.95 184.912 134.219C185.79 136.487 196.761 139.268 196.761 139.268L199.028 133.487L196.249 115.924Z" fill="#9989FB"/>
<path opacity="0.5" d="M196.249 115.924C195.225 114.095 192.299 114.973 188.862 120.315C185.424 125.657 184.034 131.95 184.912 134.219C185.79 136.487 196.761 139.268 196.761 139.268L199.028 133.487L196.249 115.924Z" fill="#131313"/>
<path d="M196.249 115.924C195.225 114.095 192.299 114.973 188.862 120.315C185.424 125.657 184.034 131.95 184.912 134.219C185.79 136.487 196.761 139.268 196.761 139.268L199.028 133.487L196.249 115.924Z" stroke="#131313" stroke-miterlimit="10" stroke-linecap="round" stroke-linejoin="round"/>
<path d="M200.93 127.12L194.567 113.29C194.567 113.29 190.471 107.363 189.593 105.094C188.789 102.826 179.719 101.07 177.671 101.07C175.623 101.07 173.429 104.728 173.429 104.728H177.671C177.671 104.728 179.28 106.411 179.427 107.436C179.646 108.46 173.795 113.436 172.99 113.875C172.186 114.315 169.991 115.046 167.651 116.803C165.31 118.486 160.117 119.876 159.166 121.413C158.216 122.949 158.874 123.242 159.605 123.608C160.337 123.974 161.507 124.047 161.507 124.047C161.507 124.047 161.068 125.803 161.507 126.681C161.946 127.633 164.36 127.486 164.36 127.486C164.36 127.486 164.506 128.73 165.676 128.95C166.846 129.169 167.797 129.535 167.797 129.535C167.797 129.535 172.844 130.413 175.038 129.901C177.306 129.389 184.108 125.803 185.79 125.95C187.472 126.096 192.08 136.853 192.08 136.853C192.08 136.853 199.906 135.536 200.93 127.12Z" fill="white" stroke="#131313" stroke-miterlimit="10" stroke-linecap="round" stroke-linejoin="round"/>
<path d="M161.507 124.047C161.507 124.047 168.09 122.657 168.528 122.145C168.967 121.632 173.575 120.242 173.575 120.242" stroke="#131313" stroke-miterlimit="10" stroke-linecap="round" stroke-linejoin="round"/>
<path d="M164.286 127.56C164.286 127.56 167.943 126.828 169.26 126.608C170.577 126.462 175.77 124.047 175.77 124.047" stroke="#131313" stroke-miterlimit="10" stroke-linecap="round" stroke-linejoin="round"/>
<path d="M167.724 129.608C167.724 129.608 172.917 129.169 174.014 128.657C175.111 128.145 178.256 127.12 178.256 127.12" stroke="#131313" stroke-miterlimit="10" stroke-linecap="round" stroke-linejoin="round"/>
<path d="M244.303 121.047C236.623 126.096 231.942 138.39 231.942 138.39L219.947 160.708C219.947 160.708 209.853 135.828 207.001 135.536L196.249 115.924C196.249 115.924 197.492 127.413 193.031 132.316C188.569 137.219 184.912 134.218 184.912 134.218L188.277 143.512L189.081 147.902C189.081 147.902 203.271 190.418 207.879 193.052C212.486 195.687 223.019 196.858 232.015 190.345C240.938 183.832 256.225 159.025 257.688 150.976" fill="#9989FB"/>
<path d="M244.303 121.047C236.623 126.096 231.942 138.39 231.942 138.39L219.947 160.708C219.947 160.708 209.853 135.828 207.001 135.536L196.249 115.924C196.249 115.924 197.492 127.413 193.031 132.316C188.569 137.219 184.912 134.218 184.912 134.218L188.277 143.512L189.081 147.902C189.081 147.902 203.271 190.418 207.879 193.052C212.486 195.687 223.019 196.858 232.015 190.345C240.938 183.832 256.225 159.025 257.688 150.976" stroke="#131313" stroke-miterlimit="10" stroke-linecap="round" stroke-linejoin="round"/>
<path d="M202.686 138.463C203.051 137.877 203.417 137.292 203.783 136.633" stroke="#131313" stroke-miterlimit="10" stroke-linecap="round" stroke-linejoin="round"/>
<path d="M193.616 144.244C196.688 143.951 199.54 142.268 201.588 139.926" stroke="#131313" stroke-miterlimit="10" stroke-linecap="round" stroke-linejoin="round"/>
<path d="M188.277 143.512C189.447 144.024 190.764 144.317 192.08 144.317" stroke="#131313" stroke-miterlimit="10" stroke-linecap="round" stroke-linejoin="round"/>
<path d="M223.165 170.587C223.238 171.612 223.165 172.636 222.946 173.661" stroke="#131313" stroke-miterlimit="10" stroke-linecap="round" stroke-linejoin="round"/>
<path d="M219.947 160.708C221.336 163.197 222.434 165.904 222.872 168.758" stroke="#131313" stroke-miterlimit="10" stroke-linecap="round" stroke-linejoin="round"/>
<path d="M226.603 164.733C226.603 164.733 224.408 162.026 221.922 160.708" stroke="#131313" stroke-miterlimit="10" stroke-linecap="round" stroke-linejoin="round"/>
<path d="M245.619 132.243C245.619 132.243 238.89 131.365 233.478 137.512" stroke="#131313" stroke-miterlimit="10" stroke-linecap="round" stroke-linejoin="round"/>
<path d="M252.787 151.196C251.471 151.415 250.154 151.196 248.984 150.61" stroke="#131313" stroke-miterlimit="10" stroke-linecap="round" stroke-linejoin="round"/>
<path d="M260.906 142.122C259.809 147.244 256.956 149.878 254.469 150.756" stroke="#131313" stroke-miterlimit="10" stroke-linecap="round" stroke-linejoin="round"/>
<path d="M229.016 112.924C229.016 112.924 217.826 115.559 211.536 111.387" stroke="#131313" stroke-miterlimit="10" stroke-linecap="round" stroke-linejoin="round"/>
<path d="M188.789 181.637C188.789 181.637 194.933 198.907 209.049 201.834" stroke="#131313" stroke-miterlimit="10" stroke-linecap="round" stroke-linejoin="round"/>
<path d="M229.675 205.566C228.943 206.151 228.212 206.59 227.407 207.102" stroke="#131313" stroke-miterlimit="10" stroke-linecap="round" stroke-linejoin="round"/>
<path d="M159.24 72.4578V87.6053" stroke="white" stroke-miterlimit="10" stroke-linecap="round" stroke-linejoin="round"/>
<path d="M159.24 63.3105V69.3842" stroke="white" stroke-miterlimit="10" stroke-linecap="round" stroke-linejoin="round"/>
<path d="M159.24 57.676V60.8958" stroke="white" stroke-miterlimit="10" stroke-linecap="round" stroke-linejoin="round"/>
<path d="M156.314 85.8491L159.24 89.4348L162.092 85.8491" stroke="white" stroke-miterlimit="10" stroke-linecap="round" stroke-linejoin="round"/>
<path d="M174.234 34.0613V49.2088" stroke="white" stroke-miterlimit="10" stroke-linecap="round" stroke-linejoin="round"/>
<path d="M174.234 24.9141V30.9877" stroke="white" stroke-miterlimit="10" stroke-linecap="round" stroke-linejoin="round"/>
<path d="M174.234 19.2795V22.4993" stroke="white" stroke-miterlimit="10" stroke-linecap="round" stroke-linejoin="round"/>
<path d="M171.308 47.4526L174.234 50.9651L177.086 47.4526" stroke="white" stroke-miterlimit="10" stroke-linecap="round" stroke-linejoin="round"/>
<path d="M49.2356 152.382C49.2356 152.382 45.7248 150.407 43.75 154.065" stroke="#272727" stroke-miterlimit="10" stroke-linecap="round" stroke-linejoin="round"/>
<circle cx="111" cy="174" r="33" fill="#131313"/>
<path d="M143.223 180.972C139.566 199.047 122.012 210.828 103.873 207.17C90.9271 204.608 81.2725 194.803 78.1274 182.875" stroke="white" stroke-miterlimit="10" stroke-linecap="round" stroke-linejoin="round"/>
<path d="M142.784 165.898C143.735 169.557 144.101 173.362 143.735 177.24" stroke="white" stroke-miterlimit="10" stroke-linecap="round" stroke-linejoin="round"/>
<path d="M88.9523 148.848C96.4858 142.555 106.652 139.554 117.038 141.677C128.01 143.872 136.64 151.19 140.883 160.629" stroke="white" stroke-miterlimit="10" stroke-linecap="round" stroke-linejoin="round"/>
<path d="M79.6633 143.579L78.7856 141.091L87.5626 147.824" stroke="white" stroke-miterlimit="10" stroke-linecap="round" stroke-linejoin="round"/>
<path d="M77.6886 167.874C78.7126 162.825 80.8337 158.215 83.6862 154.336L80.7605 146.433" stroke="white" stroke-miterlimit="10" stroke-linecap="round" stroke-linejoin="round"/>
<path d="M77.0303 175.85C76.9572 174.533 77.0303 173.143 77.1034 171.752" stroke="white" stroke-miterlimit="10" stroke-linecap="round" stroke-linejoin="round"/>
<path d="M112.065 157.775C121.281 158.873 127.863 167.215 126.839 176.435C125.742 185.656 117.404 192.242 108.188 191.217C98.9727 190.119 92.3899 181.777 93.4139 172.557C94.2185 165.386 99.4846 159.751 106.14 158.141" stroke="white" stroke-miterlimit="10" stroke-linecap="round" stroke-linejoin="round"/>
<path d="M120.915 167.215L121.134 166.996" stroke="white" stroke-width="2" stroke-miterlimit="10" stroke-linecap="round" stroke-linejoin="round"/>
<path d="M118.062 170.581L119.525 168.898" stroke="white" stroke-width="2" stroke-miterlimit="10" stroke-linecap="round" stroke-linejoin="round"/>
<path d="M99.9966 173.874L107.676 183.021L116.892 172.045" stroke="white" stroke-width="2" stroke-miterlimit="10" stroke-linecap="round" stroke-linejoin="round"/>
<path d="M9.37305 96.0361C9.37305 96.0361 14.0541 97.4997 15.7363 101.598" stroke="#272727" stroke-miterlimit="10" stroke-linecap="round" stroke-linejoin="round"/>
<path d="M94.158 118.078C94.158 123.435 89.8458 127.88 84.3987 127.88H41.1626C35.8291 127.88 31.4033 123.549 31.4033 118.078V12.7652C31.4033 7.40841 35.7156 2.96338 41.1626 2.96338H84.3987C89.7323 2.96338 94.158 7.29443 94.158 12.7652V118.078Z" fill="#131313"/>
<path d="M83.7182 0H41.7305C34.5812 0 28.7937 5.81273 28.7937 12.9932V117.964C28.7937 125.145 34.5812 130.957 41.7305 130.957H83.7182C90.8675 130.957 96.655 125.145 96.655 117.964V12.9932C96.655 5.81273 90.8675 0 83.7182 0ZM94.1584 118.078C94.1584 123.435 89.8462 127.88 84.3991 127.88H41.1631C35.8295 127.88 31.4038 123.549 31.4038 118.078V12.7652C31.4038 7.40838 35.716 2.96335 41.1631 2.96335H84.3991C89.7327 2.96335 94.1584 7.29441 94.1584 12.7652V118.078Z" fill="white"/>
<path d="M70.2139 7.40834H55.348C52.511 7.40834 50.3549 5.12884 50.3549 2.39344V2.05151H75.3206V2.27946C75.2071 5.12884 72.9375 7.40834 70.2139 7.40834Z" fill="white"/>
<path d="M65.7877 3.64697H55.4609V4.4448H65.7877V3.64697Z" fill="white"/>
<path d="M69.9875 3.98907C69.9875 4.33099 69.7605 4.55894 69.4201 4.55894C69.0796 4.55894 68.8527 4.33099 68.8527 3.98907C68.8527 3.64714 69.0796 3.41919 69.4201 3.41919C69.647 3.41919 69.9875 3.64714 69.9875 3.98907Z" fill="white"/>
<path d="M85.5526 65.1271H39.3247C37.5375 65.1271 36.1078 62.9632 36.1078 60.2582V19.5041C36.1078 16.7992 37.5375 14.6353 39.3247 14.6353H85.5526C87.3397 14.6353 88.7695 16.7992 88.7695 19.5041V60.2582C88.7695 62.9632 87.3397 65.1271 85.5526 65.1271Z" stroke="#131313" stroke-width="0.5" stroke-miterlimit="10" stroke-linecap="round" stroke-linejoin="round"/>
<path d="M63.4414 92.8213C68.8426 92.8213 73.2212 88.4237 73.2212 82.9989C73.2212 77.5742 68.8426 73.1765 63.4414 73.1765C58.0402 73.1765 53.6616 77.5742 53.6616 82.9989C53.6616 88.4237 58.0402 92.8213 63.4414 92.8213Z" stroke="#9989FB" stroke-width="0.829852" stroke-miterlimit="10" stroke-linecap="round" stroke-linejoin="round"/>
<path d="M58.3066 83.7358L61.4851 86.6825L68.5754 79.5613" stroke="#9989FB" stroke-width="0.829852" stroke-miterlimit="10" stroke-linecap="round" stroke-linejoin="round"/>
<path d="M56.3493 98.0222C57.0827 98.0222 57.8162 98.2678 58.3052 98.7589C58.7942 99.25 59.0387 99.7411 59.0387 100.478C59.0387 101.214 58.7942 101.951 58.3052 102.197C57.8162 102.688 57.3272 102.933 56.3493 102.933H54.1488V98.0222H56.3493ZM56.3493 102.197C56.8382 102.197 57.3272 101.951 57.5717 101.706C57.8162 101.46 58.0607 100.969 58.0607 100.478C58.0607 99.9867 57.8162 99.4956 57.5717 99.25C57.3272 99.0045 56.8382 98.7589 56.3493 98.7589H55.1268V102.197H56.3493Z" fill="#9989FB"/>
<path d="M60.0153 102.442C59.5264 102.197 59.5264 101.706 59.5264 100.969C59.5264 100.478 59.7709 99.9866 60.0153 99.4955C60.5043 99.25 60.9933 99.0044 61.4823 99.0044C62.2158 99.0044 62.7048 99.25 62.9493 99.4955C63.1938 99.7411 63.4383 100.232 63.4383 100.969C63.4383 101.46 63.1938 101.951 62.9493 102.442C62.4603 102.688 61.9713 102.933 61.4823 102.933C60.9933 102.933 60.5043 102.933 60.0153 102.442ZM60.5043 100.232C60.2599 100.478 60.2598 100.723 60.2598 101.214C60.2598 101.706 60.2599 101.951 60.5043 102.197C60.7488 102.442 60.9933 102.442 61.4823 102.442C61.9713 102.442 62.2158 102.442 62.4603 102.197C62.7048 101.951 62.7048 101.706 62.7048 101.214C62.7048 100.723 62.7048 100.478 62.4603 100.232C62.2158 99.9866 61.9713 99.9866 61.4823 99.9866C61.2378 99.7411 60.7488 99.9866 60.5043 100.232Z" fill="#9989FB"/>
<path d="M66.6198 99.25C67.1088 99.25 67.3532 99.4956 67.5977 99.7411C67.8422 99.9867 68.0867 100.478 68.0867 100.969V103.179H67.3532V101.214C67.3532 100.478 67.1087 100.232 66.3753 100.232C65.8863 100.232 65.6418 100.232 65.3973 100.478C65.1528 100.723 65.1528 100.969 65.1528 101.46V103.179H64.4193V99.4956H65.1528V99.9867C65.3973 99.4956 65.8863 99.25 66.6198 99.25Z" fill="#9989FB"/>
<path d="M72.7306 101.214H69.5522C69.5522 101.706 69.7967 101.951 70.0412 101.951C70.2857 101.951 70.5302 102.197 71.0192 102.197C71.5082 102.197 71.9972 101.951 71.9972 101.706H72.7306C72.7306 101.951 72.4861 102.197 71.9972 102.442C71.7527 102.688 71.2637 102.688 70.7747 102.688C70.0412 102.688 69.5522 102.442 69.3077 102.197C68.8187 101.951 68.8187 101.46 68.8187 100.723C68.8187 99.9866 69.0632 99.741 69.3077 99.2499C69.5522 98.7588 70.2857 98.7588 70.7747 98.7588C71.9972 99.2499 72.7306 99.9866 72.7306 101.214ZM70.7747 99.741C70.5302 99.741 70.0412 99.741 69.7967 99.9866C69.5522 100.232 69.5522 100.478 69.5522 100.723H71.9972C71.9972 100.478 71.7527 100.232 71.7527 99.9866C71.5082 99.741 71.2637 99.741 70.7747 99.741Z" fill="#9989FB"/>
<path d="M1 184.332C1.51199 175.185 1.87769 165.891 2.31654 158.427C3.26738 142.914 3.99879 132.45 5.38847 121.839C6.77815 111.228 6.55873 95.2027 7.29014 89.5681C8.02155 83.9335 10.0695 82.7627 11.7518 76.1037C13.434 69.4446 14.8968 56.1996 17.6762 54.3702C20.3824 52.5408 28.7937 49.0283 28.7937 49.0283V86.5679C33.7673 94.1783 39.6186 96.0809 39.6186 96.0809C43.4219 85.1775 42.9099 80.787 46.7132 76.8354C50.5166 72.8107 53.2228 67.6152 59.1472 69.7373C61.9998 70.7618 63.4626 71.8594 62.0729 81.4455C60.6832 91.0317 57.8307 94.0319 57.8307 94.0319C57.3919 97.3249 58.0501 106.838 59.2204 111.667C60.3906 116.497 55.929 129.449 53.8079 137.718C51.6868 145.987 40.35 162.745 40.35 162.745C40.35 162.745 39.7648 171.819 40.7157 181.478C40.7888 182.356 40.9351 183.307 41.0082 184.332L41.7396 210.017L1 209.285V184.332Z" fill="#131313"/>
<path d="M1 210.968V184.332C1.51199 175.185 1.87769 165.891 2.31654 158.427C3.26738 142.914 3.99879 132.45 5.38847 121.839C6.77815 111.228 6.55873 95.2027 7.29014 89.5681C8.02155 83.9335 10.0695 82.7627 11.7518 76.1037C13.434 69.4446 14.8968 56.1996 17.6762 54.3702C20.3824 52.5408 28.7937 49.0283 28.7937 49.0283V86.5679C33.7673 94.1783 39.6186 96.0809 39.6186 96.0809C43.4219 85.1775 42.9099 80.787 46.7132 76.8354C50.5166 72.8107 53.2228 67.6152 59.1472 69.7373C61.9998 70.7618 63.4626 71.8594 62.0729 81.4456C60.6832 91.0317 57.8307 94.0319 57.8307 94.0319C57.3919 97.3249 58.0501 106.838 59.2204 111.667C60.3906 116.497 55.929 129.449 53.8079 137.718C51.6868 145.987 40.35 162.745 40.35 162.745C40.35 162.745 39.7648 171.819 40.7157 181.478C40.7888 182.356 40.9351 183.307 41.0082 184.332C41.0082 184.332 41.3739 200.943 43.2025 210.968" stroke="white" stroke-miterlimit="10" stroke-linecap="round" stroke-linejoin="round"/>
<path d="M39.5454 96.0078C39.5454 96.0078 38.3751 101.277 36.0346 102.447C33.6941 103.618 30.2565 102.447 30.2565 102.447" stroke="white" stroke-miterlimit="10" stroke-linecap="round" stroke-linejoin="round"/>
<path d="M28.7205 86.4947C28.7205 86.4947 26.38 81.226 18.8464 85.7629" stroke="white" stroke-miterlimit="10" stroke-linecap="round" stroke-linejoin="round"/>
<path d="M28.7205 65.3467C28.7205 65.3467 28.2817 62.566 24.332 61.8342" stroke="white" stroke-miterlimit="10" stroke-linecap="round" stroke-linejoin="round"/>
<path d="M40.2768 162.598C35.8152 168.306 36.6198 173.721 34.9375 176.502C33.1821 179.356 33.4747 189.454 33.4747 189.454" stroke="white" stroke-miterlimit="10" stroke-linecap="round" stroke-linejoin="round"/>
<path d="M7.729 108.082C7.729 108.082 7.729 119.205 7.729 127.839C7.729 136.474 9.41125 144.67 9.41125 144.67" stroke="white" stroke-miterlimit="10" stroke-linecap="round" stroke-linejoin="round"/>
<path d="M57.6845 93.9587C57.6845 93.9587 57.6845 90.5926 56.7336 89.5681" stroke="white" stroke-miterlimit="10" stroke-linecap="round" stroke-linejoin="round"/>
<path d="M55.1244 83.3481C55.1244 83.3481 53.0033 76.3232 46.9326 79.3966" stroke="white" stroke-miterlimit="10" stroke-linecap="round" stroke-linejoin="round"/>
<path d="M36.254 94.2514C31.7193 94.3245 27.1114 92.3488 24.4052 94.7636" stroke="white" stroke-miterlimit="10" stroke-linecap="round" stroke-linejoin="round"/>
<path d="M55.0254 43.9058V33.0757" stroke="white" stroke-miterlimit="10" stroke-linecap="round" stroke-linejoin="round"/>
<path d="M55.0254 50.4187V46.1013" stroke="white" stroke-miterlimit="10" stroke-linecap="round" stroke-linejoin="round"/>
<path d="M55.0254 54.5165V52.1748" stroke="white" stroke-miterlimit="10" stroke-linecap="round" stroke-linejoin="round"/>
<path d="M57.0733 34.3198L55.0254 31.8318L52.9774 34.3198" stroke="white" stroke-miterlimit="10" stroke-linecap="round" stroke-linejoin="round"/>
<path d="M69.288 39.8812V29.051" stroke="white" stroke-miterlimit="10" stroke-linecap="round" stroke-linejoin="round"/>
<path d="M69.288 46.3941V42.0767" stroke="white" stroke-miterlimit="10" stroke-linecap="round" stroke-linejoin="round"/>
<path d="M69.288 50.4918V48.1501" stroke="white" stroke-miterlimit="10" stroke-linecap="round" stroke-linejoin="round"/>
<path d="M71.3359 30.2951L69.2879 27.8071L67.24 30.2951" stroke="white" stroke-miterlimit="10" stroke-linecap="round" stroke-linejoin="round"/>
<path d="M61.8275 32.6367V21.7334" stroke="white" stroke-miterlimit="10" stroke-linecap="round" stroke-linejoin="round"/>
<path d="M61.8275 39.1496V34.759" stroke="white" stroke-miterlimit="10" stroke-linecap="round" stroke-linejoin="round"/>
<path d="M61.8275 43.1742V40.9058" stroke="white" stroke-miterlimit="10" stroke-linecap="round" stroke-linejoin="round"/>
<path d="M63.8754 23.0507L61.8275 20.4895L59.7795 23.0507" stroke="white" stroke-miterlimit="10" stroke-linecap="round" stroke-linejoin="round"/>
<path d="M73.2033 50.4199C74.6321 44.321 70.8487 38.2181 64.7528 36.7886C58.6569 35.3591 52.5569 39.1444 51.1281 45.2432C49.6993 51.342 53.4827 57.445 59.5786 58.8745C65.6745 60.304 71.7745 56.5187 73.2033 50.4199Z" fill="#9989FB" stroke="white" stroke-miterlimit="10" stroke-linecap="round" stroke-linejoin="round"/>
<path d="M61.3887 41.8571V40.979H62.9978V41.8571C64.3875 42.1498 65.0457 43.1743 65.0457 44.8574V45.2232H63.2172V44.711C63.2172 43.8329 62.8515 43.467 62.2664 43.467C61.6812 43.467 61.3155 43.8329 61.3155 44.711C61.3155 45.5891 61.6812 46.1745 62.9978 47.2722C64.6069 48.5162 65.1189 49.4675 65.1189 50.931C65.1189 52.6141 64.3875 53.6386 62.9978 53.9313V54.8094H61.3887V53.9313C59.999 53.6386 59.2676 52.6141 59.2676 50.931V50.0529H61.0961V51.0042C61.0961 51.8823 61.4618 52.175 62.1201 52.175C62.7052 52.175 63.1441 51.8823 63.1441 51.0042C63.1441 50.1261 62.7784 49.4675 61.4618 48.443C59.8527 47.199 59.3407 46.2477 59.3407 44.7842C59.3407 43.1743 59.999 42.1498 61.3887 41.8571Z" fill="#272727"/>
<path d="M173.562 89.0952C176.622 87.0717 177.45 82.935 175.414 79.8556C173.377 76.7762 169.246 75.9202 166.186 77.9436C163.127 79.9671 162.298 84.1038 164.335 87.1832C166.372 90.2626 170.503 91.1186 173.562 89.0952Z" fill="#131313" stroke="white" stroke-width="0.398681" stroke-miterlimit="10" stroke-linejoin="round"/>
<path d="M172.915 89.5232C175.974 87.4997 176.803 83.363 174.767 80.2836C172.73 77.2042 168.599 76.3481 165.539 78.3716C162.48 80.3951 161.651 84.5318 163.688 87.6112C165.725 90.6906 169.856 91.5466 172.915 89.5232Z" fill="#131313" stroke="white" stroke-width="0.398681" stroke-miterlimit="10" stroke-linejoin="round"/>
<path d="M172.189 88.4242C174.645 86.7995 175.311 83.4781 173.675 81.0055C172.04 78.533 168.723 77.8457 166.267 79.4704C163.81 81.095 163.145 84.4165 164.78 86.889C166.415 89.3615 169.732 90.0489 172.189 88.4242Z" fill="#131313" stroke="white" stroke-width="0.398681" stroke-miterlimit="10" stroke-linejoin="round"/>
<path d="M165.164 86.635C163.576 84.2337 164.151 81.0162 166.449 79.35C166.388 79.3901 166.327 79.4303 166.267 79.4704C163.82 81.0883 163.138 84.4064 164.78 86.889C166.422 89.3717 169.722 90.0555 172.189 88.4242C172.249 88.3841 172.31 88.344 172.371 88.3038C169.925 89.7462 166.752 89.0362 165.164 86.635Z" fill="#131313" stroke="white" stroke-width="0.398681" stroke-miterlimit="10" stroke-linejoin="round"/>
<path d="M170.511 76.926L170.086 77.2068" stroke="white" stroke-width="0.398681" stroke-miterlimit="10" stroke-linejoin="round"/>
<path d="M171.36 77.0665L171.057 77.2671" stroke="white" stroke-width="0.398681" stroke-miterlimit="10" stroke-linejoin="round"/>
<path d="M172.558 77.3857L172.214 77.613" stroke="white" stroke-width="0.398681" stroke-miterlimit="10" stroke-linejoin="round"/>
<path d="M173.589 78.1084L173.144 78.4026" stroke="white" stroke-width="0.398681" stroke-miterlimit="10" stroke-linejoin="round"/>
<path d="M174.62 78.9184L174.195 79.1992" stroke="white" stroke-width="0.398681" stroke-miterlimit="10" stroke-linejoin="round"/>
<path d="M176.074 81.116L175.629 81.4102" stroke="white" stroke-width="0.398681" stroke-miterlimit="10" stroke-linejoin="round"/>
<path d="M176.023 84.9517L176.407 84.6976" stroke="white" stroke-width="0.398681" stroke-miterlimit="10" stroke-linejoin="round"/>
<path d="M175.7 85.8682L176.124 85.5874" stroke="white" stroke-width="0.398681" stroke-miterlimit="10" stroke-linejoin="round"/>
<path d="M175.376 86.8721L175.8 86.5913" stroke="white" stroke-width="0.398681" stroke-miterlimit="10" stroke-linejoin="round"/>
<path d="M169.4 76.8712L168.753 77.2991" stroke="white" stroke-width="0.398681" stroke-miterlimit="10" stroke-linejoin="round"/>
<path d="M167.975 82.5818C167.706 82.1748 167.774 81.9254 168.057 81.7382C168.34 81.551 168.596 81.5865 168.865 81.9935L169.013 82.2173L169.842 81.6691L169.721 81.4859C169.223 80.733 168.576 80.4586 167.869 80.751L167.586 80.3236L166.878 80.7917L167.161 81.219C166.649 81.7626 166.635 82.4446 167.133 83.1975C168.196 84.8051 169.955 83.7296 170.709 84.8692C170.978 85.2762 170.89 85.5389 170.627 85.7128C170.365 85.8866 170.088 85.8645 169.819 85.4575L169.523 85.0098L168.694 85.5581L168.95 85.9447C169.448 86.6976 170.108 86.9924 170.815 86.7L171.085 87.107L171.792 86.639L171.523 86.232C172.069 85.6954 172.069 84.993 171.558 84.2198C170.488 82.6459 168.729 83.7214 167.975 82.5818Z" fill="white"/>
<path d="M211.939 50.4185C215.607 50.4185 218.58 47.4255 218.58 43.7334C218.58 40.0414 215.607 37.0483 211.939 37.0483C208.271 37.0483 205.297 40.0414 205.297 43.7334C205.297 47.4255 208.271 50.4185 211.939 50.4185Z" fill="#131313" stroke="white" stroke-width="0.398681" stroke-miterlimit="10" stroke-linejoin="round"/>
<path d="M211.163 50.4185C214.831 50.4185 217.804 47.4255 217.804 43.7334C217.804 40.0414 214.831 37.0483 211.163 37.0483C207.495 37.0483 204.521 40.0414 204.521 43.7334C204.521 47.4255 207.495 50.4185 211.163 50.4185Z" fill="#131313" stroke="white" stroke-width="0.398681" stroke-miterlimit="10" stroke-linejoin="round"/>
<path d="M211.163 49.1011C214.108 49.1011 216.496 46.698 216.496 43.7335C216.496 40.7691 214.108 38.366 211.163 38.366C208.218 38.366 205.831 40.7691 205.831 43.7335C205.831 46.698 208.218 49.1011 211.163 49.1011Z" fill="#131313" stroke="white" stroke-width="0.398681" stroke-miterlimit="10" stroke-linejoin="round"/>
<path d="M206.291 43.7335C206.291 40.8546 208.546 38.488 211.382 38.366C211.309 38.366 211.236 38.366 211.163 38.366C208.231 38.366 205.831 40.757 205.831 43.7335C205.831 46.7101 208.206 49.1011 211.163 49.1011C211.236 49.1011 211.309 49.1011 211.382 49.1011C208.546 48.9547 206.291 46.6125 206.291 43.7335Z" fill="#131313" stroke="white" stroke-width="0.398681" stroke-miterlimit="10" stroke-linejoin="round"/>
<path d="M216.107 38.5852H215.598" stroke="white" stroke-width="0.398681" stroke-miterlimit="10" stroke-linejoin="round"/>
<path d="M216.738 39.1711H216.375" stroke="white" stroke-width="0.398681" stroke-miterlimit="10" stroke-linejoin="round"/>
<path d="M217.561 40.0981H217.149" stroke="white" stroke-width="0.398681" stroke-miterlimit="10" stroke-linejoin="round"/>
<path d="M218.022 41.2695H217.489" stroke="white" stroke-width="0.398681" stroke-miterlimit="10" stroke-linejoin="round"/>
<path d="M218.435 42.5137H217.926" stroke="white" stroke-width="0.398681" stroke-miterlimit="10" stroke-linejoin="round"/>
<path d="M218.435 45.1487H217.902" stroke="white" stroke-width="0.398681" stroke-miterlimit="10" stroke-linejoin="round"/>
<path d="M216.277 48.3201H216.737" stroke="white" stroke-width="0.398681" stroke-miterlimit="10" stroke-linejoin="round"/>
<path d="M215.501 48.906H216.01" stroke="white" stroke-width="0.398681" stroke-miterlimit="10" stroke-linejoin="round"/>
<path d="M214.677 49.5647H215.186" stroke="white" stroke-width="0.398681" stroke-miterlimit="10" stroke-linejoin="round"/>
<path d="M215.211 37.9268H214.435" stroke="white" stroke-width="0.398681" stroke-miterlimit="10" stroke-linejoin="round"/>
<path d="M210.872 41.9039C210.872 41.4159 211.066 41.2452 211.405 41.2452C211.745 41.2452 211.938 41.4159 211.938 41.9039V42.1723H212.932V41.9527C212.932 41.05 212.544 40.4644 211.793 40.318V39.8057H210.945V40.318C210.218 40.4888 209.83 41.05 209.83 41.9527C209.83 43.8801 211.89 43.9533 211.89 45.3196C211.89 45.8076 211.672 45.9784 211.357 45.9784C211.042 45.9784 210.823 45.8076 210.823 45.3196V44.7829H209.83V45.2464C209.83 46.1492 210.218 46.7591 210.969 46.9055V47.3935H211.817V46.9055C212.569 46.7591 212.956 46.1736 212.956 45.2464C212.932 43.3434 210.872 43.2702 210.872 41.9039Z" fill="white"/>
</svg>
