<svg id="in" viewBox="0 0 34 34" fill="none" xmlns="http://www.w3.org/2000/svg">
<path d="M7.81766 33.2502H0.924219V11.0514H7.81766V33.2502ZM4.36723 8.02328C2.16293 8.02328 0.375 6.1975 0.375 3.9932C0.375 2.9344 0.795608 1.91896 1.5443 1.17027C2.29298 0.421585 3.30842 0.000976562 4.36723 0.000976562C5.42603 0.000976562 6.44147 0.421585 7.19016 1.17027C7.93884 1.91896 8.35945 2.9344 8.35945 3.9932C8.35945 6.1975 6.57078 8.02328 4.36723 8.02328ZM33.6176 33.2502H26.739V22.444C26.739 19.8686 26.687 16.5659 23.155 16.5659C19.5709 16.5659 19.0217 19.3639 19.0217 22.2584V33.2502H12.1357V11.0514H18.7471V14.0795H18.8436C19.7639 12.3354 22.012 10.4948 25.3659 10.4948C32.3425 10.4948 33.625 15.0889 33.625 21.0561V33.2502H33.6176Z" fill="#A6A6A6"/>
</svg>
