<svg width="175" height="23" viewBox="0 0 175 23" fill="none" xmlns="http://www.w3.org/2000/svg">
<path d="M66.9457 0V3.87973H58.7736V22.6179H53.9858V3.87973H45.8137V0H66.9457Z" fill="#F3F2F2"/>
<path d="M70.4128 22.6179V0H75.2006V22.6179H70.4128Z" fill="#F3F2F2"/>
<path d="M92.7005 0C95.1769 0 97.1581 0.57784 98.809 1.81605C100.377 2.97171 101.203 4.78775 101.203 7.26417C101.203 9.65804 100.46 11.4741 98.8916 12.5472C97.3232 13.7028 95.342 14.1981 92.7831 14.1981H85.4364V22.6179H80.6486V0H92.7005ZM92.2878 10.5661C93.6085 10.5661 94.5991 10.3184 95.342 9.74058C96.085 9.16275 96.4151 8.33728 96.4151 7.26417C96.4151 6.10851 96.085 5.28304 95.342 4.78775C94.5991 4.20992 93.6085 3.96228 92.2878 3.96228H85.4364V10.6486H92.2878V10.5661Z" fill="#F3F2F2"/>
<path d="M117.134 0C119.611 0 121.592 0.57784 123.243 1.81605C124.811 2.97171 125.637 4.78775 125.637 7.26417C125.637 9.65804 124.894 11.4741 123.326 12.5472C121.757 13.7028 119.776 14.1981 117.217 14.1981H109.87V22.6179H105.083V0H117.134ZM116.722 10.5661C118.042 10.5661 119.033 10.3184 119.776 9.74058C120.519 9.16275 120.849 8.33728 120.849 7.26417C120.849 6.10851 120.519 5.28304 119.776 4.78775C119.033 4.20992 118.042 3.96228 116.722 3.96228H109.87V10.6486H116.722V10.5661Z" fill="#F3F2F2"/>
<path d="M134.304 18.9033H148.833V22.6179H129.516V0H148.255V3.71462H134.304V9.32785H145.283V12.8774H134.304V18.9033Z" fill="#F3F2F2"/>
<path d="M169.057 22.6179L162.123 13.9505H157.83V22.6179H153.042V0H165.425C167.901 0 169.882 0.57784 171.533 1.81605C173.101 2.97171 173.927 4.78775 173.927 7.18161C173.927 9.24529 173.349 10.8137 172.193 11.8868C171.038 12.9599 169.469 13.7028 167.406 13.9505L175 22.7005H169.057V22.6179ZM157.748 3.87973V10.4009H164.929C166.168 10.4009 167.241 10.1533 167.901 9.57548C168.644 8.99765 168.974 8.17218 168.974 7.18161C168.974 6.1085 168.644 5.28303 167.901 4.7052C167.158 4.12737 166.168 3.87973 164.929 3.87973H157.748Z" fill="#F3F2F2"/>
<path d="M5.36557 10.8137C8.32889 10.8137 10.7311 8.41141 10.7311 5.44809C10.7311 2.48477 8.32889 0.0825195 5.36557 0.0825195C2.40225 0.0825195 0 2.48477 0 5.44809C0 8.41141 2.40225 10.8137 5.36557 10.8137Z" fill="#6600FF"/>
<path d="M17.1698 10.8137C20.1331 10.8137 22.5354 8.41141 22.5354 5.44809C22.5354 2.48477 20.1331 0.0825195 17.1698 0.0825195C14.2065 0.0825195 11.8043 2.48477 11.8043 5.44809C11.8043 8.41141 14.2065 10.8137 17.1698 10.8137Z" fill="#6600FF"/>
<path d="M17.1698 22.6179C20.1331 22.6179 22.5354 20.2156 22.5354 17.2523C22.5354 14.289 20.1331 11.8867 17.1698 11.8867C14.2065 11.8867 11.8043 14.289 11.8043 17.2523C11.8043 20.2156 14.2065 22.6179 17.1698 22.6179Z" fill="#6600FF"/>
<path d="M28.8915 10.8137C31.8548 10.8137 34.2571 8.41141 34.2571 5.44809C34.2571 2.48477 31.8548 0.0825195 28.8915 0.0825195C25.9282 0.0825195 23.5259 2.48477 23.5259 5.44809C23.5259 8.41141 25.9282 10.8137 28.8915 10.8137Z" fill="#6600FF"/>
</svg>
