<svg viewBox="0 0 141 18" fill="none" xmlns="http://www.w3.org/2000/svg">
<path d="M53.9393 0V3.07637H47.3548V17.9345H43.4973V3.07637H36.9128V0H53.9393Z" fill="#131313"/>
<path d="M56.7327 17.9345V0H60.5902V17.9345H56.7327Z" fill="#131313"/>
<path d="M74.6901 0C76.6854 0 78.2816 0.45819 79.6118 1.44001C80.8755 2.35637 81.5406 3.79638 81.5406 5.76001C81.5406 7.6582 80.942 9.09819 79.6783 9.9491C78.4146 10.8655 76.8184 11.2582 74.7566 11.2582H68.8373V17.9345H64.9797V0H74.6901ZM74.3576 8.37819C75.4217 8.37819 76.2198 8.18183 76.8184 7.72365C77.417 7.26547 77.683 6.61092 77.683 5.76001C77.683 4.84365 77.417 4.1891 76.8184 3.79638C76.2198 3.33819 75.4217 3.14183 74.3576 3.14183H68.8373V8.44363H74.3576V8.37819Z" fill="#131313"/>
<path d="M94.3771 0C96.3724 0 97.9686 0.45819 99.2988 1.44001C100.563 2.35637 101.228 3.79638 101.228 5.76001C101.228 7.6582 100.629 9.09819 99.3653 9.9491C98.1017 10.8655 96.5054 11.2582 94.4436 11.2582H88.5243V17.9345H84.6667V0H94.3771ZM94.0446 8.37819C95.1087 8.37819 95.9069 8.18183 96.5054 7.72365C97.104 7.26547 97.3701 6.61092 97.3701 5.76001C97.3701 4.84365 97.104 4.1891 96.5054 3.79638C95.9069 3.33819 95.1087 3.14183 94.0446 3.14183H88.5243V8.44363H94.0446V8.37819Z" fill="#131313"/>
<path d="M108.211 14.9891H119.917V17.9345H104.354V0H119.451V2.94546H108.211V7.39638H117.057V10.2109H108.211V14.9891Z" fill="#131313"/>
<path d="M136.211 17.9345L130.625 11.0618H127.166V17.9345H123.309V0H133.285C135.28 0 136.877 0.45819 138.207 1.44001C139.47 2.35637 140.135 3.79637 140.135 5.69455C140.135 7.33092 139.67 8.57454 138.739 9.42545C137.808 10.2764 136.544 10.8654 134.881 11.0618L141 18H136.211V17.9345ZM127.1 3.07637V8.24728H132.886C133.884 8.24728 134.748 8.05091 135.28 7.59273C135.879 7.13455 136.145 6.48001 136.145 5.69455C136.145 4.84364 135.879 4.1891 135.28 3.73092C134.682 3.27274 133.884 3.07637 132.886 3.07637H127.1Z" fill="#131313"/>
<path d="M4.32311 8.57452C6.7107 8.57452 8.64623 6.6697 8.64623 4.31998C8.64623 1.97025 6.7107 0.0654297 4.32311 0.0654297C1.93552 0.0654297 0 1.97025 0 4.31998C0 6.6697 1.93552 8.57452 4.32311 8.57452Z" fill="#6600FF"/>
<path d="M13.8341 8.57452C16.2217 8.57452 18.1572 6.6697 18.1572 4.31998C18.1572 1.97025 16.2217 0.0654297 13.8341 0.0654297C11.4465 0.0654297 9.51099 1.97025 9.51099 4.31998C9.51099 6.6697 11.4465 8.57452 13.8341 8.57452Z" fill="#6600FF"/>
<path d="M13.8341 17.9344C16.2217 17.9344 18.1572 16.0296 18.1572 13.6798C18.1572 11.3301 16.2217 9.42529 13.8341 9.42529C11.4465 9.42529 9.51099 11.3301 9.51099 13.6798C9.51099 16.0296 11.4465 17.9344 13.8341 17.9344Z" fill="#6600FF"/>
<path d="M23.2782 8.57452C25.6658 8.57452 27.6013 6.6697 27.6013 4.31998C27.6013 1.97025 25.6658 0.0654297 23.2782 0.0654297C20.8906 0.0654297 18.9551 1.97025 18.9551 4.31998C18.9551 6.6697 20.8906 8.57452 23.2782 8.57452Z" fill="#6600FF"/>
</svg>