<svg id="pay" width="300" height="240" viewBox="0 0 300 240" fill="none" xmlns="http://www.w3.org/2000/svg">
<path d="M137.766 58.7296C137.766 58.7296 151.043 52.1938 153.979 53.3472C156.915 54.5006 159.723 61.1646 148.489 67.7004C137.383 74.1081 140.702 86.1546 140.702 86.1546H148.617C148.617 86.1546 153.34 88.0769 155.255 90.64C157.17 93.2031 158.447 101.661 159.468 104.609C160.489 107.556 159.979 110.376 157.043 111.401C157.043 111.401 155.128 119.475 155.766 123.063C156.277 126.651 156.021 128.958 152.574 129.471C149.128 129.855 145.681 126.908 145.936 123.063L143.255 132.675L145.17 136.391C145.17 136.391 148.617 137.544 152.319 140.748C156.021 143.952 159.723 144.849 158.702 148.309C157.681 151.898 155.511 155.742 144.404 151.257C133.298 146.771 123.979 129.343 123.979 129.343L117.34 68.3412L137.766 58.7296Z" fill="#131313"/>
<path d="M117.085 144.849C117.085 144.849 102.66 173.299 76.617 179.707C76.617 179.707 75.5958 185.346 71.2553 187.781C68.9575 189.062 59.383 203.287 51.0851 216.359L5 187.909C7.80851 185.089 11.1277 181.886 14.3191 178.425C23.8936 168.558 34.234 157.536 37.2979 152.026C40.1064 147.156 43.6809 138.698 46.7447 130.88C50.7021 120.756 53.8936 111.401 53.8936 111.401L69.2128 94.2283L93.3404 67.3159L94.3617 70.7761L117.085 144.849Z" fill="#131313"/>
<path d="M117.34 68.4694L137.766 58.7296C137.766 58.7296 151.043 52.1938 153.979 53.3472C156.915 54.5006 159.723 61.1646 148.489 67.7004C137.383 74.1081 140.702 86.1546 140.702 86.1546H148.617C148.617 86.1546 153.34 88.0769 155.255 90.64C157.17 93.2031 158.447 101.661 159.468 104.609C160.489 107.556 159.979 110.376 157.043 111.401C157.043 111.401 155.128 119.475 155.766 123.063C156.277 126.651 156.021 128.958 152.574 129.471C149.128 129.855 145.681 126.908 145.936 123.063L143.255 132.675L145.17 136.391C145.17 136.391 148.617 137.544 152.319 140.748C156.021 143.952 159.723 144.849 158.702 148.309C157.681 151.898 155.511 155.742 144.404 151.257C133.298 146.771 123.979 129.343 123.979 129.343" stroke="white" stroke-miterlimit="10" stroke-linecap="round" stroke-linejoin="round"/>
<path d="M157.17 111.401C153.213 112.426 148.489 111.657 146.83 104.609C145.043 97.5603 148.617 89.9992 150.787 89.3584" stroke="white" stroke-miterlimit="10" stroke-linecap="round" stroke-linejoin="round"/>
<path d="M146.064 123.063C146.064 123.063 145.809 113.964 149.128 111.785" stroke="white" stroke-miterlimit="10" stroke-linecap="round" stroke-linejoin="round"/>
<path d="M117.085 144.849C117.085 144.849 102.66 173.299 76.617 179.707C76.617 179.707 75.5957 185.346 71.2553 187.781C68.9574 189.062 59.383 203.287 51.0851 216.359" stroke="white" stroke-miterlimit="10" stroke-linecap="round" stroke-linejoin="round"/>
<path d="M5 187.909C16.1064 176.888 33.2128 159.459 37.4255 152.154C43.8085 141.133 54.0213 111.529 54.0213 111.529L93.5958 67.4441" stroke="white" stroke-miterlimit="10" stroke-linecap="round" stroke-linejoin="round"/>
<path d="M71 101.021C71 101.021 77.1277 106.531 78.7872 111.401" stroke="white" stroke-miterlimit="10" stroke-linecap="round" stroke-linejoin="round"/>
<path d="M42.38 97.1613C50.0535 92.0859 52.1325 81.7099 47.0237 73.9859C41.9149 66.2618 31.5528 64.1147 23.8793 69.1901C16.2058 74.2655 14.1268 84.6414 19.2356 92.3655C24.3444 100.09 34.7065 102.237 42.38 97.1613Z" fill="#131313" stroke="white" stroke-miterlimit="10" stroke-linejoin="round"/>
<path d="M40.7561 98.235C48.4296 93.1596 50.5086 82.7836 45.3998 75.0596C40.291 67.3356 29.9289 65.1884 22.2554 70.2638C14.5819 75.3392 12.5029 85.7152 17.6117 93.4392C22.7205 101.163 33.0826 103.31 40.7561 98.235Z" fill="#131313" stroke="white" stroke-miterlimit="10" stroke-linejoin="round"/>
<path d="M38.9345 95.4781C45.0957 91.403 46.765 83.0719 42.663 76.8701C38.561 70.6684 30.2411 68.9444 24.0799 73.0195C17.9187 77.0946 16.2494 85.4257 20.3514 91.6275C24.4533 97.8293 32.7733 99.5533 38.9345 95.4781Z" fill="#131313" stroke="white" stroke-miterlimit="10" stroke-linejoin="round"/>
<path d="M21.3148 90.9902C17.3311 84.9673 18.7722 76.897 24.5363 72.7177C24.3841 72.8183 24.232 72.9189 24.0799 73.0195C17.9442 77.0778 16.2326 85.4003 20.3514 91.6275C24.4701 97.8547 32.7481 99.5699 38.9345 95.4781C39.0866 95.3775 39.2387 95.2769 39.3908 95.1763C33.2554 98.7941 25.2985 97.0132 21.3148 90.9902Z" fill="#131313" stroke="white" stroke-miterlimit="10" stroke-linejoin="round"/>
<path d="M34.7253 66.6375L33.6604 67.3418" stroke="white" stroke-miterlimit="10" stroke-linejoin="round"/>
<path d="M36.856 66.9901L36.0953 67.4932" stroke="white" stroke-miterlimit="10" stroke-linejoin="round"/>
<path d="M39.8601 67.7909L38.998 68.3611" stroke="white" stroke-miterlimit="10" stroke-linejoin="round"/>
<path d="M42.4451 69.6034L41.3295 70.3413" stroke="white" stroke-miterlimit="10" stroke-linejoin="round"/>
<path d="M45.0313 71.635L43.9664 72.3394" stroke="white" stroke-miterlimit="10" stroke-linejoin="round"/>
<path d="M48.6783 77.1469L47.5627 77.8848" stroke="white" stroke-miterlimit="10" stroke-linejoin="round"/>
<path d="M48.5516 86.7683L49.5151 86.1311" stroke="white" stroke-miterlimit="10" stroke-linejoin="round"/>
<path d="M47.7405 89.0671L48.8054 88.3628" stroke="white" stroke-miterlimit="10" stroke-linejoin="round"/>
<path d="M46.9277 91.5852L47.9926 90.8809" stroke="white" stroke-miterlimit="10" stroke-linejoin="round"/>
<path d="M31.9386 66.5002L30.3159 67.5735" stroke="white" stroke-miterlimit="10" stroke-linejoin="round"/>
<path d="M28.3633 80.8242C27.6881 79.8033 27.8574 79.1777 28.5673 78.7081C29.2772 78.2386 29.9192 78.3276 30.5944 79.3484L30.9658 79.9099L33.0448 78.5348L32.741 78.0754C31.4919 76.1868 29.8703 75.4984 28.0957 76.2319L27.3868 75.16L25.612 76.3339L26.321 77.4058C25.036 78.7693 25.0012 80.4799 26.2503 82.3684C28.9174 86.4008 33.3289 83.703 35.2195 86.5614C35.8947 87.5823 35.6746 88.2414 35.0154 88.6774C34.3562 89.1134 33.6635 89.058 32.9883 88.0372L32.2456 86.9142L30.1665 88.2893L30.808 89.2591C32.0571 91.1477 33.7125 91.8871 35.487 91.1537L36.1622 92.1745L37.937 91.0006L37.2618 89.9798C38.6312 88.6338 38.6322 86.8722 37.3494 84.9326C34.6653 80.9848 30.2538 83.6825 28.3633 80.8242Z" fill="white"/>
<path d="M63.8585 75.3553C75.4781 75.3553 84.8976 65.8738 84.8976 54.1777C84.8976 42.4816 75.4781 33 63.8585 33C52.239 33 42.8195 42.4816 42.8195 54.1777C42.8195 65.8738 52.239 75.3553 63.8585 75.3553Z" fill="#131313" stroke="white" stroke-miterlimit="10" stroke-linejoin="round"/>
<path d="M61.4004 75.3553C73.02 75.3553 82.4395 65.8738 82.4395 54.1777C82.4395 42.4816 73.02 33 61.4004 33C49.7809 33 40.3613 42.4816 40.3613 54.1777C40.3613 65.8738 49.7809 75.3553 61.4004 75.3553Z" fill="#131313" stroke="white" stroke-miterlimit="10" stroke-linejoin="round"/>
<path d="M61.402 71.1818C70.7316 71.1818 78.2947 63.5688 78.2947 54.1778C78.2947 44.7868 70.7316 37.1738 61.402 37.1738C52.0724 37.1738 44.5093 44.7868 44.5093 54.1778C44.5093 63.5688 52.0724 71.1818 61.402 71.1818Z" fill="#131313" stroke="white" stroke-miterlimit="10" stroke-linejoin="round"/>
<path d="M45.9682 54.1778C45.9682 45.0575 53.1092 37.5603 62.093 37.1738C61.8627 37.1738 61.6323 37.1738 61.402 37.1738C52.111 37.1738 44.5093 44.7483 44.5093 54.1778C44.5093 63.6073 52.0342 71.1818 61.402 71.1818C61.6323 71.1818 61.8627 71.1818 62.093 71.1818C53.1092 70.718 45.9682 63.2981 45.9682 54.1778Z" fill="#131313" stroke="white" stroke-miterlimit="10" stroke-linejoin="round"/>
<path d="M77.0644 37.8694H75.4519" stroke="white" stroke-miterlimit="10" stroke-linejoin="round"/>
<path d="M79.0618 39.7241H77.91" stroke="white" stroke-miterlimit="10" stroke-linejoin="round"/>
<path d="M81.6686 42.6611H80.3633" stroke="white" stroke-miterlimit="10" stroke-linejoin="round"/>
<path d="M83.1286 46.3713H81.4393" stroke="white" stroke-miterlimit="10" stroke-linejoin="round"/>
<path d="M84.4372 50.3132H82.8247" stroke="white" stroke-miterlimit="10" stroke-linejoin="round"/>
<path d="M84.4383 58.6606H82.749" stroke="white" stroke-miterlimit="10" stroke-linejoin="round"/>
<path d="M77.6024 68.7083H79.0614" stroke="white" stroke-miterlimit="10" stroke-linejoin="round"/>
<path d="M75.1442 70.5632H76.7567" stroke="white" stroke-miterlimit="10" stroke-linejoin="round"/>
<path d="M72.5347 72.6501H74.1471" stroke="white" stroke-miterlimit="10" stroke-linejoin="round"/>
<path d="M74.2233 35.7825H71.7662" stroke="white" stroke-miterlimit="10" stroke-linejoin="round"/>
<path d="M60.4778 48.3809C60.4778 46.8351 61.0921 46.294 62.167 46.294C63.242 46.294 63.8563 46.8351 63.8563 48.3809V49.2311H67.0045V48.5355C67.0045 45.6757 65.7759 43.8207 63.3956 43.357V41.7339H60.7081V43.357C58.4046 43.898 57.176 45.6757 57.176 48.5355C57.176 54.6414 63.7027 54.8733 63.7027 59.2016C63.7027 60.7474 63.0117 61.2885 62.0135 61.2885C61.0153 61.2885 60.3242 60.7474 60.3242 59.2016V57.5012H57.176V58.9697C57.176 61.8295 58.4046 63.7618 60.7849 64.2255V65.7713H63.4724V64.2255C65.8527 63.7618 67.0813 61.9068 67.0813 58.9697C67.0045 52.941 60.4778 52.7092 60.4778 48.3809Z" fill="white"/>
<path d="M148.872 156.768C148.872 162.791 144.021 167.789 137.894 167.789H89.2553C83.2553 167.789 78.2766 162.919 78.2766 156.768V38.3533C78.2766 32.33 83.1277 27.332 89.2553 27.332H137.894C143.894 27.332 148.872 32.2019 148.872 38.3533V156.768Z" fill="#131313"/>
<path d="M137.128 24H89.8936C81.8511 24 75.3405 30.5359 75.3405 38.6096V156.639C75.3405 164.713 81.8511 171.249 89.8936 171.249H137.128C145.17 171.249 151.681 164.713 151.681 156.639V38.6096C151.681 30.5359 145.17 24 137.128 24ZM148.872 156.768C148.872 162.791 144.021 167.789 137.894 167.789H89.2554C83.2554 167.789 78.2766 162.919 78.2766 156.768V38.3533C78.2766 32.33 83.1277 27.332 89.2554 27.332H137.894C143.894 27.332 148.872 32.2019 148.872 38.3533V156.768V156.768Z" fill="white"/>
<path d="M121.936 32.3301H105.213C102.021 32.3301 99.5958 29.767 99.5958 26.6913V26.3069H127.681V26.5632C127.553 29.767 125 32.3301 121.936 32.3301Z" fill="white"/>
<path d="M116.957 28.1011H105.34V28.9982H116.957V28.1011Z" fill="white"/>
<path d="M121.681 28.4855C121.681 28.87 121.426 29.1263 121.043 29.1263C120.66 29.1263 120.404 28.87 120.404 28.4855C120.404 28.101 120.66 27.8447 121.043 27.8447C121.298 27.8447 121.681 28.101 121.681 28.4855Z" fill="white"/>
<path d="M77.383 136.647C78.1489 148.694 72.6596 162.022 72.6596 162.022L42.6596 153.564L37.4255 152.026C42.6596 144.721 45.0851 130.496 43.8085 118.962C43.6809 118.065 43.6809 117.296 43.5532 116.527C43.0426 107.044 47 104.224 50.3192 99.9953C53.8936 95.3818 62.0638 78.2091 62.0638 74.1082C62.0638 70.0073 72.2766 60.0113 69.9787 48.7337C69.9787 48.7337 73.0426 46.8114 76.1064 48.3492C77.5106 49.1182 78.9149 50.5279 80.0638 53.0909C82.7447 59.2423 79.0426 76.7994 75.8511 81.1567L69.7234 106.403C69.7234 106.403 71.766 109.991 73.8085 116.399C75.3404 121.653 76.8723 128.446 77.383 136.647Z" fill="#131313"/>
<path d="M37.4255 152.154C42.6596 144.849 45.0851 130.624 43.8085 119.09C42.4043 107.556 46.7447 104.609 50.3192 100.123C53.8936 95.5098 62.0638 78.3372 62.0638 74.2363C62.0638 70.1353 72.2766 60.1393 69.9787 48.8618C69.9787 48.8618 76.4894 44.889 80.0638 53.3472C82.7447 59.4986 79.0426 77.0557 75.8511 81.4129L69.7234 106.659C69.7234 106.659 76.234 117.937 77.383 136.775C78.1489 148.822 72.6596 162.15 72.6596 162.15" stroke="white" stroke-miterlimit="10" stroke-linecap="round" stroke-linejoin="round"/>
<path d="M57.4681 171.761C57.4681 171.761 64.2341 175.991 68.3192 182.655" stroke="white" stroke-miterlimit="10" stroke-linecap="round" stroke-linejoin="round"/>
<path d="M76.617 179.707C76.617 179.707 70.7447 180.604 65.383 174.196C61.9361 170.095 51.5957 168.301 49.2979 157.536" stroke="white" stroke-miterlimit="10" stroke-linecap="round" stroke-linejoin="round"/>
<path d="M138.277 79.8751H88.7447C86.8298 79.8751 85.2979 78.3372 85.2979 76.4149V47.4521C85.2979 45.5298 86.8298 43.9919 88.7447 43.9919H138.277C140.191 43.9919 141.723 45.5298 141.723 47.4521V76.4149C141.723 78.3372 140.191 79.8751 138.277 79.8751Z" stroke="white" stroke-width="0.5" stroke-miterlimit="10" stroke-linecap="round" stroke-linejoin="round"/>
<path d="M113.511 104.324C118.192 104.324 121.986 100.515 121.986 95.816C121.986 91.1172 118.192 87.3081 113.511 87.3081C108.83 87.3081 105.036 91.1172 105.036 95.816C105.036 100.515 108.83 104.324 113.511 104.324Z" stroke="#9989FB" stroke-width="0.829852" stroke-miterlimit="10" stroke-linecap="round" stroke-linejoin="round"/>
<path d="M109.062 96.4542L111.817 99.0066L117.961 92.8384" stroke="#9989FB" stroke-width="0.829852" stroke-miterlimit="10" stroke-linecap="round" stroke-linejoin="round"/>
<path d="M107.365 114.533C108.001 114.533 108.636 114.746 109.06 115.171C109.484 115.597 109.696 116.022 109.696 116.66C109.696 117.298 109.484 117.936 109.06 118.149C108.636 118.574 108.213 118.787 107.365 118.787H105.458V114.533H107.365ZM107.365 118.149C107.789 118.149 108.213 117.936 108.424 117.724C108.636 117.511 108.848 117.086 108.848 116.66C108.848 116.235 108.636 115.809 108.424 115.597C108.213 115.384 107.789 115.171 107.365 115.171H106.306V118.149H107.365V118.149Z" fill="#9989FB"/>
<path d="M110.542 118.362C110.118 118.149 110.118 117.724 110.118 117.086C110.118 116.66 110.33 116.235 110.542 115.809C110.965 115.597 111.389 115.384 111.813 115.384C112.449 115.384 112.872 115.597 113.084 115.809C113.296 116.022 113.508 116.448 113.508 117.086C113.508 117.511 113.296 117.936 113.084 118.362C112.66 118.575 112.237 118.787 111.813 118.787C111.389 118.787 110.965 118.787 110.542 118.362ZM110.965 116.448C110.754 116.66 110.754 116.873 110.754 117.298C110.754 117.724 110.754 117.936 110.965 118.149C111.177 118.362 111.389 118.362 111.813 118.362C112.237 118.362 112.449 118.362 112.66 118.149C112.872 117.936 112.872 117.724 112.872 117.298C112.872 116.873 112.872 116.66 112.66 116.448C112.449 116.235 112.237 116.235 111.813 116.235C111.601 116.022 111.177 116.235 110.965 116.448Z" fill="#9989FB"/>
<path d="M116.265 115.597C116.689 115.597 116.9 115.809 117.112 116.022C117.324 116.235 117.536 116.66 117.536 117.086V119H116.9V117.298C116.9 116.66 116.689 116.447 116.053 116.447C115.629 116.447 115.417 116.447 115.205 116.66C114.994 116.873 114.994 117.086 114.994 117.511V119H114.358V115.809H114.994V116.235C115.205 115.809 115.629 115.597 116.265 115.597Z" fill="#9989FB"/>
<path d="M121.56 117.298H118.806C118.806 117.724 119.018 117.936 119.229 117.936C119.441 117.936 119.653 118.149 120.077 118.149C120.501 118.149 120.924 117.936 120.924 117.724H121.56C121.56 117.936 121.348 118.149 120.924 118.362C120.713 118.575 120.289 118.575 119.865 118.575C119.229 118.575 118.806 118.362 118.594 118.149C118.17 117.936 118.17 117.511 118.17 116.873C118.17 116.235 118.382 116.022 118.594 115.597C118.806 115.171 119.441 115.171 119.865 115.171C120.924 115.597 121.56 116.235 121.56 117.298ZM119.865 116.022C119.653 116.022 119.229 116.022 119.018 116.235C118.806 116.448 118.806 116.66 118.806 116.873H120.924C120.924 116.66 120.713 116.448 120.713 116.235C120.501 116.022 120.289 116.022 119.865 116.022Z" fill="#9989FB"/>
<path d="M218.191 210.592C217.425 208.542 216.787 206.363 216.149 204.313C215.383 201.75 214.872 199.571 213.596 197.136C213.34 196.752 213.213 196.367 212.957 195.855C211.553 193.292 209.638 189.831 208.489 185.602C207.723 182.783 208.489 175.734 209.255 168.942C209.766 164.072 210.277 159.459 210.149 156.768V155.871C209.766 149.078 209 134.725 207.468 130.752C205.936 126.908 204.66 126.395 202.106 125.37C201.851 125.242 201.596 125.114 201.34 124.985C200.447 124.601 198.787 123.704 196.872 122.807C192.66 120.628 187.425 117.937 184.872 117.553C181.425 117.04 177.979 117.809 177.468 117.937C174.149 115.374 168.66 112.17 167 112.17C165.596 112.042 162.66 112.939 161.255 113.452C160.872 113.58 160.617 113.58 160.489 113.708C159.34 112.811 158.319 112.17 157.681 111.786C157.553 111.786 157.553 111.786 157.425 111.657C155.638 110.889 152.83 110.889 151.298 110.889C150.787 110.889 150.532 110.889 150.277 110.889C147.468 106.531 144.66 102.046 143.383 100.124C140.83 96.0226 132.915 79.3626 132.915 79.2345C132.915 79.2345 132.915 79.1063 132.787 79.1063C132.787 79.1063 132.787 79.1063 132.66 79.1063C132.021 78.9782 127.553 77.8248 125.766 82.182C123.723 86.9237 126.66 97.4323 129.34 101.277C130.617 103.071 134.319 110.632 138.021 118.321C137.128 119.219 129.468 126.267 125.766 127.549C122.702 128.574 123.468 144.08 123.979 156.511C124.234 161.125 124.362 165.098 124.362 167.404C124.234 172.018 132.532 178.298 140.702 184.449C147.979 189.96 155.511 195.726 156.404 199.827C156.66 200.981 157.298 202.006 158.191 203.031C159.596 204.825 161.383 206.876 162.149 210.849C162.404 212.002 164.319 213.54 165.723 216.103H220.362C219.979 215.462 219.085 213.155 218.191 210.592ZM142.489 128.061C145.17 133.572 146.83 136.904 147.213 137.288C147.596 137.673 147.596 139.467 147.596 141.133C147.596 142.671 147.596 144.209 147.723 145.618C147.085 146.131 143 149.847 142.234 152.923L138.787 148.822L137.894 136.007C138.277 135.494 141.851 131.778 142.489 128.061Z" fill="#131313"/>
<path d="M163.298 126.523C163.298 126.523 159.851 125.626 157.425 122.422C155 119.219 145.681 104.737 143.128 100.508C140.574 96.4071 132.659 79.6189 132.659 79.6189C132.659 79.6189 127.808 77.9529 125.894 82.5665C123.979 87.18 126.659 97.5605 129.468 101.533C132.404 105.506 146.191 136.263 147.213 137.288C148.362 138.313 146.702 146.515 148.872 148.438" stroke="white" stroke-miterlimit="10" stroke-linecap="round" stroke-linejoin="round"/>
<path d="M147.851 145.746C147.851 145.746 142.745 150.104 142.234 153.436L138.532 148.95L137.638 136.007C137.638 136.007 142.106 131.521 142.362 127.42" stroke="white" stroke-miterlimit="10" stroke-linecap="round" stroke-linejoin="round"/>
<path d="M138.277 118.706C138.277 118.706 129.851 126.651 125.894 128.061C121.936 129.471 124.872 159.202 124.617 167.789C124.362 176.375 154.745 191.369 156.66 200.212C157.425 203.672 160.489 204.441 162.277 211.105" stroke="white" stroke-miterlimit="10" stroke-linecap="round" stroke-linejoin="round"/>
<path d="M150.149 111.273C150.149 111.273 154.745 110.889 157.298 111.914C159.851 112.939 170.319 122.038 172.872 123.704C175.425 125.37 179.128 126.011 179.893 127.933" stroke="white" stroke-miterlimit="10" stroke-linecap="round" stroke-linejoin="round"/>
<path d="M160.362 113.964C160.362 113.964 165.085 112.426 166.872 112.426C168.659 112.554 175.425 116.527 178.362 119.218C181.425 121.91 184.362 123.319 186.276 123.96" stroke="white" stroke-miterlimit="10" stroke-linecap="round" stroke-linejoin="round"/>
<path d="M177.213 118.321C177.213 118.321 180.787 117.424 184.617 117.937C188.447 118.45 198.021 124.088 201.085 125.37C204.149 126.651 205.553 126.908 207.213 131.009C208.872 135.11 209.511 150.744 209.894 156.896C210.276 163.047 206.957 180.733 208.362 185.731C209.638 190.729 212.064 194.573 213.468 197.264" stroke="white" stroke-miterlimit="10" stroke-linecap="round" stroke-linejoin="round"/>
<path d="M137.638 136.007C137.638 136.007 136.872 132.931 135.851 132.547" stroke="white" stroke-miterlimit="10" stroke-linecap="round" stroke-linejoin="round"/>
<path d="M138.404 148.95C138.404 148.95 139.042 152.282 139.808 154.205C140.574 155.999 139.425 158.69 139.425 158.69" stroke="white" stroke-miterlimit="10" stroke-linecap="round" stroke-linejoin="round"/>
<path d="M142.234 153.436C142.106 156.383 145.043 159.843 145.808 159.331" stroke="white" stroke-miterlimit="10" stroke-linecap="round" stroke-linejoin="round"/>
<path d="M157.17 136.007C157.17 136.007 160.362 130.881 163.298 130.624C166.234 130.368 169.808 134.725 171.723 134.341C173.638 133.956 175.936 131.137 179.128 130.624C182.319 130.112 183.723 131.649 186.277 131.778C188.83 131.906 188.957 128.574 192.021 128.061C194.957 127.549 195.979 129.086 198.021 129.471C200.064 129.855 200.574 128.317 202.106 127.42" stroke="white" stroke-miterlimit="10" stroke-linecap="round" stroke-linejoin="round"/>
<path d="M107.894 62.9589C107.638 63.7278 107.255 64.2404 106.872 64.8812C106.489 65.3938 105.979 65.522 105.34 65.2657C104.702 65.0094 104.191 65.0094 103.681 65.2657C103.043 65.522 102.66 65.3938 102.277 65.0094C101.383 63.9841 100.872 62.7026 100.872 61.2929C100.872 60.0114 101.638 59.1143 102.66 58.858C102.915 58.858 103.298 58.858 103.553 58.9861C104.191 59.2424 104.702 59.2424 105.34 58.9861C106.106 58.7298 106.745 58.858 107.383 59.2424C107.511 59.3706 107.638 59.4987 107.894 59.6269C107.255 60.1395 106.872 60.7803 106.872 61.5492C106.745 62.0618 107.128 62.5744 107.894 62.9589Z" fill="white"/>
<path d="M113 57.1919C111.723 57.0637 110.574 57.0637 109.298 57.0637V65.1374H110.574V62.4462C111.085 62.4462 111.596 62.4462 112.106 62.4462C112.362 62.4462 112.617 62.4462 112.872 62.4462C114.277 62.1899 115.043 61.0365 115.043 59.755C114.915 58.4734 114.149 57.32 113 57.1919ZM113.638 60.0113C113.511 60.7802 113 61.2928 112.362 61.2928C111.723 61.2928 111.213 61.2928 110.574 61.2928V58.089C111.34 58.089 111.979 58.089 112.617 58.2171C113.383 58.4734 113.766 59.1142 113.638 60.0113Z" fill="white"/>
<path d="M120.277 61.0365C120.277 60.3958 120.021 59.8831 119.383 59.4987C118.362 58.9861 117.34 58.9861 116.319 59.6268C115.808 59.8831 115.553 60.3958 115.553 61.0365C115.936 61.0365 116.191 61.0365 116.574 61.0365C116.702 61.0365 116.83 60.9084 116.83 60.9084C117.085 60.2676 117.851 60.1395 118.489 60.2676C119 60.3958 119.255 60.9084 119.128 61.6773C118.745 61.6773 118.234 61.6773 117.851 61.8055C117.34 61.8055 116.957 61.9336 116.447 62.0618C115.681 62.3181 115.298 62.8307 115.298 63.5996C115.298 64.2404 115.681 64.8812 116.319 65.2656C117.085 65.6501 117.979 65.5219 118.617 65.0093C118.745 64.8812 118.872 64.753 119.128 64.4967V65.2656H120.277C120.277 63.7278 120.277 62.4462 120.277 61.0365ZM117.085 64.2404C116.702 64.1122 116.447 63.8559 116.447 63.4715C116.447 63.087 116.702 62.8307 117.085 62.7025C117.723 62.5744 118.362 62.5744 118.872 62.4462C119.128 63.8559 118.234 64.4967 117.085 64.2404Z" fill="white"/>
<path d="M126.404 59.2424C125.766 60.9084 125.255 62.5744 124.617 64.2404C124.489 64.7531 124.234 65.2657 124.106 65.6501C123.596 67.0598 122.957 67.4443 121.426 67.3161V66.2909H121.681C122.574 66.2909 123.085 65.522 122.702 64.7531C122.064 63.0871 121.426 61.2929 120.787 59.6269C120.787 59.4987 120.787 59.3706 120.66 59.2424C121.043 59.2424 121.426 59.2424 121.808 59.2424C121.936 59.2424 122.064 59.3706 122.064 59.4987C122.447 60.9084 122.957 62.3181 123.34 63.7278C123.34 63.856 123.34 63.856 123.468 63.9841C123.723 63.3434 123.851 62.7026 124.106 62.19C124.362 61.2929 124.617 60.3958 124.872 59.4987C124.872 59.2424 125 59.2424 125.255 59.2424C125.638 59.2424 125.894 59.2424 126.404 59.2424Z" fill="white"/>
<path d="M104.447 58.4735C104.319 58.4735 104.191 58.4735 104.191 58.3453C104.191 57.4483 105.085 56.423 105.979 56.5512C106.106 57.4483 105.468 58.3453 104.447 58.4735Z" fill="white"/>
<line x1="183.361" y1="61.5" x2="276.361" y2="61.5" stroke="#F3F2F2"/>
<line x1="183.361" y1="69.5" x2="244.361" y2="69.5" stroke="#F3F2F2"/>
<path d="M273.847 26H185.404C173.219 26 163.362 35.4452 163.362 47.0807L163.362 62.2824C163.362 72.4121 170.892 80.8991 180.749 82.9525L176.094 96.7781L197.726 83.5H273.847C285.976 83.5 295.799 74.1406 295.888 62.5781C295.889 62.5252 295.889 47.1338 295.889 47.0808C295.889 35.4453 286.031 26 273.847 26Z" stroke="white" stroke-miterlimit="10" stroke-linecap="round" stroke-linejoin="round"/>
<path d="M190.239 37.1015C190.658 35.8106 192.485 35.8106 192.904 37.1015L193.774 39.7775C193.961 40.3549 194.499 40.7457 195.106 40.7457H197.92C199.277 40.7457 199.842 42.4827 198.744 43.2805L196.467 44.9344C195.976 45.2912 195.771 45.9237 195.958 46.501L196.828 49.177C197.247 50.4679 195.77 51.5414 194.671 50.7436L192.395 49.0897C191.904 48.7329 191.239 48.7329 190.748 49.0897L188.471 50.7436C187.373 51.5414 185.896 50.4679 186.315 49.177L187.185 46.501C187.372 45.9237 187.167 45.2912 186.676 44.9344L184.399 43.2805C183.301 42.4827 183.866 40.7457 185.223 40.7457H188.037C188.644 40.7457 189.182 40.3549 189.369 39.7775L190.239 37.1015Z" fill="#6E58F1"/>
<path d="M209.658 37.1015C210.077 35.8106 211.904 35.8106 212.323 37.1015L213.193 39.7775C213.38 40.3549 213.918 40.7457 214.525 40.7457H217.339C218.696 40.7457 219.261 42.4827 218.163 43.2805L215.886 44.9344C215.395 45.2912 215.19 45.9237 215.377 46.501L216.247 49.177C216.666 50.4679 215.189 51.5414 214.09 50.7436L211.814 49.0897C211.323 48.7329 210.658 48.7329 210.167 49.0897L207.891 50.7436C206.792 51.5414 205.315 50.4679 205.734 49.177L206.604 46.501C206.791 45.9237 206.586 45.2912 206.095 44.9344L203.818 43.2805C202.72 42.4827 203.285 40.7457 204.642 40.7457H207.456C208.063 40.7457 208.601 40.3549 208.788 39.7775L209.658 37.1015Z" fill="#6E58F1"/>
<path d="M229.077 37.1015C229.496 35.8106 231.323 35.8106 231.742 37.1015L232.612 39.7775C232.799 40.3549 233.337 40.7457 233.944 40.7457H236.758C238.115 40.7457 238.68 42.4827 237.582 43.2805L235.305 44.9344C234.814 45.2912 234.609 45.9237 234.796 46.501L235.666 49.177C236.085 50.4679 234.608 51.5414 233.51 50.7436L231.233 49.0897C230.742 48.7329 230.077 48.7329 229.586 49.0897L227.31 50.7436C226.211 51.5414 224.734 50.4679 225.153 49.177L226.023 46.501C226.21 45.9237 226.005 45.2912 225.514 44.9344L223.238 43.2805C222.139 42.4827 222.704 40.7457 224.061 40.7457H226.875C227.482 40.7457 228.02 40.3549 228.207 39.7775L229.077 37.1015Z" fill="#6E58F1"/>
<path d="M248.496 37.1015C248.915 35.8106 250.742 35.8106 251.161 37.1015L252.031 39.7775C252.218 40.3549 252.756 40.7457 253.363 40.7457H256.177C257.534 40.7457 258.099 42.4827 257.001 43.2805L254.724 44.9344C254.233 45.2912 254.028 45.9237 254.215 46.501L255.085 49.177C255.504 50.4679 254.027 51.5414 252.929 50.7436L250.652 49.0897C250.161 48.7329 249.496 48.7329 249.005 49.0897L246.729 50.7436C245.631 51.5414 244.153 50.4679 244.572 49.177L245.442 46.501C245.63 45.9237 245.424 45.2912 244.933 44.9344L242.657 43.2805C241.558 42.4827 242.123 40.7457 243.48 40.7457H246.294C246.901 40.7457 247.439 40.3549 247.627 39.7775L248.496 37.1015Z" fill="#6E58F1"/>
<path d="M267.915 37.1015C268.335 35.8106 270.161 35.8106 270.58 37.1015L271.45 39.7775C271.637 40.3549 272.175 40.7457 272.782 40.7457H275.596C276.954 40.7457 277.518 42.4827 276.42 43.2805L274.143 44.9344C273.652 45.2912 273.447 45.9237 273.634 46.501L274.504 49.177C274.923 50.4679 273.446 51.5414 272.348 50.7436L270.071 49.0897C269.58 48.7329 268.915 48.7329 268.424 49.0897L266.148 50.7436C265.05 51.5414 263.572 50.4679 263.992 49.177L264.861 46.501C265.049 45.9237 264.843 45.2912 264.352 44.9344L262.076 43.2805C260.978 42.4827 261.542 40.7457 262.899 40.7457H265.713C266.32 40.7457 266.858 40.3549 267.046 39.7775L267.915 37.1015Z" fill="#666666"/>
</svg>