<svg width="17" height="16" viewBox="0 0 17 16" fill="none" xmlns="http://www.w3.org/2000/svg">
<path d="M12.7828 7.55305C13.1114 7.55305 13.3777 7.81939 13.3777 8.14794C13.3777 8.47649 13.1114 8.74283 12.7828 8.74283H8.30845V13.5167C8.30845 13.8589 8.03105 14.1363 7.68887 14.1363C7.34669 14.1363 7.06929 13.8589 7.06929 13.5167V8.74283H2.59489C2.26634 8.74283 2 8.47649 2 8.14794C2 7.81939 2.26634 7.55305 2.59489 7.55305H7.06929V2.61958C7.06929 2.2774 7.34669 2 7.68887 2C8.03105 2 8.30845 2.2774 8.30845 2.61958V7.55305H12.7828Z" fill="white"/>
</svg>
