<svg id="problem" viewBox="0 0 190 190" fill="none" xmlns="http://www.w3.org/2000/svg">
<g clip-path="url(#clip0_142_8246)">
<path d="M102.939 129.966L110.605 203.374" stroke="#272727" stroke-width="2" stroke-miterlimit="10"/>
<path d="M107.291 169.497L103.779 165.777" stroke="#272727" stroke-width="2" stroke-miterlimit="10"/>
<path d="M104.818 166.868C104.818 166.868 104.917 165.232 103.433 163.892C102.543 163.099 97.795 161.065 97.3499 162.752C96.8553 164.587 101.702 168.158 104.818 166.868Z" fill="#6E58F1" stroke="#272727" stroke-miterlimit="10"/>
<path d="M104.818 166.868L100.318 164.041" stroke="#272727" stroke-width="0.5" stroke-miterlimit="10"/>
<path d="M108.132 177.929L104.62 174.209" stroke="#272727" stroke-width="2" stroke-miterlimit="10"/>
<path d="M105.709 175.35C105.709 175.35 105.808 173.713 104.324 172.374C103.434 171.58 98.6856 169.547 98.2405 171.233C97.7459 173.019 102.593 176.639 105.709 175.35Z" fill="#6E58F1" stroke="#272727" stroke-miterlimit="10"/>
<path d="M105.709 175.35L101.208 172.523" stroke="#272727" stroke-width="0.5" stroke-miterlimit="10"/>
<path d="M105.857 155.709L102.346 151.989" stroke="#272727" stroke-width="2" stroke-miterlimit="10"/>
<path d="M103.384 153.129C103.384 153.129 103.483 151.492 102 150.153C101.109 149.36 96.3614 147.326 95.9163 149.012C95.4217 150.848 100.269 154.419 103.384 153.129Z" fill="#6E58F1" stroke="#272727" stroke-miterlimit="10"/>
<path d="M103.385 153.129L98.8842 150.302" stroke="#272727" stroke-width="0.5" stroke-miterlimit="10"/>
<path d="M104.423 141.919L100.911 138.199" stroke="#272727" stroke-width="2" stroke-miterlimit="10"/>
<path d="M101.95 139.34C101.95 139.34 102.049 137.703 100.565 136.364C99.6748 135.57 94.9269 133.537 94.4817 135.223C93.9872 137.009 98.834 140.58 101.95 139.34Z" fill="#6E58F1" stroke="#272727" stroke-miterlimit="10"/>
<path d="M101.95 139.34L97.4495 136.513" stroke="#272727" stroke-width="0.5" stroke-miterlimit="10"/>
<path d="M110.704 182.096C110.704 182.096 110.258 180.508 111.445 178.872C112.138 177.88 116.391 174.953 117.183 176.491C118.023 178.177 114.017 182.691 110.704 182.096Z" fill="#6E58F1" stroke="#272727" stroke-miterlimit="10"/>
<path d="M106.5 162.851L109.171 158.486" stroke="#272727" stroke-width="2" stroke-miterlimit="10"/>
<path d="M108.379 159.776C108.379 159.776 107.934 158.188 109.121 156.552C109.814 155.56 114.067 152.633 114.858 154.171C115.699 155.907 111.693 160.42 108.379 159.776Z" fill="#6E58F1" stroke="#272727" stroke-miterlimit="10"/>
<path d="M108.38 159.776L112.435 155.907" stroke="#272727" stroke-width="0.5" stroke-miterlimit="10"/>
<path d="M105.511 153.08L108.182 148.715" stroke="#272727" stroke-width="2" stroke-miterlimit="10"/>
<path d="M107.342 150.004C107.342 150.004 106.897 148.417 108.084 146.78C108.776 145.788 113.029 142.862 113.821 144.4C114.711 146.086 110.655 150.6 107.342 150.004Z" fill="#6E58F1" stroke="#272727" stroke-miterlimit="10"/>
<path d="M107.341 150.004L111.397 146.135" stroke="#272727" stroke-width="0.5" stroke-miterlimit="10"/>
<path d="M103.978 138.695L106.649 134.331" stroke="#272727" stroke-width="2" stroke-miterlimit="10"/>
<path d="M105.858 135.67C105.858 135.67 105.413 134.082 106.6 132.446C107.292 131.454 111.546 128.527 112.337 130.065C113.178 131.751 109.172 136.265 105.858 135.67Z" fill="#6E58F1" stroke="#272727" stroke-miterlimit="10"/>
<path d="M105.858 135.67L109.913 131.751" stroke="#272727" stroke-width="0.5" stroke-miterlimit="10"/>
<path d="M102.841 129.519C102.841 129.519 102.396 127.932 103.583 126.295C104.276 125.303 108.529 122.377 109.32 123.914C110.211 125.65 106.205 130.164 102.841 129.519Z" fill="#6E58F1" stroke="#272727" stroke-miterlimit="10"/>
<path d="M102.841 129.519L106.946 125.651" stroke="#272727" stroke-width="0.5" stroke-miterlimit="10"/>
<path d="M103.088 129.718C103.088 129.718 101.456 129.966 99.9724 128.627C99.0821 127.833 96.6092 123.27 98.2413 122.674C100.022 121.98 104.028 126.444 103.088 129.718Z" fill="#6E58F1" stroke="#272727" stroke-miterlimit="10"/>
<path d="M103.088 129.718L99.6754 125.254" stroke="#272727" stroke-width="0.5" stroke-miterlimit="10"/>
<path d="M123.366 140.184L116.887 203.573" stroke="#272727" stroke-width="2" stroke-miterlimit="10"/>
<path d="M119.508 179.764L116.837 175.4" stroke="#272727" stroke-width="2" stroke-miterlimit="10"/>
<path d="M117.629 176.739C117.629 176.739 118.074 175.152 116.887 173.515C116.195 172.523 111.941 169.597 111.15 171.134C110.309 172.821 114.315 177.334 117.629 176.739Z" fill="#6E58F1" stroke="#272727" stroke-miterlimit="10"/>
<path d="M117.629 176.739L113.771 173.019" stroke="#272727" stroke-width="0.5" stroke-miterlimit="10"/>
<path d="M120.892 166.025L118.221 161.66" stroke="#272727" stroke-width="2" stroke-miterlimit="10"/>
<path d="M119.063 163C119.063 163 119.508 161.412 118.321 159.776C117.628 158.784 113.375 155.857 112.584 157.395C111.743 159.081 115.749 163.595 119.063 163Z" fill="#6E58F1" stroke="#272727" stroke-miterlimit="10"/>
<path d="M119.062 163L115.205 159.28" stroke="#272727" stroke-width="0.5" stroke-miterlimit="10"/>
<path d="M122.327 152.236L119.656 147.872" stroke="#272727" stroke-width="2" stroke-miterlimit="10"/>
<path d="M120.497 149.161C120.497 149.161 120.942 147.574 119.755 145.937C119.063 144.945 114.809 142.019 114.018 143.556C113.128 145.292 117.183 149.756 120.497 149.161Z" fill="#6E58F1" stroke="#272727" stroke-miterlimit="10"/>
<path d="M120.497 149.161L116.639 145.49" stroke="#272727" stroke-width="0.5" stroke-miterlimit="10"/>
<path d="M120.101 173.118L123.613 169.398" stroke="#272727" stroke-width="2" stroke-miterlimit="10"/>
<path d="M122.575 170.539C122.575 170.539 122.476 168.902 123.959 167.563C124.85 166.769 129.598 164.736 130.043 166.422C130.537 168.208 125.69 171.828 122.575 170.539Z" fill="#6E58F1" stroke="#272727" stroke-miterlimit="10"/>
<path d="M122.574 170.539L127.322 167.563" stroke="#272727" stroke-width="0.5" stroke-miterlimit="10"/>
<path d="M121.14 163.347L124.651 159.627" stroke="#272727" stroke-width="2" stroke-miterlimit="10"/>
<path d="M123.564 160.768C123.564 160.768 123.465 159.131 124.948 157.792C125.839 156.998 130.587 154.964 131.032 156.651C131.526 158.436 126.679 162.008 123.564 160.768Z" fill="#6E58F1" stroke="#272727" stroke-miterlimit="10"/>
<path d="M123.563 160.768L128.361 157.792" stroke="#272727" stroke-width="0.5" stroke-miterlimit="10"/>
<path d="M122.624 149.013L126.135 145.292" stroke="#272727" stroke-width="2" stroke-miterlimit="10"/>
<path d="M125.046 146.384C125.046 146.384 124.947 144.747 126.431 143.408C127.321 142.614 132.069 140.58 132.515 142.267C133.009 144.102 128.162 147.673 125.046 146.384Z" fill="#6E58F1" stroke="#272727" stroke-miterlimit="10"/>
<path d="M125.047 146.383L129.845 143.407" stroke="#272727" stroke-width="0.5" stroke-miterlimit="10"/>
<path d="M123.365 139.787C123.365 139.787 123.266 138.15 124.75 136.811C125.64 136.017 130.388 133.983 130.833 135.67C131.377 137.505 126.481 141.076 123.365 139.787Z" fill="#6E58F1" stroke="#272727" stroke-miterlimit="10"/>
<path d="M123.365 139.787L128.162 136.811" stroke="#272727" stroke-width="0.5" stroke-miterlimit="10"/>
<path d="M123.563 139.985C123.563 139.985 121.931 139.936 120.744 138.299C120.052 137.307 118.568 132.396 120.249 132.099C122.129 131.801 125.146 137.009 123.563 139.985Z" fill="#6E58F1" stroke="#272727" stroke-miterlimit="10"/>
<path d="M123.563 139.985L121.14 134.926" stroke="#272727" stroke-width="0.5" stroke-miterlimit="10"/>
<path d="M114.512 109.878L114.413 203.573" stroke="#272727" stroke-width="2" stroke-miterlimit="10"/>
<path d="M114.611 172.176L111.496 168.108" stroke="#272727" stroke-width="2" stroke-miterlimit="10"/>
<path d="M112.435 169.348C112.435 169.348 112.682 167.712 111.347 166.224C110.556 165.331 106.006 162.851 105.412 164.438C104.72 166.224 109.22 170.291 112.435 169.348Z" fill="#6E58F1" stroke="#272727" stroke-miterlimit="10"/>
<path d="M112.435 169.349L108.231 166.075" stroke="#272727" stroke-width="0.5" stroke-miterlimit="10"/>
<path d="M114.611 151.393L111.496 147.326" stroke="#272727" stroke-width="2" stroke-miterlimit="10"/>
<path d="M112.435 148.566C112.435 148.566 112.682 146.929 111.347 145.441C110.556 144.548 106.006 142.068 105.412 143.655C104.72 145.441 109.22 149.508 112.435 148.566Z" fill="#6E58F1" stroke="#272727" stroke-miterlimit="10"/>
<path d="M112.435 148.566L108.231 145.292" stroke="#272727" stroke-width="0.5" stroke-miterlimit="10"/>
<path d="M114.611 137.604L111.496 133.537" stroke="#272727" stroke-width="2" stroke-miterlimit="10"/>
<path d="M112.435 134.727C112.435 134.727 112.682 133.091 111.347 131.603C110.556 130.71 106.006 128.23 105.412 129.817C104.72 131.603 109.22 135.67 112.435 134.727Z" fill="#6E58F1" stroke="#272727" stroke-miterlimit="10"/>
<path d="M112.435 134.727L108.231 131.454" stroke="#272727" stroke-width="0.5" stroke-miterlimit="10"/>
<path d="M114.611 123.716L111.496 119.649" stroke="#272727" stroke-width="2" stroke-miterlimit="10"/>
<path d="M112.435 120.839C112.435 120.839 112.682 119.203 111.347 117.715C110.556 116.822 106.006 114.342 105.412 115.929C104.72 117.715 109.22 121.782 112.435 120.839Z" fill="#6E58F1" stroke="#272727" stroke-miterlimit="10"/>
<path d="M112.435 120.839L108.231 117.566" stroke="#272727" stroke-width="0.5" stroke-miterlimit="10"/>
<path d="M114.512 167.116L117.628 163.049" stroke="#272727" stroke-width="2" stroke-miterlimit="10"/>
<path d="M116.688 164.289C116.688 164.289 116.44 162.652 117.776 161.164C118.567 160.271 123.117 157.791 123.711 159.379C124.403 161.164 119.952 165.232 116.688 164.289Z" fill="#6E58F1" stroke="#272727" stroke-miterlimit="10"/>
<path d="M116.689 164.289L121.14 160.817" stroke="#272727" stroke-width="0.5" stroke-miterlimit="10"/>
<path d="M114.512 153.228L117.628 149.161" stroke="#272727" stroke-width="2" stroke-miterlimit="10"/>
<path d="M116.688 150.401C116.688 150.401 116.44 148.764 117.776 147.276C118.567 146.383 123.117 143.903 123.711 145.49C124.403 147.276 119.952 151.343 116.688 150.401Z" fill="#6E58F1" stroke="#272727" stroke-miterlimit="10"/>
<path d="M116.689 150.401L121.14 146.929" stroke="#272727" stroke-width="0.5" stroke-miterlimit="10"/>
<path d="M114.512 134.876L117.628 130.809" stroke="#272727" stroke-width="2" stroke-miterlimit="10"/>
<path d="M116.688 132.049C116.688 132.049 116.44 130.412 117.776 128.924C118.567 128.031 123.117 125.551 123.711 127.138C124.403 128.924 119.952 132.991 116.688 132.049Z" fill="#6E58F1" stroke="#272727" stroke-miterlimit="10"/>
<path d="M116.689 132.049L121.14 128.577" stroke="#272727" stroke-width="0.5" stroke-miterlimit="10"/>
<path d="M114.513 120.492L117.629 116.425" stroke="#272727" stroke-width="2" stroke-miterlimit="10"/>
<path d="M116.689 117.615C116.689 117.615 116.442 115.978 117.777 114.49C118.569 113.598 123.119 111.118 123.712 112.705C124.405 114.49 119.953 118.558 116.689 117.615Z" fill="#6E58F1" stroke="#272727" stroke-miterlimit="10"/>
<path d="M116.689 117.615L121.14 114.193" stroke="#272727" stroke-width="0.5" stroke-miterlimit="10"/>
<path d="M114.365 111.217C114.365 111.217 114.118 109.58 115.453 108.092C116.244 107.199 120.795 104.719 121.388 106.306C122.031 108.092 117.58 112.159 114.365 111.217Z" fill="#6E58F1" stroke="#272727" stroke-miterlimit="10"/>
<path d="M114.365 111.217L118.816 107.794" stroke="#272727" stroke-width="0.5" stroke-miterlimit="10"/>
<path d="M114.562 111.415C114.562 111.415 112.93 111.514 111.595 110.026C110.803 109.134 108.825 104.372 110.457 103.926C112.287 103.43 115.848 108.29 114.562 111.415Z" fill="#6E58F1" stroke="#272727" stroke-miterlimit="10"/>
<path d="M114.562 111.415L111.595 106.604" stroke="#272727" stroke-width="0.5" stroke-miterlimit="10"/>
<path d="M102.889 14H154.573C163.426 14 170.548 21.192 170.548 30.0209C170.548 38.8994 163.377 46.0418 154.573 46.0418H102.889C94.0363 46.0418 86.9143 38.8498 86.9143 30.0209C86.9143 21.192 94.0857 14 102.889 14Z" stroke="#272727" stroke-miterlimit="10"/>
<path d="M102.692 45.0993C110.968 45.0993 117.678 38.3706 117.678 30.0704C117.678 21.7702 110.968 15.0415 102.692 15.0415C94.4153 15.0415 87.7059 21.7702 87.7059 30.0704C87.7059 38.3706 94.4153 45.0993 102.692 45.0993Z" stroke="#272727" stroke-miterlimit="10"/>
<path d="M136.323 40.4371C135.878 40.4371 135.433 40.2387 135.136 39.9411L126.58 31.3106C125.937 30.6658 125.937 29.5746 126.58 28.9298C127.223 28.285 128.311 28.285 128.954 28.9298L136.174 36.1715L146.264 22.6306C146.808 21.8866 147.847 21.7378 148.588 22.2834C149.33 22.829 149.479 23.8706 148.935 24.6146L137.708 39.6931C137.411 40.0899 136.966 40.3379 136.471 40.3379C136.422 40.4371 136.372 40.4371 136.323 40.4371Z" fill="#272727"/>
<path d="M154.573 58.8196H102.889C94.0363 58.8196 86.9143 66.0116 86.9143 74.8405C86.9143 83.7189 94.0857 90.8614 102.889 90.8614H154.573C163.426 90.8614 170.548 83.6693 170.548 74.8405C170.548 66.0116 163.426 58.8196 154.573 58.8196Z" fill="#272727"/>
<path d="M154.771 92.8453C164.686 92.8453 172.724 84.7842 172.724 74.8404C172.724 64.8965 164.686 56.8354 154.771 56.8354C144.855 56.8354 136.817 64.8965 136.817 74.8404C136.817 84.7842 144.855 92.8453 154.771 92.8453Z" fill="#E0F067" stroke="#272727" stroke-miterlimit="10"/>
<path d="M115.649 75.4356L122.128 68.9379C122.821 68.2435 122.821 67.0531 122.128 66.3587C121.436 65.6643 120.249 65.6643 119.557 66.3587L113.078 72.8563L106.599 66.3587C105.906 65.6643 104.719 65.6643 104.027 66.3587C103.334 67.0531 103.334 68.2435 104.027 68.9379L110.456 75.4356L103.977 81.9332C103.285 82.6276 103.285 83.818 103.977 84.5124C104.324 84.8596 104.818 85.058 105.263 85.058C105.708 85.058 106.203 84.8596 106.549 84.5124L113.028 78.0148L119.507 84.5124C119.853 84.8596 120.348 85.058 120.793 85.058C121.238 85.058 121.733 84.8596 122.079 84.5124C122.771 83.818 122.771 82.6276 122.079 81.9332L115.649 75.4356Z" fill="#E0F067" stroke="#272727" stroke-width="0.9259" stroke-miterlimit="10"/>
<path d="M47.4468 95.1463C47.4468 95.1463 28.5044 102.735 27.6636 103.926C26.8228 105.066 23.707 134.529 23.5586 136.662C23.4102 138.795 21.7286 148.566 21.7286 148.566L36.7144 147.078C36.7144 147.078 36.0715 173.862 35.8737 174.358C35.7253 174.854 34.2415 177.483 35.3791 177.979C36.5166 178.475 60.6027 183.088 64.9056 183.088C69.2084 183.088 85.8263 179.616 86.5188 179.268C87.1617 178.921 88.3487 177.78 88.3487 176.292C88.3487 174.804 88.3487 174.457 88.2003 172.672C88.0519 170.836 88.3487 146.235 88.3487 146.235L103.335 145.739C103.335 145.739 98.2403 113.994 98.2403 112.159C98.2403 110.324 98.3887 105.364 97.3995 104.074C96.4104 102.735 75.638 94.799 75.638 94.799C75.638 94.799 55.558 92.4678 47.4468 95.1463Z" fill="#6E58F1" stroke="#272727" stroke-miterlimit="10" stroke-linecap="round" stroke-linejoin="round"/>
<path d="M35.5273 112.259L35.3789 108.935" stroke="#272727" stroke-miterlimit="10" stroke-linecap="round" stroke-linejoin="round"/>
<path d="M36.5662 141.622L35.577 113.647" stroke="#272727" stroke-miterlimit="10" stroke-linecap="round" stroke-linejoin="round"/>
<path d="M30.5823 117.516C29.3953 115.83 28.3567 113.846 27.7632 111.614" stroke="#272727" stroke-miterlimit="10" stroke-linecap="round" stroke-linejoin="round"/>
<path d="M35.8244 123.022C35.8244 123.022 33.945 121.683 31.9172 119.302" stroke="#272727" stroke-miterlimit="10" stroke-linecap="round" stroke-linejoin="round"/>
<path d="M27.4659 122.278C27.4659 122.278 29.3948 128.428 35.9727 129.767" stroke="#272727" stroke-miterlimit="10" stroke-linecap="round" stroke-linejoin="round"/>
<path d="M35.8247 124.659C35.8247 124.659 37.6052 123.319 38.6438 118.359" stroke="#272727" stroke-miterlimit="10" stroke-linecap="round" stroke-linejoin="round"/>
<path d="M32.1646 131.9C29.9884 130.71 27.5155 128.528 26.2791 124.659" stroke="#272727" stroke-miterlimit="10" stroke-linecap="round" stroke-linejoin="round"/>
<path d="M36.2696 133.388C36.2696 133.388 35.2309 133.239 33.7472 132.694" stroke="#272727" stroke-miterlimit="10" stroke-linecap="round" stroke-linejoin="round"/>
<path d="M87.6077 141.622L88.7947 108.935" stroke="#272727" stroke-miterlimit="10" stroke-linecap="round" stroke-linejoin="round"/>
<path d="M95.5701 114.094C95.9163 113.3 96.213 112.507 96.4109 111.614" stroke="#272727" stroke-miterlimit="10" stroke-linecap="round" stroke-linejoin="round"/>
<path d="M88.3486 123.022C88.3486 123.022 91.7612 120.542 94.2836 116.475" stroke="#272727" stroke-miterlimit="10" stroke-linecap="round" stroke-linejoin="round"/>
<path d="M96.7574 122.278C96.7574 122.278 94.8285 128.428 88.2506 129.767" stroke="#272727" stroke-miterlimit="10" stroke-linecap="round" stroke-linejoin="round"/>
<path d="M88.3491 124.659C88.3491 124.659 86.5686 123.319 85.53 118.359" stroke="#272727" stroke-miterlimit="10" stroke-linecap="round" stroke-linejoin="round"/>
<path d="M94.7289 129.916C96.0148 128.676 97.2018 126.99 97.9437 124.659" stroke="#272727" stroke-miterlimit="10" stroke-linecap="round" stroke-linejoin="round"/>
<path d="M87.9038 133.388C87.9038 133.388 90.0305 133.14 92.355 131.751" stroke="#272727" stroke-miterlimit="10" stroke-linecap="round" stroke-linejoin="round"/>
<path d="M64.8562 175.648V180.806" stroke="#272727" stroke-miterlimit="10" stroke-linecap="round" stroke-linejoin="round"/>
<path d="M64.7571 151.641L64.856 172.672" stroke="#272727" stroke-miterlimit="10" stroke-linecap="round" stroke-linejoin="round"/>
<path d="M64.7075 145.838L64.757 149.806" stroke="#272727" stroke-miterlimit="10" stroke-linecap="round" stroke-linejoin="round"/>
<path d="M62.9272 107.894L63.8175 116.127" stroke="#272727" stroke-miterlimit="10" stroke-linecap="round" stroke-linejoin="round"/>
<path d="M76.4791 101.743C76.6275 99.2632 77.3199 95.1463 77.3199 95.1463L76.1824 92.6663C76.1824 92.6663 74.2041 89.5415 73.8578 88.6983C73.5116 87.8551 70.742 87.7063 70.742 87.7063L61.6912 88.2023H61.1471H60.4052L52.4919 88.3511C52.4919 88.3511 49.6728 88.4999 49.3761 89.3431C49.0299 90.1863 48.0407 92.6663 48.0407 92.6663L45.7162 96.1384C45.7162 96.1384 46.8537 101.247 47.0516 103.727C47.1999 106.207 46.2108 109.183 47.8923 109.034C49.5245 108.886 55.8056 103.082 55.8056 103.082L62.6803 106.852L69.555 103.082C69.555 103.082 75.8362 108.886 77.4683 109.034C79.0015 109.183 76.3307 104.223 76.4791 101.743Z" fill="#6E58F1" stroke="#272727" stroke-miterlimit="10" stroke-linecap="round" stroke-linejoin="round"/>
<path d="M50.9097 83.887L51.3053 90.5334C51.3053 90.5334 53.2837 97.0807 55.806 100.454C58.3284 103.826 62.5818 106.852 62.5818 106.852C62.5818 106.852 68.5662 99.5607 69.4565 98.0727C70.3467 96.5847 71.8304 90.9302 71.8304 90.9302L71.5832 83.5398L50.9097 83.887Z" fill="#F3F2F2" stroke="#272727" stroke-miterlimit="10" stroke-linecap="round" stroke-linejoin="round"/>
<path d="M51.3052 90.5334C51.3052 90.5334 52.0471 92.8647 53.1352 95.4935L60.6528 92.4679L51.5525 83.8374H50.8601L51.3052 90.5334Z" fill="#272727" stroke="#272727" stroke-miterlimit="10" stroke-linecap="round" stroke-linejoin="round"/>
<path d="M48.0402 73.223C48.0402 73.223 49.9196 83.4903 50.4636 84.7303C51.0571 86.0199 56.3986 92.7656 58.5253 93.5592C60.6025 94.4024 62.5314 94.204 64.5592 93.4104C66.587 92.6168 70.4447 87.3591 71.7801 85.1271C73.1154 82.8951 73.9068 72.5286 73.9068 72.5286L73.6595 62.2614C73.6595 62.2614 72.4725 60.5749 68.5158 58.9381C64.5592 57.3013 54.8654 58.6901 52.1947 59.6821C49.5239 60.6741 47.0016 64.7414 47.3972 66.775C47.8423 68.8086 48.0402 73.223 48.0402 73.223Z" fill="#F3F2F2" stroke="#272727" stroke-miterlimit="10" stroke-linecap="round" stroke-linejoin="round"/>
<path d="M47.1996 67.6181C47.1996 67.6181 45.7653 66.4773 45.3201 69.1061C44.8256 71.7349 46.4577 74.8102 46.9523 75.703C47.3974 76.5958 48.8811 77.5382 48.8811 77.5382L47.1996 67.6181Z" fill="#F3F2F2" stroke="#272727" stroke-miterlimit="10" stroke-linecap="round" stroke-linejoin="round"/>
<path d="M74.105 69.4532C74.105 69.4532 75.193 67.7172 75.9844 69.4036C76.7757 71.09 75.6382 75.0581 74.8468 76.1493C74.0555 77.2405 73.2642 78.4805 73.2642 78.4805L74.1544 69.9988" fill="#F3F2F2"/>
<path d="M74.105 69.4532C74.105 69.4532 75.193 67.7172 75.9844 69.4036C76.7757 71.09 75.6382 75.0581 74.8468 76.1493C74.0555 77.2405 73.2642 78.4805 73.2642 78.4805L74.1544 69.9988" stroke="#272727" stroke-miterlimit="10" stroke-linecap="round" stroke-linejoin="round"/>
<path d="M51.403 48.9188C51.403 48.9188 44.6767 54.4244 45.2702 59.0869C45.8637 63.7493 47.2486 67.6181 47.2486 67.6181L48.1388 73.8182C48.1388 73.8182 48.6334 75.5542 48.8807 74.0166C49.128 72.479 49.2269 70.3958 49.2269 70.3958C49.2269 70.3958 50.1666 70.991 50.8095 68.7093C51.4525 66.4277 51.0074 63.8981 51.403 63.3525C51.7987 62.8069 57.0413 60.8725 57.0413 60.8725C57.0413 60.8725 51.3041 65.0885 53.777 65.5349C56.2499 66.0309 60.8495 65.7829 62.63 64.3445C64.4105 62.8565 66.3889 60.8229 66.3889 60.8229C66.3889 60.8229 62.9268 65.4853 64.8556 65.9317C66.7351 66.3781 71.2852 63.5013 71.2852 63.5013C71.2852 63.5013 71.0874 68.7093 71.4336 69.2549C71.7798 69.8501 72.9173 70.6438 72.9173 70.6438L72.7195 75.8518C72.7195 75.8518 73.4614 76.447 73.7086 74.7606C73.9559 73.0246 74.1043 69.9494 74.1043 69.9494C74.1043 69.9494 76.3794 65.9813 77.0223 63.5013C77.7148 61.0213 78.0115 57.9461 76.5772 55.4165C75.1429 52.8372 73.2635 51.4484 73.2635 51.4484C73.2635 51.4484 65.7954 46.7364 61.3936 46.1908C57.0413 45.6948 51.403 48.9188 51.403 48.9188Z" fill="#272727" stroke="#272727" stroke-miterlimit="10" stroke-linecap="round" stroke-linejoin="round"/>
<path d="M55.6075 75.4551C55.558 76.0999 55.2118 76.6455 54.8162 76.5959C54.4205 76.5959 54.0743 76.0503 54.1237 75.3559C54.1732 74.7111 54.5194 74.1655 54.9151 74.2151C55.3107 74.2647 55.6075 74.8103 55.6075 75.4551Z" fill="#272727"/>
<path d="M67.3784 75.9013C67.3289 76.5462 66.9827 77.0918 66.587 77.0422C66.1914 77.0422 65.8452 76.4965 65.8946 75.8021C65.9441 75.1573 66.2903 74.6117 66.6859 74.6613C67.0816 74.7109 67.3784 75.2565 67.3784 75.9013Z" fill="#272727"/>
<path d="M53.1345 77.836L55.9042 77.7864" stroke="#272727" stroke-miterlimit="10" stroke-linecap="round" stroke-linejoin="round"/>
<path d="M65.7465 78.2822H68.5161" stroke="#272727" stroke-miterlimit="10" stroke-linecap="round" stroke-linejoin="round"/>
<path d="M58.3774 81.9031C58.3774 81.9031 59.5644 83.5895 60.9493 83.7383C62.3341 83.9367 63.9168 81.9527 63.9168 81.9527" stroke="#272727" stroke-miterlimit="10" stroke-linecap="round" stroke-linejoin="round"/>
<path d="M57.7841 87.3095C57.7841 87.3095 61.0978 85.3255 64.6587 87.5575" stroke="#272727" stroke-miterlimit="10" stroke-linecap="round" stroke-linejoin="round"/>
<path d="M51.7 72.231L57.1403 70.6934" stroke="#272727" stroke-width="2" stroke-miterlimit="10" stroke-linecap="round" stroke-linejoin="round"/>
<path d="M70.0983 72.9254L64.8063 70.991" stroke="#272727" stroke-width="2" stroke-miterlimit="10" stroke-linecap="round" stroke-linejoin="round"/>
<path d="M34.5882 139.935C34.5882 139.935 30.4831 137.604 27.5157 138.596C24.5482 139.588 20.4431 145.193 20.0969 146.036C19.7507 146.879 20.4431 154.617 20.4431 154.617C20.4431 154.617 26.2297 157.097 28.5048 157.097C30.8293 157.097 35.9235 152.137 35.9235 152.137L34.5882 139.935Z" fill="#6E58F1" stroke="#272727" stroke-miterlimit="10" stroke-linecap="round" stroke-linejoin="round"/>
<path d="M57.8338 136.066L55.8061 120.194C55.7071 119.401 56.3006 118.657 57.1414 118.657L68.8135 118.31C69.6049 118.31 70.2478 118.954 70.2478 119.748L69.8522 135.223L57.8338 136.066Z" fill="#272727" stroke="#272727" stroke-miterlimit="10" stroke-linecap="round" stroke-linejoin="round"/>
<path d="M55.5587 133.339C55.5587 133.339 46.31 136.959 42.3534 137.803C38.3967 138.646 31.8188 138.943 29.4943 140.779C27.1697 142.564 22.2239 149.36 23.4109 151.84C24.5979 154.32 30.1867 155.808 32.4618 155.312C34.7863 154.816 51.1075 145.243 53.2342 144.052C55.3609 142.911 58.8229 141.076 58.8229 141.076L55.5587 133.339Z" fill="#F3F2F2" stroke="#272727" stroke-miterlimit="10" stroke-linecap="round" stroke-linejoin="round"/>
<path d="M88.052 136.959C88.052 136.959 94.7783 136.067 95.8169 136.067C96.8555 136.067 103.137 139.39 104.62 140.878C106.104 142.366 107.291 146.731 107.291 148.665C107.291 150.6 106.253 154.667 104.917 155.411C103.582 156.155 99.9714 157.643 98.3393 156.601C96.7072 155.56 93.0967 152.534 93.0967 152.534L88.052 136.959Z" fill="#6E58F1" stroke="#272727" stroke-miterlimit="10" stroke-linecap="round" stroke-linejoin="round"/>
<path d="M104.373 147.177C104.373 147.177 101.999 141.771 97.6468 139.539C93.2944 137.307 85.2328 136.067 81.9191 134.281C78.6054 132.495 74.896 128.875 74.896 128.875L72.9672 142.217C72.9672 142.217 80.1386 145.987 83.1555 148.219C86.1725 150.451 93.4923 155.262 96.7565 155.559C100.07 155.857 104.67 154.815 105.263 151.492C105.857 148.219 104.373 147.177 104.373 147.177Z" fill="#F3F2F2" stroke="#272727" stroke-miterlimit="10" stroke-linecap="round" stroke-linejoin="round"/>
<path d="M67.8736 129.47C67.8736 129.47 59.5152 129.47 56.795 130.065C54.1243 130.66 53.0362 132.595 53.6297 133.686C54.2232 134.727 54.3716 135.918 54.3716 135.918C54.3716 135.918 54.0748 137.703 54.5199 138.001C54.9651 138.299 55.8553 139.34 55.8553 139.34C55.8553 139.34 55.1134 140.828 56.3004 141.87C57.4874 142.911 58.6744 143.358 58.6744 143.358C58.6744 143.358 58.6744 144.548 60.4549 144.697C62.2354 144.846 66.4393 142.019 66.4393 142.019L67.8736 129.47Z" fill="#F3F2F2" stroke="#272727" stroke-miterlimit="10" stroke-linecap="round" stroke-linejoin="round"/>
<path d="M70.2481 124.361L69.9513 128.13C69.9513 128.13 65.4506 130.065 65.0055 130.065C64.5604 130.065 59.1695 127.982 58.2792 128.726C57.389 129.47 62.6315 132.198 63.5218 132.346C64.412 132.495 65.1539 132.644 65.1539 132.644C65.1539 132.644 61.3951 132.793 60.8016 132.793C60.2081 132.793 56.5976 131.602 56.3009 132.198C56.0041 132.793 55.7074 133.686 56.746 134.132C57.7846 134.579 59.9113 136.067 59.9113 136.067H57.8341C57.8341 136.067 55.7569 135.918 56.0536 137.108C56.3504 138.299 59.3673 138.745 59.3673 138.745C59.3673 138.745 60.9994 140.531 62.5326 141.572C64.0164 142.614 66.1431 143.953 67.9235 143.804C69.704 143.655 72.4242 142.316 73.0177 142.167C73.6112 142.019 74.5015 140.828 74.5015 138.844C74.5015 136.91 75.2433 134.628 75.3917 132.545C75.5401 130.462 75.6885 129.519 75.095 127.882C74.452 126.345 70.2481 124.361 70.2481 124.361Z" fill="#F3F2F2" stroke="#272727" stroke-miterlimit="10" stroke-linecap="round" stroke-linejoin="round"/>
<path d="M59.9117 136.066C59.9117 136.066 65.0059 137.108 65.5994 137.108C66.1929 137.108 69.5066 136.364 69.5066 136.364" stroke="#272727" stroke-miterlimit="10" stroke-linecap="round" stroke-linejoin="round"/>
<path d="M65.1536 132.644C65.1536 132.644 67.6759 132.942 68.3189 132.793C68.9618 132.644 70.5445 132.346 70.5445 132.346" stroke="#272727" stroke-miterlimit="10" stroke-linecap="round" stroke-linejoin="round"/>
<path d="M59.3182 138.794C59.3182 138.794 63.0771 140.282 64.264 140.58C65.451 140.878 69.3582 139.985 69.3582 139.985" stroke="#272727" stroke-miterlimit="10" stroke-linecap="round" stroke-linejoin="round"/>
</g>
<defs>
<clipPath id="clip0_142_8246">
<rect width="159" height="166" fill="white" transform="translate(20 10)"/>
</clipPath>
</defs>
</svg>
