<svg id="reality" viewBox="0 0 190 190" fill="none" xmlns="http://www.w3.org/2000/svg">
<g clip-path="url(#clip0_142_8162)">
<path d="M1.05273 148.627C1.05273 148.627 10.6797 176.699 40.7099 170.792C40.7099 170.792 47.3673 139.932 52.9711 135.348C56.5632 132.418 64.5138 127.172 66.238 123.344C67.9622 119.469 74.7634 101.463 76.1044 99.2893C77.4455 97.1154 61.7838 72.1155 61.7838 72.1155L28.784 88.9396L10.4402 121.076C10.4402 121.076 6.94384 141.822 1.05273 148.627Z" fill="#6E58F1"/>
<path d="M10.1059 123.533C10.1059 123.533 7.75901 140.877 0 149.951" stroke="#272727" stroke-miterlimit="10" stroke-linecap="round" stroke-linejoin="round"/>
<path d="M40.7109 170.792C40.7109 170.792 47.3205 140.924 52.9721 135.348C52.9721 135.348 65.6643 128.07 67.9633 119.469C69.5438 113.514 72.4175 106.662 73.8065 103.59" stroke="#272727" stroke-miterlimit="10" stroke-linecap="round" stroke-linejoin="round"/>
<path d="M43.3934 104.535C42.9144 104.251 51.0566 110.679 51.3919 119.469" stroke="#272727" stroke-miterlimit="10" stroke-linecap="round" stroke-linejoin="round"/>
<path d="M132.095 99.1475C105.609 105.291 20.3554 104.488 20.3554 104.488C19.637 102.975 18.7749 99.2421 17.9128 94.8942C16.2365 86.1514 14.6559 74.9983 14.6559 74.9983L11.8301 74.8093C11.8301 74.8093 11.3512 69.8471 10.8722 64.8377C10.3933 59.8283 13.267 59.8283 13.267 59.8283L13.0754 42.437L13.0275 38.0892C26.0071 34.7339 65.1853 38.1837 65.1853 38.1837L66.4306 42.3898L67.1011 45.3671L128.742 43.6658C134.346 58.0324 132.095 99.1475 132.095 99.1475Z" fill="white"/>
<path d="M122.132 71.2178L81.7563 73.1081C80.0799 73.2026 78.691 71.9267 78.5952 70.2726L78.212 62.1914C78.1162 60.5373 79.4094 59.1668 81.0857 59.0723L121.461 57.1819C123.138 57.0874 124.527 58.3634 124.622 60.0175L125.006 68.0987C125.101 69.7528 123.808 71.1233 122.132 71.2178Z" fill="#272727"/>
<path d="M125.197 76.3215L125.34 77.692L78.7862 79.4879L78.7383 78.2591L125.197 76.3215Z" fill="#272727"/>
<path d="M125.437 81.0002L125.485 82.229L78.9307 83.9303L78.8828 82.7016L125.437 81.0002Z" fill="#272727"/>
<path opacity="0.3" d="M128.694 43.6185C128.694 43.6185 135.543 75.7545 132.094 99.1476C132.094 99.1476 88.6534 104.157 73.806 103.354L73.1833 95.5559L74.4286 95.3669C74.4286 95.3669 68.4417 50.7074 67.0527 45.3199C67.0527 45.3199 118.779 41.5864 128.694 43.6185Z" fill="#272727"/>
<path opacity="0.8" d="M71.7463 95.4141L72.2732 101.321C72.2732 101.321 28.497 103.212 24.6654 101.841C20.8338 100.471 24.857 98.2496 35.0587 97.4935C45.2124 96.6901 71.7463 95.4141 71.7463 95.4141Z" fill="#6E58F1"/>
<path d="M45.5955 70.3669C47.8174 70.3669 49.6186 68.7589 49.6186 66.7753C49.6186 64.7916 47.8174 63.1836 45.5955 63.1836C43.3735 63.1836 41.5723 64.7916 41.5723 66.7753C41.5723 68.7589 43.3735 70.3669 45.5955 70.3669Z" fill="#272727"/>
<path d="M14.6562 74.951C15.662 85.3479 17.3384 94.4216 20.3079 104.44C38.8912 104.299 57.4266 104.062 76.0099 103.495C94.5932 102.928 113.655 101.652 132.047 99.1002C132.047 99.1002 135.352 70.3669 128.647 43.5712C121.319 42.1061 67.293 45.3197 67.293 45.3197" stroke="#272727" stroke-miterlimit="10" stroke-linecap="round" stroke-linejoin="round"/>
<path d="M71.7478 95.414L72.2746 101.321L30.6059 102.267C28.8817 102.408 26.1995 102.645 24.619 101.841C23.9006 101.463 23.3737 100.565 23.709 99.8563C23.9963 99.1947 24.8106 98.9584 25.529 98.8166C30.6059 97.7769 35.8264 97.3516 40.9991 96.9735C52.1108 96.1701 63.2225 95.603 74.382 95.3195C74.1426 95.3195 71.4125 73.2024 71.1252 71.1702C69.9278 63.1835 68.8262 55.1495 67.3893 47.2101C66.8146 44.1383 66.1441 41.1137 65.1383 38.1364C47.9918 36.9077 30.0311 35.8207 12.9805 38.0419C13.1242 45.556 12.8368 52.2195 13.2199 59.7336" stroke="#272727" stroke-miterlimit="10" stroke-linecap="round" stroke-linejoin="round"/>
<path d="M19.6857 102.267C19.6857 102.267 19.542 101.889 19.4941 101.322" stroke="#272727" stroke-linecap="round" stroke-linejoin="round"/>
<path d="M19.7812 99.5256C20.4039 97.9661 22.3197 96.1703 27.5403 95.6032C37.0235 94.5635 57.6663 92.6731 69.7838 92.2478" stroke="#272727" stroke-linecap="round" stroke-linejoin="round" stroke-dasharray="3.91 3.91"/>
<path d="M70.7422 92.2004C71.0775 92.2004 71.3648 92.2004 71.7001 92.1532C71.6522 91.8224 71.6043 91.5388 71.5564 91.208" stroke="#272727" stroke-linecap="round" stroke-linejoin="round"/>
<path d="M71.3173 89.4122C69.1141 73.9586 66.7193 58.5995 63.9414 43.1931" stroke="#272727" stroke-linecap="round" stroke-linejoin="round" stroke-dasharray="3.88 3.88"/>
<path d="M63.7979 42.2952C63.75 41.9644 63.7021 41.6808 63.6063 41.35C63.6063 41.35 63.2711 41.3027 62.6484 41.3027" stroke="#272727" stroke-linecap="round" stroke-linejoin="round"/>
<path d="M60.7319 41.1611C52.7813 40.6412 30.1269 39.318 14.992 40.3577" stroke="#272727" stroke-linecap="round" stroke-linejoin="round" stroke-dasharray="4.07 4.07"/>
<path d="M14.0341 40.405C13.6988 40.4523 13.4114 40.4523 13.0762 40.4995" stroke="#272727" stroke-linecap="round" stroke-linejoin="round"/>
<path d="M11.8784 74.7623L10.7289 62.7113C10.5852 61.199 11.7347 59.8285 13.3153 59.734C20.3558 59.3559 38.556 58.4108 45.5487 58.9306C48.9013 59.2142 52.5414 60.2538 54.1698 63.4202C55.5109 66.0194 55.7025 69.9419 53.4514 72.0685C50.0029 75.3294 43.4413 75.0931 39.0349 75.2349C30.7012 75.5657 11.8784 74.8568 11.8784 74.7623Z" stroke="#272727" stroke-miterlimit="10" stroke-linecap="round" stroke-linejoin="round"/>
<path d="M55.1755 67.3899C55.1755 67.0591 56.8998 74.2897 50.5297 76.6999C44.1597 79.1101 14.6562 78.3539 14.6562 78.3539V74.9513C14.6562 74.9513 35.4906 75.3766 38.987 75.2821C42.4833 75.1876 54.7924 76.3218 55.1755 67.3899Z" fill="#272727"/>
<path d="M49.0449 107.938C49.0449 107.938 54.2655 110.962 56.2292 116.586" stroke="#272727" stroke-miterlimit="10" stroke-linecap="round" stroke-linejoin="round"/>
<path d="M10.873 61.5769C10.873 61.5769 36.449 60.3954 42.9149 60.5845C49.4286 60.8207 52.5897 62.1912 53.2602 66.2082C53.9308 70.2252 49.9555 72.7299 46.8423 73.2025C43.6812 73.6279 11.8788 73.8169 11.8788 73.8169" stroke="#272727" stroke-miterlimit="10" stroke-linecap="round" stroke-linejoin="round" stroke-dasharray="4 4"/>
<path d="M28.4011 110.301C28.4011 110.301 24.4259 96.7374 17.1458 94.0909C17.1458 94.0909 15.7089 84.8282 18.8221 84.3083C21.9353 83.7885 30.7001 78.1174 28.4011 70.9813C26.1022 63.8453 19.2532 74.573 14.6552 74.9511C10.0573 75.3764 5.07622 81.331 5.2678 86.4822C5.45938 91.6334 0.478286 101.274 1.72356 106.803C2.96883 112.333 10.68 122.21 11.3026 127.361" fill="#6E58F1"/>
<path d="M28.4011 110.301C28.4011 110.301 24.4259 96.7374 17.1458 94.0909C17.1458 94.0909 15.7089 84.8282 18.8221 84.3083C21.9353 83.7885 30.7001 78.1174 28.4011 70.9813C26.1022 63.8453 19.2532 74.573 14.6552 74.9511C10.0573 75.3764 5.07622 81.331 5.2678 86.4822C5.45938 91.6334 0.478286 101.274 1.72356 106.803C2.96883 112.333 10.68 122.21 11.3026 127.361" stroke="#272727" stroke-miterlimit="10" stroke-linecap="round" stroke-linejoin="round"/>
<path d="M18.8221 72.8718C18.8221 72.8718 24.2822 73.8642 27.2996 70.4143C30.2691 66.9644 26.8685 66.7754 26.8685 66.7754L18.8221 72.8718Z" fill="#6E58F1" stroke="#272727" stroke-miterlimit="10" stroke-linecap="round" stroke-linejoin="round"/>
<path d="M9.05078 80.5276C10.0566 80.5748 11.0145 80.9057 11.8766 81.4255" stroke="#272727" stroke-miterlimit="10" stroke-linecap="round" stroke-linejoin="round"/>
<path d="M8.85938 82.5125C9.86517 82.607 10.8231 82.985 11.5894 83.5994" stroke="#272727" stroke-miterlimit="10" stroke-linecap="round" stroke-linejoin="round"/>
<path d="M23.6602 100.66C23.6602 100.66 47.1288 99.4784 53.3072 99.8092" stroke="#272727" stroke-miterlimit="10" stroke-linecap="round" stroke-linejoin="round"/>
<path d="M47.6074 98.0606C47.6074 98.0606 53.4985 97.588 57.1864 98.0606" stroke="#272727" stroke-miterlimit="10" stroke-linecap="round" stroke-linejoin="round"/>
<path d="M62.5508 99.762H72.1298" stroke="#272727" stroke-miterlimit="10" stroke-linecap="round" stroke-linejoin="round"/>
<path d="M68.3457 47.9666C68.3457 47.9666 110.302 44.2804 127.161 46.3598C127.161 46.3598 131.711 54.63 130.705 96.9266C130.705 96.9266 103.405 100.66 73.5663 101.133" stroke="#272727" stroke-miterlimit="10" stroke-linecap="round" stroke-linejoin="round" stroke-dasharray="4 4"/>
<path d="M150.342 56.5678C150.821 56.237 157.861 52.5035 161.358 63.7984C164.854 75.0932 169.021 94.3748 169.021 94.3748L160.687 95.9816C160.687 95.9816 152.928 91.9173 146.031 81.7567C146.031 81.7567 136.309 79.252 132.094 73.3446C128.262 67.9571 140.092 48.2502 140.092 48.2502L150.342 56.5678Z" fill="#6E58F1"/>
<path d="M147.324 70.6509C149.384 73.7227 153.311 80.1499 158.58 82.182" stroke="#272727" stroke-miterlimit="10" stroke-linecap="round" stroke-linejoin="round"/>
<path d="M141.48 73.9116C142.438 74.2897 144.833 75.6602 145.983 75.7075C145.983 75.7075 150.868 85.2537 158.914 88.3255" stroke="#272727" stroke-miterlimit="10" stroke-linecap="round" stroke-linejoin="round"/>
<path d="M136.979 77.4089C139.996 79.8664 143.54 81.5677 145.935 81.6622C145.935 81.6622 150.82 91.2085 158.867 94.2803" stroke="#272727" stroke-miterlimit="10" stroke-linecap="round" stroke-linejoin="round"/>
<path d="M154.891 64.3655L128.405 84.2142C126.106 85.9155 122.85 85.4902 121.077 83.2218L84.2939 35.4432C82.5697 33.1748 83.0008 29.9612 85.2997 28.2126L111.786 8.36392C114.085 6.66261 117.342 7.08794 119.114 9.35636L155.897 57.1349C157.669 59.4034 157.19 62.617 154.891 64.3655Z" fill="#272727"/>
<path d="M154.125 63.3258L129.842 81.5677C126.921 83.7416 122.802 83.1745 120.598 80.339L85.4913 34.687C84.9166 33.9309 84.5334 33.0802 84.2939 32.1823C83.7192 29.7721 84.6292 27.1729 86.7366 25.5661L93.5377 20.4149L111.019 7.32419C113.941 5.15029 118.06 5.71739 120.263 8.55292L134.344 26.8421L144.833 40.4526L155.37 54.1576C157.621 57.0877 157.047 61.1519 154.125 63.3258Z" fill="#E0F067"/>
<path opacity="0.1" d="M134.392 26.8893L93.5371 20.4149L111.019 7.32419C113.94 5.15029 118.059 5.71739 120.263 8.55292L134.392 26.8893Z" fill="#272727"/>
<path opacity="0.1" d="M154.126 63.3256L129.843 81.5675C126.922 83.7414 122.803 83.1743 120.599 80.3388L85.4923 34.6868C84.9176 33.9307 84.5344 33.08 84.2949 32.1821L145.696 41.5866L155.419 54.2047C157.622 57.0875 157.048 61.1517 154.126 63.3256Z" fill="#272727"/>
<path d="M122.082 21.7853L117.772 24.9989C116.91 25.6605 115.712 25.4715 115.042 24.6208L109.821 17.8628C109.151 17.0122 109.342 15.8307 110.204 15.1691L114.515 11.9555C115.377 11.2938 116.574 11.4829 117.245 12.3335L122.465 19.0915C123.088 19.9422 122.897 21.1237 122.082 21.7853Z" fill="#6E58F1" stroke="#272727" stroke-miterlimit="10" stroke-linecap="round" stroke-linejoin="round"/>
<path d="M112.457 13.5151L119.881 23.4395" stroke="#272727" stroke-miterlimit="10" stroke-linecap="round" stroke-linejoin="round"/>
<path d="M112.457 21.2656L119.881 15.7363" stroke="#272727" stroke-miterlimit="10" stroke-linecap="round" stroke-linejoin="round"/>
<path d="M126.777 78.5903L125.532 79.4883L110.109 59.4505L111.355 58.5054L126.777 78.5903Z" fill="#272727"/>
<path d="M128.932 76.9837L127.687 77.9289L112.217 57.844L113.462 56.946L128.932 76.9837Z" fill="#272727"/>
<path d="M131.088 75.4713L129.794 76.3692L114.324 56.2843L115.617 55.3391L131.088 75.4713Z" fill="#272727"/>
<path d="M133.196 73.9117L131.95 74.8096L116.672 54.9609L117.917 54.063L133.196 73.9117Z" fill="#272727"/>
<path d="M135.542 72.2104L134.249 73.1083L118.971 53.2596L120.216 52.3145L135.542 72.2104Z" fill="#272727"/>
<path d="M135.542 48.8174L134.249 49.7626L118.971 29.9139L120.216 28.9688L135.542 48.8174Z" fill="#272727"/>
<path d="M102.211 13.9976L100.266 15.4556L143.347 71.4146L145.292 69.9566L102.211 13.9976Z" fill="#272727"/>
<path d="M154.125 63.3258L129.842 81.5677C126.921 83.7416 122.802 83.1745 120.598 80.339L85.4913 34.687C84.9166 33.9309 84.5334 33.0802 84.2939 32.1823C83.7192 29.7721 84.6292 27.1729 86.7366 25.5661L93.5377 20.4149L111.019 7.32419C113.941 5.15029 118.06 5.71739 120.263 8.55292L134.344 26.8421L144.833 40.4526L155.37 54.1576C157.621 57.0877 157.047 61.1519 154.125 63.3258Z" stroke="#272727" stroke-miterlimit="10" stroke-linecap="round" stroke-linejoin="round"/>
<path d="M134.441 181.473C134.441 181.473 162.747 191.397 171.272 169.8C171.272 169.8 157.862 153.732 165.19 140.594C169.788 132.324 182.528 114.082 182.528 114.082C182.528 114.082 187.844 109.12 189.473 104.11C189.473 104.11 188.563 98.5337 184.539 94.753C184.539 94.753 184.492 91.9175 182.24 90.3107C179.989 88.7039 175.87 85.5848 175.87 85.5848C175.87 85.5848 169.117 69.5641 168.111 66.6341C167.106 63.704 165.094 58.2693 164.088 52.2201C163.082 46.171 162.124 39.6493 160.017 39.6966C160.017 39.6966 157.814 38.7514 157.814 42.6266C157.814 42.6266 153.168 44.9896 153.839 49.999C154.509 55.0084 155.18 57.5604 154.988 60.3959C154.797 63.2314 155.707 72.9667 158.005 76.0385C158.005 76.0385 158.772 89.7436 159.921 93.3353C159.969 93.4298 159.969 93.5243 160.017 93.6188C161.214 96.6434 149.145 108.316 142.631 111.435C142.631 111.435 141.961 112.711 139.422 112.333C136.884 112.002 132.621 111.813 131.855 109.97C131.136 108.127 126.203 93.6661 126.203 93.6661C126.203 93.6661 122.228 75.0934 114.325 75.0934C114.325 75.0934 113.128 72.2579 110.015 73.8174C106.901 75.3769 108.961 83.8362 110.302 88.4203C111.691 93.0517 115.139 105.197 115.714 110.774C116.289 116.35 113.08 127.551 114.325 131.946C115.57 136.341 116.864 139.318 120.743 146.549C124.575 153.732 133.1 175.187 134.441 181.473Z" fill="#6E58F1"/>
<path d="M134.44 181.473C134.44 181.473 128.405 158.978 119.496 144.469C110.588 129.913 115.808 124.762 115.808 112.664C115.808 100.566 105.798 79.9609 108.528 75.4241C111.211 70.8872 114.898 74.5262 116.431 78.7322C117.964 82.9382 115.808 85.3957 111.498 85.6792" stroke="#272727" stroke-miterlimit="10" stroke-linecap="round" stroke-linejoin="round"/>
<path d="M114.324 74.9987C114.324 74.9987 119.497 74.6679 122.658 82.8436C125.819 90.9721 130.896 111.671 136.212 117.957" stroke="#272727" stroke-miterlimit="10" stroke-linecap="round" stroke-linejoin="round"/>
<path d="M132.045 110.348C132.093 110.395 139.421 114.46 150.868 110.915" stroke="#272727" stroke-miterlimit="10" stroke-linecap="round" stroke-linejoin="round"/>
<path d="M115.33 98.9589C116.48 97.5412 118.395 96.8323 120.167 97.1631" stroke="#272727" stroke-miterlimit="10" stroke-linecap="round" stroke-linejoin="round"/>
<path d="M116.287 101.511C117.245 100.329 118.969 99.7622 120.454 100.188" stroke="#272727" stroke-miterlimit="10" stroke-linecap="round" stroke-linejoin="round"/>
<path d="M157.812 42.5791C150.293 45.0366 155.897 56.2369 154.987 60.3484C154.077 64.4126 156.424 72.2576 158.244 76.5109C158.244 81.473 160.064 93.5713 160.064 93.5713C158.962 97.3992 149.67 108.741 140.666 112.286" stroke="#272727" stroke-miterlimit="10" stroke-linecap="round" stroke-linejoin="round"/>
<path d="M163.32 48.2504C163.32 48.2504 162.746 39.6965 160.016 39.6965C157.286 39.6965 157.429 45.4621 158.579 49.7626C159.728 54.0159 164.182 53.3543 163.32 48.2504Z" stroke="#272727" stroke-miterlimit="10" stroke-linecap="round" stroke-linejoin="round"/>
<path d="M163.32 48.2502C163.32 48.2502 165.667 61.719 169.642 70.2256" stroke="#272727" stroke-miterlimit="10" stroke-linecap="round" stroke-linejoin="round"/>
<path d="M174.289 101.747C176.205 98.6753 177.067 95.7925 177.786 92.1063C177.594 89.7907 174.912 82.2293 171.799 74.9514" stroke="#272727" stroke-miterlimit="10" stroke-linecap="round" stroke-linejoin="round"/>
<path d="M176.205 86.2935C179.318 88.6091 184.73 90.3577 184.108 94.3747C183.533 98.1081 182.048 102.031 179.941 105.67" stroke="#272727" stroke-miterlimit="10" stroke-linecap="round" stroke-linejoin="round"/>
<path d="M171.99 170.792C171.99 170.792 161.166 155.953 163.321 145.698C164.902 138.184 175.151 124.999 182.527 114.082C186.598 110.348 188.61 107.466 189.472 104.11C188.179 97.7775 186.071 95.9817 184.06 94.3276" stroke="#272727" stroke-miterlimit="10" stroke-linecap="round" stroke-linejoin="round"/>
<path d="M174.863 88.7036C172.468 88.042 169.786 88.3728 167.631 89.696" stroke="#272727" stroke-miterlimit="10" stroke-linecap="round" stroke-linejoin="round"/>
<path d="M174.288 91.2558C172.851 91.0195 171.319 91.303 170.025 92.0119" stroke="#272727" stroke-miterlimit="10" stroke-linecap="round" stroke-linejoin="round"/>
</g>
<defs>
<clipPath id="clip0_142_8162">
<rect width="190" height="190" fill="white"/>
</clipPath>
</defs>
</svg>