<svg id="scan" width="300" height="240" viewBox="0 0 300 240" fill="none" xmlns="http://www.w3.org/2000/svg">
<g clip-path="url(#clip0_142_7780)">
<path d="M215.373 -1H84.373L117.373 58.5L136.873 57H164.373L182.373 58.5L215.373 -1Z" fill="url(#paint0_linear_142_7780)"/>
<path d="M174.307 88.2358C174.307 88.2358 187.338 81.8809 190.22 83.0023C193.102 84.1238 195.858 90.6033 184.832 96.9583C173.931 103.189 177.189 114.902 177.189 114.902H184.957C184.957 114.902 189.593 116.771 191.473 119.263C193.352 121.755 194.605 129.979 195.608 132.845C196.61 135.711 196.109 138.452 193.227 139.449C193.227 139.449 191.348 147.299 191.974 150.788C192.475 154.277 192.225 156.52 188.842 157.019C185.459 157.392 182.076 154.526 182.326 150.788L179.695 160.134L181.574 163.747C181.574 163.747 184.957 164.869 188.591 167.984C192.225 171.099 195.858 171.971 194.856 175.336C193.853 178.825 191.723 182.563 180.823 178.202C169.922 173.84 160.775 156.894 160.775 156.894L154.26 97.5813L174.307 88.2358Z" fill="#131313"/>
<path d="M154.009 171.971C154.009 171.971 139.851 199.634 114.291 205.864C114.291 205.864 113.288 211.347 109.028 213.714C106.773 214.961 97.3759 228.792 89.2317 241.502L44 213.839C46.7565 211.098 50.0142 207.983 53.1466 204.618C62.5437 195.024 72.6927 184.307 75.6998 178.949C78.4563 174.214 81.9645 165.99 84.9716 158.389C88.8558 148.545 91.9882 139.449 91.9882 139.449L107.024 122.752L130.704 96.5845L131.707 99.9489L154.009 171.971Z" fill="#131313"/>
<path d="M154.26 97.7059L174.307 88.2358C174.307 88.2358 187.338 81.8809 190.22 83.0023C193.102 84.1238 195.858 90.6033 184.832 96.9583C173.931 103.189 177.189 114.902 177.189 114.902H184.957C184.957 114.902 189.593 116.771 191.473 119.263C193.352 121.755 194.605 129.979 195.608 132.845C196.61 135.711 196.109 138.452 193.227 139.449C193.227 139.449 191.348 147.299 191.974 150.788C192.475 154.277 192.225 156.52 188.842 157.019C185.459 157.392 182.076 154.526 182.326 150.788L179.695 160.134L181.574 163.747C181.574 163.747 184.957 164.869 188.591 167.984C192.225 171.099 195.858 171.971 194.856 175.336C193.853 178.825 191.723 182.563 180.823 178.202C169.922 173.84 160.775 156.894 160.775 156.894" stroke="white" stroke-miterlimit="10" stroke-linecap="round" stroke-linejoin="round"/>
<path d="M193.352 139.324C189.468 140.321 184.832 139.574 183.203 132.72C181.449 125.867 184.957 118.515 187.087 117.892" stroke="white" stroke-miterlimit="10" stroke-linecap="round" stroke-linejoin="round"/>
<path d="M182.452 150.788C182.452 150.788 182.201 141.941 185.459 139.823" stroke="white" stroke-miterlimit="10" stroke-linecap="round" stroke-linejoin="round"/>
<path d="M154.009 171.971C154.009 171.971 139.851 199.634 114.291 205.864C114.291 205.864 113.288 211.347 109.028 213.714C106.773 214.96 97.3759 228.792 89.2317 241.502" stroke="white" stroke-miterlimit="10" stroke-linecap="round" stroke-linejoin="round"/>
<path d="M44 213.839C54.9007 203.123 71.6903 186.176 75.8251 179.074C82.0898 168.358 92.1135 139.574 92.1135 139.574L130.955 96.709" stroke="white" stroke-miterlimit="10" stroke-linecap="round" stroke-linejoin="round"/>
<path d="M108.778 129.356C108.778 129.356 114.792 134.714 116.421 139.449" stroke="white" stroke-miterlimit="10" stroke-linecap="round" stroke-linejoin="round"/>
<path d="M185.208 183.559C185.208 189.416 180.447 194.276 174.433 194.276H126.695C120.806 194.276 115.92 189.541 115.92 183.559V68.4232C115.92 62.5667 120.681 57.707 126.695 57.707H174.433C180.322 57.707 185.208 62.4421 185.208 68.4232V183.559Z" fill="#131313"/>
<path d="M173.681 54.4673H127.322C119.428 54.4673 113.038 60.8222 113.038 68.6724V183.435C113.038 191.285 119.428 197.64 127.322 197.64H173.681C181.574 197.64 187.965 191.285 187.965 183.435V68.5478C187.965 60.8222 181.574 54.4673 173.681 54.4673ZM185.208 183.559C185.208 189.416 180.447 194.276 174.433 194.276H126.695C120.806 194.276 115.92 189.541 115.92 183.559V68.4232C115.92 62.5667 120.681 57.707 126.695 57.707H174.433C180.322 57.707 185.208 62.4421 185.208 68.4232V183.559Z" fill="white"/>
<path d="M158.771 62.4422H142.357C139.225 62.4422 136.844 59.9501 136.844 56.9595V56.5857H164.409V56.9595C164.284 60.0747 161.778 62.4422 158.771 62.4422Z" fill="white"/>
<path d="M153.884 58.3301H142.482V59.2023H153.884V58.3301Z" fill="white"/>
<path d="M158.52 58.8286C158.52 59.2024 158.27 59.4516 157.894 59.4516C157.518 59.4516 157.267 59.2024 157.267 58.8286C157.267 58.4548 157.518 58.2056 157.894 58.2056C158.144 58.2056 158.52 58.4548 158.52 58.8286Z" fill="white"/>
<path d="M115.043 163.996C115.794 175.709 110.407 188.668 110.407 188.668L80.9622 180.444L75.8251 178.949C80.9622 171.847 83.3428 158.015 82.0898 146.801C81.9646 145.928 81.9646 145.181 81.8393 144.433C81.3381 135.212 85.2222 132.471 88.4799 128.359C91.9882 123.873 100.007 107.176 100.007 103.188C100.007 99.201 110.031 89.4817 107.775 78.5164C107.775 78.5164 110.783 76.6473 113.79 78.1425C115.168 78.8902 116.546 80.2609 117.674 82.753C120.305 88.7341 116.671 105.805 113.539 110.042L107.525 134.589C107.525 134.589 109.53 138.078 111.534 144.309C113.038 149.293 114.541 155.897 115.043 163.996Z" fill="#131313"/>
<path d="M75.8251 178.949C80.9622 171.847 83.3428 158.015 82.0898 146.801C80.7116 135.586 84.9716 132.72 88.4799 128.359C91.9882 123.873 100.007 107.176 100.007 103.188C100.007 99.2011 110.031 89.4818 107.775 78.5164C107.775 78.5164 114.166 74.6536 117.674 82.8776C120.305 88.8587 116.671 105.93 113.539 110.166L107.525 134.714C107.525 134.714 113.915 145.679 115.043 163.996C115.794 175.709 110.407 188.668 110.407 188.668" stroke="white" stroke-miterlimit="10" stroke-linecap="round" stroke-linejoin="round"/>
<path d="M95.4965 198.014C95.4965 198.014 102.137 202.126 106.147 208.605" stroke="white" stroke-miterlimit="10" stroke-linecap="round" stroke-linejoin="round"/>
<path d="M114.291 205.864C114.291 205.864 108.527 206.736 103.265 200.506C99.8818 196.519 89.7329 194.774 87.4775 184.307" stroke="white" stroke-miterlimit="10" stroke-linecap="round" stroke-linejoin="round"/>
<path d="M126.946 98.2043H128.825V100.073H126.946V98.2043ZM128.825 98.2043H130.704V100.073H128.825V98.2043ZM130.704 98.2043H132.584V100.073H130.704V98.2043ZM132.584 98.2043H134.463V100.073H132.584V98.2043ZM134.463 98.2043H136.343V100.073H134.463V98.2043ZM136.343 98.2043H138.222V100.073H136.343V98.2043ZM138.222 98.2043H140.102V100.073H138.222V98.2043ZM147.619 98.2043H149.499V100.073H147.619V98.2043ZM160.775 98.2043H162.655V100.073H160.775V98.2043ZM162.655 98.2043H164.534V100.073H162.655V98.2043ZM164.534 98.2043H166.414V100.073H164.534V98.2043ZM166.414 98.2043H168.293V100.073H166.414V98.2043ZM168.293 98.2043H170.173V100.073H168.293V98.2043ZM170.173 98.2043H172.052V100.073H170.173V98.2043ZM172.052 98.2043H173.931V100.073H172.052V98.2043ZM126.946 100.073H128.825V101.943H126.946V100.073ZM138.222 100.073H140.102V101.943H138.222V100.073ZM143.861 100.073H145.74V101.943H143.861V100.073ZM147.619 100.073H149.499V101.943H147.619V100.073ZM149.499 100.073H151.378V101.943H149.499V100.073ZM157.017 100.073H158.896V101.943H157.017V100.073ZM160.775 100.073H162.655V101.943H160.775V100.073ZM172.052 100.073H173.931V101.943H172.052V100.073ZM126.946 101.943H128.825V103.812H126.946V101.943ZM130.704 101.943H132.584V103.812H130.704V101.943ZM132.584 101.943H134.463V103.812H132.584V101.943ZM134.463 101.943H136.343V103.812H134.463V101.943ZM138.222 101.943H140.102V103.812H138.222V101.943ZM141.981 101.943H143.861V103.812H141.981V101.943ZM145.74 101.943H147.619V103.812H145.74V101.943ZM151.378 101.943H153.258V103.812H151.378V101.943ZM155.137 101.943H157.017V103.812H155.137V101.943ZM157.017 101.943H158.896V103.812H157.017V101.943ZM160.775 101.943H162.655V103.812H160.775V101.943ZM164.534 101.943H166.414V103.812H164.534V101.943ZM166.414 101.943H168.293V103.812H166.414V101.943ZM168.293 101.943H170.173V103.812H168.293V101.943ZM172.052 101.943H173.931V103.812H172.052V101.943ZM126.946 103.812H128.825V105.681H126.946V103.812ZM130.704 103.812H132.584V105.681H130.704V103.812ZM132.584 103.812H134.463V105.681H132.584V103.812ZM134.463 103.812H136.343V105.681H134.463V103.812ZM138.222 103.812H140.102V105.681H138.222V103.812ZM143.861 103.812H145.74V105.681H143.861V103.812ZM145.74 103.812H147.619V105.681H145.74V103.812ZM147.619 103.812H149.499V105.681H147.619V103.812ZM153.258 103.812H155.137V105.681H153.258V103.812ZM155.137 103.812H157.017V105.681H155.137V103.812ZM157.017 103.812H158.896V105.681H157.017V103.812ZM160.775 103.812H162.655V105.681H160.775V103.812ZM164.534 103.812H166.414V105.681H164.534V103.812ZM166.414 103.812H168.293V105.681H166.414V103.812ZM168.293 103.812H170.173V105.681H168.293V103.812ZM172.052 103.812H173.931V105.681H172.052V103.812ZM126.946 105.681H128.825V107.55H126.946V105.681ZM130.704 105.681H132.584V107.55H130.704V105.681ZM132.584 105.681H134.463V107.55H132.584V105.681ZM134.463 105.681H136.343V107.55H134.463V105.681ZM138.222 105.681H140.102V107.55H138.222V105.681ZM141.981 105.681H143.861V107.55H141.981V105.681ZM143.861 105.681H145.74V107.55H143.861V105.681ZM145.74 105.681H147.619V107.55H145.74V105.681ZM147.619 105.681H149.499V107.55H147.619V105.681ZM151.378 105.681H153.258V107.55H151.378V105.681ZM153.258 105.681H155.137V107.55H153.258V105.681ZM157.017 105.681H158.896V107.55H157.017V105.681ZM160.775 105.681H162.655V107.55H160.775V105.681ZM164.534 105.681H166.414V107.55H164.534V105.681ZM166.414 105.681H168.293V107.55H166.414V105.681ZM168.293 105.681H170.173V107.55H168.293V105.681ZM172.052 105.681H173.931V107.55H172.052V105.681ZM126.946 107.55H128.825V109.419H126.946V107.55ZM138.222 107.55H140.102V109.419H138.222V107.55ZM141.981 107.55H143.861V109.419H141.981V107.55ZM145.74 107.55H147.619V109.419H145.74V107.55ZM151.378 107.55H153.258V109.419H151.378V107.55ZM153.258 107.55H155.137V109.419H153.258V107.55ZM155.137 107.55H157.017V109.419H155.137V107.55ZM160.775 107.55H162.655V109.419H160.775V107.55ZM172.052 107.55H173.931V109.419H172.052V107.55ZM126.946 109.419H128.825V111.288H126.946V109.419ZM128.825 109.419H130.704V111.288H128.825V109.419ZM130.704 109.419H132.584V111.288H130.704V109.419ZM132.584 109.419H134.463V111.288H132.584V109.419ZM134.463 109.419H136.343V111.288H134.463V109.419ZM136.343 109.419H138.222V111.288H136.343V109.419ZM138.222 109.419H140.102V111.288H138.222V109.419ZM141.981 109.419H143.861V111.288H141.981V109.419ZM145.74 109.419H147.619V111.288H145.74V109.419ZM149.499 109.419H151.378V111.288H149.499V109.419ZM153.258 109.419H155.137V111.288H153.258V109.419ZM157.017 109.419H158.896V111.288H157.017V109.419ZM160.775 109.419H162.655V111.288H160.775V109.419ZM162.655 109.419H164.534V111.288H162.655V109.419ZM164.534 109.419H166.414V111.288H164.534V109.419ZM166.414 109.419H168.293V111.288H166.414V109.419ZM168.293 109.419H170.173V111.288H168.293V109.419ZM170.173 109.419H172.052V111.288H170.173V109.419ZM172.052 109.419H173.931V111.288H172.052V109.419ZM143.861 111.288H145.74V113.157H143.861V111.288ZM149.499 111.288H151.378V113.157H149.499V111.288ZM153.258 111.288H155.137V113.157H153.258V111.288ZM128.825 113.157H130.704V115.026H128.825V113.157ZM134.463 113.157H136.343V115.026H134.463V113.157ZM138.222 113.157H140.102V115.026H138.222V113.157ZM141.981 113.157H143.861V115.026H141.981V113.157ZM151.378 113.157H153.258V115.026H151.378V113.157ZM153.258 113.157H155.137V115.026H153.258V113.157ZM155.137 113.157H157.017V115.026H155.137V113.157ZM157.017 113.157H158.896V115.026H157.017V113.157ZM158.896 113.157H160.775V115.026H158.896V113.157ZM162.655 113.157H164.534V115.026H162.655V113.157ZM164.534 113.157H166.414V115.026H164.534V113.157ZM168.293 113.157H170.173V115.026H168.293V113.157ZM126.946 115.026H128.825V116.895H126.946V115.026ZM132.584 115.026H134.463V116.895H132.584V115.026ZM136.343 115.026H138.222V116.895H136.343V115.026ZM143.861 115.026H145.74V116.895H143.861V115.026ZM145.74 115.026H147.619V116.895H145.74V115.026ZM147.619 115.026H149.499V116.895H147.619V115.026ZM158.896 115.026H160.775V116.895H158.896V115.026ZM164.534 115.026H166.414V116.895H164.534V115.026ZM166.414 115.026H168.293V116.895H166.414V115.026ZM170.173 115.026H172.052V116.895H170.173V115.026ZM132.584 116.895H134.463V118.764H132.584V116.895ZM134.463 116.895H136.343V118.764H134.463V116.895ZM138.222 116.895H140.102V118.764H138.222V116.895ZM140.102 116.895H141.981V118.764H140.102V116.895ZM143.861 116.895H145.74V118.764H143.861V116.895ZM145.74 116.895H147.619V118.764H145.74V116.895ZM151.378 116.895H153.258V118.764H151.378V116.895ZM153.258 116.895H155.137V118.764H153.258V116.895ZM155.137 116.895H157.017V118.764H155.137V116.895ZM158.896 116.895H160.775V118.764H158.896V116.895ZM162.655 116.895H164.534V118.764H162.655V116.895ZM126.946 118.889H128.825V120.758H126.946V118.889ZM128.825 118.889H130.704V120.758H128.825V118.889ZM130.704 118.889H132.584V120.758H130.704V118.889ZM132.584 118.889H134.463V120.758H132.584V118.889ZM136.343 118.889H138.222V120.758H136.343V118.889ZM141.981 118.889H143.861V120.758H141.981V118.889ZM145.74 118.889H147.619V120.758H145.74V118.889ZM147.619 118.889H149.499V120.758H147.619V118.889ZM151.378 118.889H153.258V120.758H151.378V118.889ZM155.137 118.889H157.017V120.758H155.137V118.889ZM157.017 118.889H158.896V120.758H157.017V118.889ZM158.896 118.889H160.775V120.758H158.896V118.889ZM160.775 118.889H162.655V120.758H160.775V118.889ZM162.655 118.889H164.534V120.758H162.655V118.889ZM166.414 118.889H168.293V120.758H166.414V118.889ZM168.293 118.889H170.173V120.758H168.293V118.889ZM172.052 118.889H173.931V120.758H172.052V118.889ZM138.222 120.758H140.102V122.627H138.222V120.758ZM140.102 120.758H141.981V122.627H140.102V120.758ZM143.861 120.758H145.74V122.627H143.861V120.758ZM147.619 120.758H149.499V122.627H147.619V120.758ZM151.378 120.758H153.258V122.627H151.378V120.758ZM160.775 120.758H162.655V122.627H160.775V120.758ZM162.655 120.758H164.534V122.627H162.655V120.758ZM168.293 120.758H170.173V122.627H168.293V120.758ZM170.173 120.758H172.052V122.627H170.173V120.758ZM172.052 120.758H173.931V122.627H172.052V120.758ZM126.946 122.627H128.825V124.496H126.946V122.627ZM130.704 122.627H132.584V124.496H130.704V122.627ZM136.343 122.627H138.222V124.496H136.343V122.627ZM141.981 122.627H143.861V124.496H141.981V122.627ZM143.861 122.627H145.74V124.496H143.861V122.627ZM149.499 122.627H151.378V124.496H149.499V122.627ZM153.258 122.627H155.137V124.496H153.258V122.627ZM157.017 122.627H158.896V124.496H157.017V122.627ZM164.534 122.627H166.414V124.496H164.534V122.627ZM166.414 122.627H168.293V124.496H166.414V122.627ZM168.293 122.627H170.173V124.496H168.293V122.627ZM170.173 122.627H172.052V124.496H170.173V122.627ZM130.704 124.496H132.584V126.365H130.704V124.496ZM136.343 124.496H138.222V126.365H136.343V124.496ZM138.222 124.496H140.102V126.365H138.222V124.496ZM140.102 124.496H141.981V126.365H140.102V124.496ZM141.981 124.496H143.861V126.365H141.981V124.496ZM143.861 124.496H145.74V126.365H143.861V124.496ZM147.619 124.496H149.499V126.365H147.619V124.496ZM149.499 124.496H151.378V126.365H149.499V124.496ZM157.017 124.496H158.896V126.365H157.017V124.496ZM160.775 124.496H162.655V126.365H160.775V124.496ZM166.414 124.496H168.293V126.365H166.414V124.496ZM134.463 126.365H136.343V128.234H134.463V126.365ZM140.102 126.365H141.981V128.234H140.102V126.365ZM141.981 126.365H143.861V128.234H141.981V126.365ZM143.861 126.365H145.74V128.234H143.861V126.365ZM145.74 126.365H147.619V128.234H145.74V126.365ZM151.378 126.365H153.258V128.234H151.378V126.365ZM158.896 126.365H160.775V128.234H158.896V126.365ZM160.775 126.365H162.655V128.234H160.775V126.365ZM168.293 126.365H170.173V128.234H168.293V126.365ZM172.052 126.365H173.931V128.234H172.052V126.365ZM126.946 128.234H128.825V130.104H126.946V128.234ZM128.825 128.234H130.704V130.104H128.825V128.234ZM130.704 128.234H132.584V130.104H130.704V128.234ZM132.584 128.234H134.463V130.104H132.584V128.234ZM134.463 128.234H136.343V130.104H134.463V128.234ZM138.222 128.234H140.102V130.104H138.222V128.234ZM141.981 128.234H143.861V130.104H141.981V128.234ZM147.619 128.234H149.499V130.104H147.619V128.234ZM149.499 128.234H151.378V130.104H149.499V128.234ZM155.137 128.234H157.017V130.104H155.137V128.234ZM157.017 128.234H158.896V130.104H157.017V128.234ZM158.896 128.234H160.775V130.104H158.896V128.234ZM160.775 128.234H162.655V130.104H160.775V128.234ZM162.655 128.234H164.534V130.104H162.655V128.234ZM164.534 128.234H166.414V130.104H164.534V128.234ZM166.414 128.234H168.293V130.104H166.414V128.234ZM168.293 128.234H170.173V130.104H168.293V128.234ZM170.173 128.234H172.052V130.104H170.173V128.234ZM172.052 128.234H173.931V130.104H172.052V128.234ZM141.981 130.104H143.861V131.973H141.981V130.104ZM147.619 130.104H149.499V131.973H147.619V130.104ZM149.499 130.104H151.378V131.973H149.499V130.104ZM151.378 130.104H153.258V131.973H151.378V130.104ZM157.017 130.104H158.896V131.973H157.017V130.104ZM164.534 130.104H166.414V131.973H164.534V130.104ZM166.414 130.104H168.293V131.973H166.414V130.104ZM170.173 130.104H172.052V131.973H170.173V130.104ZM126.946 131.973H128.825V133.842H126.946V131.973ZM128.825 131.973H130.704V133.842H128.825V131.973ZM130.704 131.973H132.584V133.842H130.704V131.973ZM132.584 131.973H134.463V133.842H132.584V131.973ZM134.463 131.973H136.343V133.842H134.463V131.973ZM136.343 131.973H138.222V133.842H136.343V131.973ZM138.222 131.973H140.102V133.842H138.222V131.973ZM143.861 131.973H145.74V133.842H143.861V131.973ZM147.619 131.973H149.499V133.842H147.619V131.973ZM153.258 131.973H155.137V133.842H153.258V131.973ZM155.137 131.973H157.017V133.842H155.137V131.973ZM157.017 131.973H158.896V133.842H157.017V131.973ZM160.775 131.973H162.655V133.842H160.775V131.973ZM164.534 131.973H166.414V133.842H164.534V131.973ZM166.414 131.973H168.293V133.842H166.414V131.973ZM168.293 131.973H170.173V133.842H168.293V131.973ZM126.946 133.842H128.825V135.711H126.946V133.842ZM138.222 133.842H140.102V135.711H138.222V133.842ZM143.861 133.842H145.74V135.711H143.861V133.842ZM145.74 133.842H147.619V135.711H145.74V133.842ZM149.499 133.842H151.378V135.711H149.499V133.842ZM153.258 133.842H155.137V135.711H153.258V133.842ZM155.137 133.842H157.017V135.711H155.137V133.842ZM157.017 133.842H158.896V135.711H157.017V133.842ZM164.534 133.842H166.414V135.711H164.534V133.842ZM168.293 133.842H170.173V135.711H168.293V133.842ZM126.946 135.711H128.825V137.58H126.946V135.711ZM130.704 135.711H132.584V137.58H130.704V135.711ZM132.584 135.711H134.463V137.58H132.584V135.711ZM134.463 135.711H136.343V137.58H134.463V135.711ZM138.222 135.711H140.102V137.58H138.222V135.711ZM141.981 135.711H143.861V137.58H141.981V135.711ZM145.74 135.711H147.619V137.58H145.74V135.711ZM157.017 135.711H158.896V137.58H157.017V135.711ZM158.896 135.711H160.775V137.58H158.896V135.711ZM160.775 135.711H162.655V137.58H160.775V135.711ZM162.655 135.711H164.534V137.58H162.655V135.711ZM164.534 135.711H166.414V137.58H164.534V135.711ZM168.293 135.711H170.173V137.58H168.293V135.711ZM170.173 135.711H172.052V137.58H170.173V135.711ZM126.946 137.58H128.825V139.449H126.946V137.58ZM130.704 137.58H132.584V139.449H130.704V137.58ZM132.584 137.58H134.463V139.449H132.584V137.58ZM134.463 137.58H136.343V139.449H134.463V137.58ZM138.222 137.58H140.102V139.449H138.222V137.58ZM143.861 137.58H145.74V139.449H143.861V137.58ZM147.619 137.58H149.499V139.449H147.619V137.58ZM153.258 137.58H155.137V139.449H153.258V137.58ZM155.137 137.58H157.017V139.449H155.137V137.58ZM158.896 137.58H160.775V139.449H158.896V137.58ZM160.775 137.58H162.655V139.449H160.775V137.58ZM168.293 137.58H170.173V139.449H168.293V137.58ZM172.052 137.58H173.931V139.449H172.052V137.58ZM126.946 139.449H128.825V141.318H126.946V139.449ZM130.704 139.449H132.584V141.318H130.704V139.449ZM132.584 139.449H134.463V141.318H132.584V139.449ZM134.463 139.449H136.343V141.318H134.463V139.449ZM138.222 139.449H140.102V141.318H138.222V139.449ZM147.619 139.449H149.499V141.318H147.619V139.449ZM153.258 139.449H155.137V141.318H153.258V139.449ZM157.017 139.449H158.896V141.318H157.017V139.449ZM160.775 139.449H162.655V141.318H160.775V139.449ZM162.655 139.449H164.534V141.318H162.655V139.449ZM168.293 139.449H170.173V141.318H168.293V139.449ZM170.173 139.449H172.052V141.318H170.173V139.449ZM126.946 141.318H128.825V143.187H126.946V141.318ZM138.222 141.318H140.102V143.187H138.222V141.318ZM141.981 141.318H143.861V143.187H141.981V141.318ZM143.861 141.318H145.74V143.187H143.861V141.318ZM145.74 141.318H147.619V143.187H145.74V141.318ZM147.619 141.318H149.499V143.187H147.619V141.318ZM158.896 141.318H160.775V143.187H158.896V141.318ZM168.293 141.318H170.173V143.187H168.293V141.318ZM170.173 141.318H172.052V143.187H170.173V141.318ZM126.946 143.187H128.825V145.056H126.946V143.187ZM128.825 143.187H130.704V145.056H128.825V143.187ZM130.704 143.187H132.584V145.056H130.704V143.187ZM132.584 143.187H134.463V145.056H132.584V143.187ZM134.463 143.187H136.343V145.056H134.463V143.187ZM136.343 143.187H138.222V145.056H136.343V143.187ZM138.222 143.187H140.102V145.056H138.222V143.187ZM143.861 143.187H145.74V145.056H143.861V143.187ZM149.499 143.187H151.378V145.056H149.499V143.187ZM155.137 143.187H157.017V145.056H155.137V143.187ZM162.655 143.187H164.534V145.056H162.655V143.187ZM164.534 143.187H166.414V145.056H164.534V143.187ZM166.414 143.187H168.293V145.056H166.414V143.187ZM168.293 143.187H170.173V145.056H168.293V143.187ZM170.173 143.187H172.052V145.056H170.173V143.187ZM172.052 143.187H173.931V145.056H172.052V143.187Z" fill="white"/>
<path d="M123.688 105.058V100.696C123.688 97.4566 126.319 94.8398 129.577 94.8398H137.721" stroke="white" stroke-width="2" stroke-miterlimit="10" stroke-linecap="round" stroke-linejoin="round"/>
<path d="M138.097 148.919H129.452C126.194 148.919 123.563 146.302 123.563 143.062V138.577" stroke="white" stroke-width="2" stroke-miterlimit="10" stroke-linecap="round" stroke-linejoin="round"/>
<path d="M177.44 105.058V100.696C177.44 97.4566 174.809 94.8398 171.551 94.8398H163.407" stroke="white" stroke-width="2" stroke-miterlimit="10" stroke-linecap="round" stroke-linejoin="round"/>
<path d="M162.905 148.919H171.551C174.808 148.919 177.44 146.302 177.44 143.062V138.577" stroke="white" stroke-width="2" stroke-miterlimit="10" stroke-linecap="round" stroke-linejoin="round"/>
<path d="M123.688 114.902H177.44" stroke="#6600FF" stroke-miterlimit="10"/>
<path d="M177.44 106.927H123.688V114.528H177.44V106.927Z" fill="url(#paint1_linear_142_7780)"/>
<path d="M253.243 235.894C252.492 233.901 251.865 231.782 251.239 229.789C250.487 227.296 249.986 225.178 248.733 222.811C248.482 222.437 248.357 222.063 248.106 221.565C246.728 219.072 244.849 215.708 243.721 211.596C242.969 208.855 243.721 202.001 244.473 195.397C244.974 190.662 245.475 186.176 245.35 183.56V182.687C244.974 176.083 244.222 162.127 242.719 158.265C241.215 154.526 239.962 154.028 237.456 153.031C237.206 152.906 236.955 152.782 236.704 152.657C235.827 152.283 234.199 151.411 232.319 150.539C228.184 148.421 223.047 145.804 220.541 145.43C217.158 144.932 213.775 145.679 213.274 145.804C210.017 143.312 204.629 140.197 203 140.197C201.622 140.072 198.74 140.944 197.362 141.443C196.986 141.567 196.735 141.567 196.61 141.692C195.482 140.82 194.48 140.197 193.853 139.823C193.728 139.823 193.728 139.823 193.603 139.698C191.849 138.951 189.092 138.951 187.589 138.951C187.087 138.951 186.837 138.951 186.586 138.951C183.83 134.714 181.073 130.353 179.82 128.484C177.314 124.496 169.546 108.297 169.546 108.173C169.546 108.173 169.546 108.048 169.421 108.048C169.421 108.048 169.421 108.048 169.296 108.048C168.669 107.924 164.284 106.802 162.53 111.039C160.525 115.649 163.407 125.867 166.038 129.605C167.291 131.35 170.924 138.701 174.558 146.178C173.681 147.05 166.163 153.903 162.53 155.149C159.522 156.146 160.274 171.224 160.775 183.31C161.026 187.796 161.151 191.659 161.151 193.902C161.026 198.388 169.17 204.493 177.189 210.475C184.331 215.833 191.723 221.44 192.6 225.427C192.851 226.549 193.478 227.546 194.355 228.543C195.733 230.287 197.487 232.281 198.239 236.144C198.489 237.265 200.369 238.76 201.747 241.252H255.374C254.998 240.505 254.121 238.386 253.243 235.894ZM178.943 155.648C181.574 161.006 183.203 164.246 183.579 164.619C183.955 164.993 183.955 166.738 183.955 168.358C183.955 169.853 183.955 171.348 184.08 172.719C183.454 173.217 179.444 176.831 178.693 179.821L175.31 175.834L174.433 163.373C174.809 162.875 178.317 159.137 178.943 155.648Z" fill="#131313"/>
<path d="M199.366 154.028C199.366 154.028 195.983 153.156 193.603 150.04C191.222 146.925 182.076 132.845 179.57 128.733C177.064 124.745 169.295 108.422 169.295 108.422C169.295 108.422 164.534 106.802 162.655 111.288C160.775 115.774 163.407 125.867 166.163 129.73C169.045 133.592 182.577 163.498 183.579 164.495C184.707 165.492 183.078 173.466 185.208 175.335" stroke="white" stroke-miterlimit="10" stroke-linecap="round" stroke-linejoin="round"/>
<path d="M184.206 172.843C184.206 172.843 179.194 177.08 178.693 180.32L175.059 175.959L174.182 163.373C174.182 163.373 178.567 159.012 178.818 155.025" stroke="white" stroke-miterlimit="10" stroke-linecap="round" stroke-linejoin="round"/>
<path d="M174.808 146.551C174.808 146.551 166.539 154.277 162.655 155.648C158.771 157.018 161.652 185.927 161.402 194.276C161.151 202.624 190.972 217.203 192.851 225.801C193.603 229.165 196.61 229.913 198.364 236.392" stroke="white" stroke-miterlimit="10" stroke-linecap="round" stroke-linejoin="round"/>
<path d="M186.461 139.324C186.461 139.324 190.972 138.95 193.478 139.947C195.983 140.944 206.258 149.791 208.764 151.411C211.27 153.031 214.903 153.654 215.655 155.523" stroke="white" stroke-miterlimit="10" stroke-linecap="round" stroke-linejoin="round"/>
<path d="M196.485 141.941C196.485 141.941 201.121 140.446 202.875 140.446C204.629 140.57 211.269 144.433 214.151 147.05C217.158 149.667 220.04 151.037 221.92 151.66" stroke="white" stroke-miterlimit="10" stroke-linecap="round" stroke-linejoin="round"/>
<path d="M213.024 146.178C213.024 146.178 216.532 145.305 220.291 145.804C224.05 146.302 233.447 151.785 236.454 153.031C239.461 154.277 240.839 154.526 242.468 158.514C244.097 162.501 244.723 177.703 245.099 183.684C245.475 189.665 242.217 206.861 243.596 211.721C244.849 216.58 247.229 220.318 248.608 222.935" stroke="white" stroke-miterlimit="10" stroke-linecap="round" stroke-linejoin="round"/>
<path d="M174.182 163.373C174.182 163.373 173.43 160.383 172.428 160.009" stroke="white" stroke-miterlimit="10" stroke-linecap="round" stroke-linejoin="round"/>
<path d="M174.934 175.958C174.934 175.958 175.56 179.198 176.312 181.067C177.064 182.812 175.936 185.429 175.936 185.429" stroke="white" stroke-miterlimit="10" stroke-linecap="round" stroke-linejoin="round"/>
<path d="M178.693 180.195C178.567 183.061 181.449 186.425 182.201 185.927" stroke="white" stroke-miterlimit="10" stroke-linecap="round" stroke-linejoin="round"/>
<path d="M193.352 163.373C193.352 163.373 196.485 158.389 199.366 158.14C202.374 157.891 205.757 162.127 207.636 161.753C209.515 161.38 211.771 158.638 214.903 158.14C218.035 157.641 219.414 159.137 221.92 159.261C224.426 159.386 224.551 156.146 227.558 155.648C230.44 155.149 231.442 156.645 233.447 157.018C235.452 157.392 235.953 155.897 237.456 155.025" stroke="white" stroke-miterlimit="10" stroke-linecap="round" stroke-linejoin="round"/>
</g>
<defs>
<linearGradient id="paint0_linear_142_7780" x1="150.373" y1="-1" x2="149.927" y2="96.4592" gradientUnits="userSpaceOnUse">
<stop stop-color="#C849F9" stop-opacity="0"/>
<stop offset="0.1613" stop-color="#8843F9" stop-opacity="0.1614"/>
<stop offset="0.4174" stop-color="#7333FB" stop-opacity="0.4176"/>
<stop offset="0.7343" stop-color="#6F59F1"/>
<stop offset="0.9995" stop-color="#6E58F1"/>
</linearGradient>
<linearGradient id="paint1_linear_142_7780" x1="150.51" y1="114.583" x2="150.51" y2="106.97" gradientUnits="userSpaceOnUse">
<stop stop-color="#C849F9" stop-opacity="0"/>
<stop offset="0.1614" stop-color="#C043F9" stop-opacity="0.1614"/>
<stop offset="0.4176" stop-color="#A933FB" stop-opacity="0.4176"/>
<stop offset="0.7347" stop-color="#8319FD" stop-opacity="0.7347"/>
<stop offset="1" stop-color="#5F00FF"/>
</linearGradient>
<clipPath id="clip0_142_7780">
<rect width="300" height="240" fill="white"/>
</clipPath>
</defs>
</svg>
