<svg id="solution" width="190" height="190" viewBox="0 0 190 190" fill="none" xmlns="http://www.w3.org/2000/svg">
<g clip-path="url(#clip0_142_8452)">
<g clip-path="url(#clip1_142_8452)">
<path d="M130.745 152.503H107.224L104.752 123.229H128.273L130.745 152.503Z" fill="white"/>
<path fill-rule="evenodd" clip-rule="evenodd" d="M104.206 122.723H128.734L131.291 153.009H106.763L104.206 122.723ZM105.299 123.735L107.685 151.998H130.198L127.812 123.735H105.299Z" fill="#272727"/>
<path d="M126.001 152.503H102.48L105.111 117.969H128.632L126.001 152.503Z" fill="white"/>
<path fill-rule="evenodd" clip-rule="evenodd" d="M104.646 117.463H129.174L126.465 153.009H101.938L104.646 117.463ZM105.576 118.474L103.022 151.997H125.536L128.09 118.474H105.576Z" fill="#272727"/>
<path d="M107.663 123.992C107.423 123.992 107.264 123.952 107.104 123.872C106.945 123.791 106.865 123.671 106.786 123.47C106.706 123.31 106.706 123.109 106.706 122.828L107.304 122.707C107.304 122.868 107.304 122.988 107.344 123.109C107.384 123.229 107.384 123.31 107.463 123.35C107.503 123.39 107.583 123.43 107.702 123.43C107.822 123.43 107.902 123.39 107.942 123.35C107.982 123.269 108.021 123.189 108.021 123.109C108.021 122.948 108.021 122.828 107.942 122.707C107.862 122.587 107.782 122.506 107.663 122.386L107.224 121.984C107.104 121.864 107.025 121.743 106.945 121.583C106.865 121.462 106.865 121.262 106.865 121.061C106.905 120.78 106.985 120.539 107.184 120.378C107.384 120.218 107.623 120.137 107.902 120.137C108.061 120.137 108.221 120.177 108.34 120.218C108.46 120.258 108.54 120.338 108.619 120.458C108.699 120.539 108.739 120.659 108.739 120.78C108.779 120.9 108.779 121.021 108.779 121.181L108.181 121.302C108.181 121.181 108.181 121.061 108.181 120.98C108.181 120.9 108.141 120.82 108.101 120.78C108.061 120.74 107.982 120.699 107.902 120.699C107.782 120.699 107.702 120.74 107.663 120.78C107.623 120.86 107.583 120.94 107.583 121.021C107.583 121.141 107.583 121.262 107.623 121.342C107.663 121.422 107.742 121.503 107.822 121.583L108.261 121.984C108.42 122.105 108.54 122.266 108.619 122.426C108.699 122.587 108.739 122.828 108.739 123.069C108.739 123.229 108.659 123.39 108.579 123.551C108.5 123.671 108.38 123.791 108.221 123.872C108.021 123.952 107.862 123.992 107.663 123.992Z" fill="#272727"/>
<path d="M110.015 123.992C109.736 123.992 109.536 123.952 109.377 123.832C109.217 123.711 109.138 123.591 109.098 123.39C109.058 123.189 109.018 122.988 109.058 122.747L109.177 121.422C109.177 121.181 109.257 120.94 109.337 120.74C109.417 120.539 109.536 120.418 109.696 120.298C109.855 120.177 110.094 120.137 110.334 120.137C110.573 120.137 110.772 120.177 110.932 120.258C111.051 120.338 111.171 120.458 111.211 120.619C111.251 120.78 111.29 120.98 111.251 121.181L111.211 121.503H110.573L110.613 121.181C110.613 121.061 110.613 120.98 110.613 120.9C110.613 120.82 110.573 120.74 110.533 120.699C110.493 120.659 110.413 120.619 110.294 120.619C110.174 120.619 110.094 120.659 110.015 120.699C109.975 120.74 109.935 120.82 109.895 120.9C109.855 120.98 109.855 121.101 109.855 121.221L109.736 122.868C109.736 122.988 109.736 123.109 109.736 123.189C109.736 123.269 109.775 123.35 109.855 123.39C109.895 123.43 109.975 123.47 110.094 123.47C110.214 123.47 110.294 123.43 110.334 123.39C110.373 123.35 110.413 123.269 110.453 123.189C110.453 123.109 110.493 122.988 110.493 122.908L110.533 122.587H111.171L111.131 122.868C111.131 123.109 111.051 123.269 111.011 123.47C110.932 123.631 110.812 123.791 110.692 123.872C110.453 123.952 110.254 123.992 110.015 123.992Z" fill="#272727"/>
<path d="M111.29 123.952L112.327 120.218H113.044L113.483 123.952H112.845L112.765 123.069H112.127L111.928 123.952H111.29ZM112.247 122.667H112.765L112.646 121.101L112.247 122.667Z" fill="#272727"/>
<path d="M113.842 123.952L114.121 120.218H114.599L115.357 122.346L115.516 120.218H116.074L115.795 123.952H115.357L114.639 121.704L114.48 123.952H113.842Z" fill="#272727"/>
<path d="M117.509 123.952L117.788 120.218H118.466L118.347 121.784H119.104L119.224 120.218H119.901L119.622 123.952H118.945L119.064 122.266H118.307L118.187 123.952H117.509Z" fill="#272727"/>
<path d="M120.18 123.952L120.459 120.218H122.014L121.974 120.7H121.097L121.017 121.784H121.695L121.655 122.266H120.978L120.898 123.511H121.775L121.735 123.992H120.18V123.952Z" fill="#272727"/>
<path d="M122.134 123.952L122.413 120.218H123.29C123.529 120.218 123.768 120.258 123.928 120.298C124.087 120.338 124.207 120.459 124.287 120.619C124.366 120.78 124.406 120.981 124.366 121.222C124.366 121.382 124.327 121.503 124.287 121.623C124.247 121.744 124.207 121.864 124.127 121.945C124.047 122.025 123.968 122.105 123.848 122.145L124.207 123.992H123.529L123.21 122.266H122.891L122.772 123.992H122.134V123.952ZM122.971 121.824H123.17C123.29 121.824 123.41 121.824 123.489 121.784C123.569 121.744 123.649 121.704 123.689 121.583C123.729 121.503 123.768 121.382 123.768 121.262C123.768 121.061 123.768 120.941 123.689 120.82C123.609 120.74 123.489 120.659 123.29 120.659H123.051L122.971 121.824Z" fill="#272727"/>
<path d="M124.725 123.952L125.004 120.218H126.559L126.519 120.7H125.642L125.562 121.784H126.24L126.2 122.266H125.522L125.443 123.511H126.32L126.28 123.992H124.725V123.952Z" fill="#272727"/>
<path d="M113.882 140.296C113.921 139.855 113.961 139.373 114.001 138.931C114.24 138.931 114.44 138.931 114.679 138.931C114.679 138.69 114.719 138.489 114.719 138.248C114.479 138.248 114.28 138.248 114.041 138.248C114.041 138.007 114.081 137.807 114.081 137.566C114.519 137.566 114.998 137.566 115.436 137.566C115.436 137.325 115.476 137.124 115.476 136.883C115.715 136.883 115.915 136.883 116.154 136.883C116.154 137.124 116.114 137.325 116.114 137.566C116.353 137.566 116.553 137.566 116.792 137.566C116.832 137.124 116.871 136.642 116.911 136.2C116.951 136.2 116.951 136.2 116.991 136.2C117.629 136.2 118.307 136.2 118.944 136.2C118.944 136.441 118.905 136.642 118.905 136.883C119.144 136.883 119.343 136.883 119.582 136.883C119.582 136.642 119.622 136.441 119.622 136.2C119.383 136.2 119.184 136.2 118.944 136.2C118.944 135.959 118.984 135.759 118.984 135.518C118.546 135.518 118.067 135.518 117.629 135.518C117.669 135.076 117.709 134.594 117.748 134.152C117.071 134.152 116.393 134.152 115.715 134.152C115.715 134.393 115.675 134.594 115.675 134.835C115.237 134.835 114.759 134.835 114.32 134.835C114.28 135.277 114.24 135.759 114.2 136.2C114.44 136.2 114.639 136.2 114.878 136.2C114.878 136.441 114.838 136.642 114.838 136.883C114.599 136.883 114.4 136.883 114.161 136.883C114.161 137.124 114.121 137.325 114.121 137.566C113.882 137.566 113.682 137.566 113.443 137.566C113.443 137.325 113.483 137.124 113.483 136.883C112.805 136.883 112.127 136.883 111.45 136.883C111.45 136.642 111.49 136.441 111.49 136.2C112.167 136.2 112.845 136.2 113.523 136.2C113.682 134.393 113.802 132.546 113.961 130.739C114.2 130.739 114.4 130.739 114.639 130.739C114.599 131.382 114.519 132.064 114.479 132.707C114.479 132.747 114.479 132.747 114.479 132.787C114.719 132.787 114.918 132.787 115.157 132.787C115.197 132.345 115.237 131.863 115.277 131.422C115.516 131.422 115.715 131.422 115.955 131.422C115.915 131.863 115.875 132.345 115.835 132.787C116.074 132.787 116.273 132.787 116.513 132.787C116.513 133.028 116.473 133.229 116.473 133.47C117.589 133.47 118.745 133.47 119.861 133.47C119.861 133.711 119.821 133.911 119.821 134.152C120.061 134.152 120.26 134.152 120.499 134.152C120.499 134.393 120.459 134.594 120.459 134.835C120.22 134.835 120.021 134.835 119.782 134.835C119.782 135.076 119.742 135.277 119.742 135.518C119.981 135.518 120.18 135.518 120.419 135.518C120.38 135.959 120.34 136.441 120.3 136.883C120.539 136.883 120.738 136.883 120.978 136.883C120.938 137.325 120.898 137.807 120.858 138.248C120.619 138.248 120.419 138.248 120.18 138.248C120.14 138.69 120.101 139.172 120.061 139.614C120.3 139.614 120.499 139.614 120.738 139.614C120.738 139.855 120.699 140.055 120.699 140.296C121.137 140.296 121.615 140.296 122.054 140.296C122.054 140.537 122.014 140.738 122.014 140.979C121.336 140.979 120.659 140.979 119.981 140.979C119.941 141.421 119.901 141.903 119.861 142.344C119.622 142.344 119.423 142.344 119.184 142.344C119.184 142.103 119.223 141.903 119.223 141.662C118.785 141.662 118.307 141.662 117.868 141.662C117.868 141.421 117.908 141.22 117.908 140.979C117.669 140.979 117.469 140.979 117.23 140.979C117.23 140.738 117.27 140.537 117.27 140.296C117.709 140.296 118.187 140.296 118.626 140.296C118.626 140.055 118.665 139.855 118.665 139.614C117.549 139.614 116.393 139.614 115.277 139.614C115.277 139.855 115.237 140.055 115.237 140.296C114.798 140.296 114.36 140.296 113.882 140.296ZM118.147 138.248C118.147 138.007 118.187 137.807 118.187 137.566C117.948 137.566 117.748 137.566 117.509 137.566C117.509 137.807 117.469 138.007 117.469 138.248C117.669 138.248 117.908 138.248 118.147 138.248C118.147 138.489 118.107 138.69 118.107 138.931C118.546 138.931 119.024 138.931 119.463 138.931C119.463 138.69 119.503 138.489 119.503 138.248C119.024 138.248 118.586 138.248 118.147 138.248ZM116.752 138.248C116.513 138.248 116.313 138.248 116.074 138.248C116.074 138.489 116.034 138.69 116.034 138.931C116.273 138.931 116.473 138.931 116.712 138.931C116.752 138.69 116.752 138.489 116.752 138.248ZM118.386 134.835C118.626 134.835 118.825 134.835 119.064 134.835C119.064 134.594 119.104 134.393 119.104 134.152C118.865 134.152 118.665 134.152 118.426 134.152C118.426 134.353 118.426 134.594 118.386 134.835Z" fill="#272727"/>
<path d="M108.38 132.746C108.5 131.14 108.619 129.574 108.739 127.968C110.333 127.968 111.888 127.968 113.483 127.968C113.363 129.574 113.244 131.14 113.124 132.746C111.529 132.746 109.935 132.746 108.38 132.746ZM109.377 128.65C109.297 129.775 109.217 130.939 109.098 132.064C110.214 132.064 111.37 132.064 112.486 132.064C112.566 130.939 112.646 129.775 112.765 128.65C111.609 128.65 110.493 128.65 109.377 128.65Z" fill="#272727"/>
<path d="M122.612 132.787C121.017 132.787 119.463 132.787 117.868 132.787C117.988 131.18 118.107 129.614 118.227 128.008C119.821 128.008 121.376 128.008 122.971 128.008C122.851 129.574 122.732 131.18 122.612 132.787ZM122.253 128.651C121.137 128.651 119.981 128.651 118.865 128.651C118.785 129.775 118.705 130.939 118.586 132.064C119.702 132.064 120.858 132.064 121.974 132.064C122.094 130.939 122.173 129.815 122.253 128.651Z" fill="#272727"/>
<path d="M107.981 137.565C109.576 137.565 111.131 137.565 112.725 137.565C112.606 139.171 112.486 140.737 112.367 142.343C110.772 142.343 109.217 142.343 107.623 142.343C107.742 140.737 107.862 139.171 107.981 137.565ZM112.008 138.247C110.892 138.247 109.735 138.247 108.619 138.247C108.539 139.372 108.46 140.536 108.34 141.661C109.456 141.661 110.612 141.661 111.729 141.661C111.848 140.536 111.928 139.372 112.008 138.247Z" fill="#272727"/>
<path d="M114.639 130.698C114.679 130.257 114.719 129.775 114.759 129.333C114.519 129.333 114.32 129.333 114.081 129.333C114.121 128.891 114.161 128.409 114.2 127.968C115.317 127.968 116.473 127.968 117.589 127.968C117.549 128.409 117.509 128.891 117.469 129.333C117.23 129.333 117.031 129.333 116.792 129.333C116.792 129.574 116.752 129.775 116.752 130.016C116.991 130.016 117.19 130.016 117.43 130.016C117.39 130.457 117.35 130.939 117.31 131.381C117.071 131.381 116.871 131.381 116.632 131.381C116.632 131.14 116.672 130.939 116.672 130.698C116.433 130.698 116.234 130.698 115.994 130.698C115.994 130.457 116.034 130.257 116.034 130.016C115.795 130.016 115.596 130.016 115.357 130.016C115.357 130.257 115.317 130.457 115.317 130.698C115.077 130.698 114.878 130.698 114.639 130.698ZM115.436 129.333C115.675 129.333 115.875 129.333 116.114 129.333C116.114 129.092 116.154 128.891 116.154 128.65C115.915 128.65 115.715 128.65 115.476 128.65C115.436 128.891 115.436 129.132 115.436 129.333Z" fill="#272727"/>
<path d="M111.649 134.152C111.649 134.393 111.609 134.594 111.609 134.835C112.048 134.835 112.526 134.835 112.965 134.835C112.965 135.076 112.925 135.277 112.925 135.518C112.247 135.518 111.569 135.518 110.892 135.518C110.852 135.959 110.812 136.441 110.772 136.883C109.855 136.883 108.978 136.883 108.061 136.883C108.101 136.441 108.141 135.959 108.181 135.518C108.42 135.518 108.619 135.518 108.858 135.518C108.858 135.759 108.819 135.959 108.819 136.2C109.257 136.2 109.736 136.2 110.174 136.2C110.214 135.518 110.294 134.835 110.334 134.152C110.732 134.152 111.211 134.152 111.649 134.152Z" fill="#272727"/>
<path d="M113.881 140.296C113.881 140.537 113.842 140.737 113.842 140.978C114.081 140.978 114.28 140.978 114.519 140.978C114.519 141.219 114.479 141.42 114.479 141.661C114.719 141.661 114.918 141.661 115.157 141.661C115.157 141.902 115.117 142.103 115.117 142.344C114.44 142.344 113.762 142.344 113.084 142.344C113.124 141.661 113.204 140.978 113.244 140.296C113.443 140.296 113.682 140.296 113.881 140.296Z" fill="#272727"/>
<path d="M110.294 134.152C109.855 134.152 109.377 134.152 108.938 134.152C108.938 134.393 108.898 134.594 108.898 134.835C108.659 134.835 108.46 134.835 108.221 134.835C108.26 134.393 108.3 133.911 108.34 133.469C109.018 133.469 109.696 133.469 110.373 133.469C110.333 133.67 110.333 133.911 110.294 134.152Z" fill="#272727"/>
<path d="M122.413 135.517C122.174 135.517 121.974 135.517 121.735 135.517C121.775 135.076 121.815 134.594 121.855 134.152C121.615 134.152 121.416 134.152 121.177 134.152C121.177 133.911 121.217 133.71 121.217 133.469C121.655 133.469 122.134 133.469 122.572 133.469C122.532 134.152 122.453 134.835 122.413 135.517Z" fill="#272727"/>
<path d="M111.649 134.152C111.649 133.911 111.689 133.71 111.689 133.469C112.127 133.469 112.606 133.469 113.044 133.469C113.044 133.71 113.004 133.911 113.004 134.152C112.566 134.152 112.088 134.152 111.649 134.152Z" fill="#272727"/>
<path d="M120.938 136.882C120.938 136.641 120.977 136.441 120.977 136.2C121.217 136.2 121.416 136.2 121.655 136.2C121.655 136.441 121.615 136.641 121.615 136.882C121.416 136.882 121.177 136.882 120.938 136.882Z" fill="#272727"/>
<path d="M121.576 137.565C121.815 137.565 122.014 137.565 122.253 137.565C122.253 137.806 122.213 138.006 122.213 138.247C121.974 138.247 121.775 138.247 121.536 138.247C121.536 138.006 121.576 137.806 121.576 137.565Z" fill="#272727"/>
<path d="M116.513 132.787C116.513 132.546 116.552 132.345 116.552 132.104C116.792 132.104 116.991 132.104 117.23 132.104C117.23 132.345 117.19 132.546 117.19 132.787C116.951 132.787 116.752 132.787 116.513 132.787Z" fill="#272727"/>
<path d="M114.001 138.93C113.762 138.93 113.563 138.93 113.323 138.93C113.323 138.689 113.363 138.488 113.363 138.248C113.602 138.248 113.802 138.248 114.041 138.248C114.041 138.488 114.001 138.689 114.001 138.93Z" fill="#272727"/>
<path d="M120.738 139.613C120.738 139.372 120.778 139.172 120.778 138.931C121.017 138.931 121.217 138.931 121.456 138.931C121.456 139.172 121.416 139.372 121.416 139.613C121.177 139.613 120.977 139.613 120.738 139.613Z" fill="#272727"/>
<path d="M120.42 134.834C120.659 134.834 120.858 134.834 121.097 134.834C121.097 135.075 121.057 135.276 121.057 135.517C120.818 135.517 120.619 135.517 120.38 135.517C120.38 135.276 120.42 135.035 120.42 134.834Z" fill="#272727"/>
<path d="M116.513 141.661C116.273 141.661 116.074 141.661 115.835 141.661C115.835 141.42 115.875 141.22 115.875 140.979C116.114 140.979 116.313 140.979 116.552 140.979C116.552 141.22 116.513 141.42 116.513 141.661Z" fill="#272727"/>
<path d="M117.868 141.662C117.868 141.903 117.828 142.103 117.828 142.344C117.589 142.344 117.39 142.344 117.151 142.344C117.151 142.103 117.19 141.903 117.19 141.662C117.43 141.662 117.629 141.662 117.868 141.662Z" fill="#272727"/>
<path d="M121.895 142.344C121.655 142.344 121.456 142.344 121.217 142.344C121.217 142.103 121.257 141.903 121.257 141.662C121.496 141.662 121.695 141.662 121.935 141.662C121.935 141.903 121.895 142.103 121.895 142.344Z" fill="#272727"/>
<path d="M116.951 136.2C116.712 136.2 116.513 136.2 116.273 136.2C116.273 135.959 116.313 135.758 116.313 135.517C116.552 135.517 116.752 135.517 116.991 135.517C116.951 135.718 116.951 135.959 116.951 136.2C116.911 136.2 116.951 136.2 116.951 136.2Z" fill="#272727"/>
<path d="M111.848 131.381C111.171 131.381 110.493 131.381 109.815 131.381C109.855 130.698 109.935 130.016 109.975 129.333C110.652 129.333 111.33 129.333 112.008 129.333C111.968 130.016 111.928 130.698 111.848 131.381Z" fill="#272727"/>
<path d="M119.343 131.381C119.383 130.698 119.463 130.016 119.502 129.333C120.18 129.333 120.858 129.333 121.536 129.333C121.496 130.016 121.416 130.698 121.376 131.381C120.698 131.381 120.021 131.381 119.343 131.381Z" fill="#272727"/>
<path d="M109.098 140.979C109.138 140.296 109.217 139.613 109.257 138.931C109.935 138.931 110.613 138.931 111.29 138.931C111.25 139.613 111.171 140.296 111.131 140.979C110.453 140.979 109.775 140.979 109.098 140.979Z" fill="#272727"/>
<path fill-rule="evenodd" clip-rule="evenodd" d="M107.396 125.855H110.812V126.867H108.328L108.123 129.691L107.122 129.617L107.396 125.855Z" fill="#6E58F1"/>
<path fill-rule="evenodd" clip-rule="evenodd" d="M124.065 126.867H121.655V125.855H125.145L124.867 129.691L123.866 129.617L124.065 126.867Z" fill="#6E58F1"/>
<path fill-rule="evenodd" clip-rule="evenodd" d="M107.053 143.243L107.285 140.499L106.286 140.413L105.96 144.255H109.496V143.243H107.053Z" fill="#6E58F1"/>
<path fill-rule="evenodd" clip-rule="evenodd" d="M124.029 140.493L123.756 144.255H120.3V143.243H122.823L123.029 140.419L124.029 140.493Z" fill="#6E58F1"/>
<path d="M108.931 149.897L109.17 146.645H108.572L108.612 146.123H110.486L110.446 146.645H109.848L109.609 149.897H108.931Z" fill="#272727"/>
<path d="M114.5 149.897L114.739 146.645H114.141L114.181 146.123H116.054L116.015 146.645H115.417L115.177 149.897H114.5Z" fill="#272727"/>
<path d="M116.148 149.897L116.387 146.645L116.427 146.123L117.105 146.123L117.065 146.645L116.826 149.897H116.148Z" fill="#272727"/>
<path d="M111.522 149.937C111.243 149.937 111.044 149.897 110.924 149.777C110.765 149.696 110.685 149.536 110.605 149.335C110.565 149.134 110.525 148.933 110.565 148.692L110.685 147.287C110.685 147.046 110.765 146.805 110.844 146.644C110.924 146.484 111.044 146.323 111.203 146.243C111.363 146.163 111.562 146.082 111.841 146.082C112.12 146.082 112.319 146.122 112.479 146.243C112.638 146.323 112.718 146.484 112.798 146.644C112.838 146.805 112.877 147.046 112.838 147.287L112.718 148.692C112.718 148.933 112.638 149.174 112.558 149.335C112.479 149.536 112.359 149.656 112.2 149.777C112 149.897 111.761 149.937 111.522 149.937ZM111.562 149.455C111.681 149.455 111.761 149.415 111.801 149.375C111.841 149.335 111.881 149.255 111.921 149.174C111.961 149.094 111.961 149.014 111.961 148.893L112.08 147.166C112.08 147.046 112.08 146.966 112.08 146.885C112.08 146.805 112.04 146.725 112 146.685C111.961 146.644 111.881 146.604 111.761 146.604C111.642 146.604 111.562 146.644 111.522 146.685C111.482 146.725 111.402 146.805 111.402 146.885C111.363 146.966 111.363 147.046 111.363 147.166L111.243 148.893C111.243 149.014 111.243 149.094 111.243 149.174C111.243 149.255 111.283 149.335 111.323 149.375C111.363 149.415 111.442 149.455 111.562 149.455Z" fill="#272727"/>
<path d="M117.46 149.857L117.739 146.123H118.816C119.055 146.123 119.214 146.163 119.334 146.243C119.453 146.323 119.573 146.444 119.613 146.604C119.653 146.765 119.693 146.966 119.653 147.167C119.653 147.408 119.573 147.608 119.493 147.769C119.414 147.93 119.294 148.01 119.135 148.09C118.975 148.171 118.816 148.211 118.616 148.211H118.258L118.138 149.857H117.46ZM118.297 147.689H118.537C118.656 147.689 118.776 147.689 118.816 147.649C118.895 147.608 118.935 147.568 118.975 147.488C119.015 147.408 119.015 147.287 119.055 147.167C119.055 147.046 119.055 146.926 119.055 146.845C119.055 146.765 119.015 146.685 118.935 146.645C118.855 146.604 118.776 146.604 118.616 146.604H118.377L118.297 147.689Z" fill="#272727"/>
<path d="M79.6449 116.116C79.6449 116.116 82.8353 112.38 83.3936 112.139C83.9519 111.858 91.4095 108.162 91.4095 108.162L89.3357 118.807L77.8901 124.15L79.6449 116.116Z" fill="white" stroke="#272727" stroke-width="0.631579" stroke-miterlimit="10"/>
<path d="M99.6647 124.311L89.4953 122.423C88.6578 122.262 88.1394 121.459 88.259 120.615L92.7655 96.151C92.925 95.3074 93.7226 94.7851 94.5601 94.9056L104.73 96.7937C105.567 96.9544 106.085 97.7578 105.966 98.6014L101.459 123.066C101.3 123.909 100.502 124.432 99.6647 124.311Z" fill="white" stroke="#272727" stroke-width="0.631579" stroke-miterlimit="10"/>
<path d="M95.8365 111.657C95.9162 111.335 95.9561 111.014 96.0359 110.693C96.1954 110.733 96.315 110.733 96.4745 110.773C96.5144 110.612 96.5543 110.451 96.5543 110.291C96.3948 110.251 96.2752 110.251 96.1156 110.21C96.1555 110.05 96.1555 109.889 96.1954 109.728C96.4745 109.769 96.7537 109.849 97.0727 109.889C97.1126 109.728 97.1525 109.568 97.1525 109.407C97.312 109.447 97.4317 109.447 97.5912 109.487C97.5513 109.648 97.5513 109.809 97.5114 109.969C97.671 110.01 97.7906 110.01 97.9501 110.05C98.0299 109.728 98.0698 109.407 98.1096 109.086H98.1495C98.5483 109.166 98.987 109.246 99.3858 109.327C99.3459 109.487 99.3459 109.648 99.306 109.809C99.4656 109.849 99.5852 109.849 99.7447 109.889C99.7846 109.728 99.7846 109.568 99.8245 109.407C99.665 109.367 99.5453 109.367 99.3858 109.327C99.4257 109.166 99.4257 109.005 99.4656 108.845C99.1864 108.804 98.9072 108.724 98.5882 108.684C98.668 108.363 98.7078 108.041 98.7477 107.72C98.309 107.639 97.8704 107.559 97.4716 107.479C97.4317 107.639 97.4317 107.8 97.3918 107.961C97.1126 107.921 96.8335 107.84 96.5543 107.8C96.4745 108.122 96.4347 108.443 96.3549 108.764C96.5144 108.804 96.6341 108.804 96.7936 108.845C96.7537 109.005 96.7537 109.166 96.7138 109.327C96.5543 109.287 96.4347 109.287 96.2751 109.246C96.2353 109.407 96.1954 109.568 96.1954 109.728C96.0359 109.688 95.9162 109.688 95.7567 109.648C95.7966 109.487 95.7966 109.327 95.8365 109.166C95.3978 109.086 94.9591 109.005 94.5603 108.925C94.6002 108.764 94.6002 108.604 94.6401 108.443C95.0787 108.523 95.4775 108.604 95.9162 108.684C96.1555 107.398 96.3948 106.153 96.6341 104.868C96.7936 104.908 96.9132 104.908 97.0727 104.948C96.993 105.39 96.9132 105.872 96.8335 106.314V106.354C96.993 106.394 97.1126 106.394 97.2722 106.434C97.312 106.113 97.3918 105.792 97.4317 105.47C97.5912 105.51 97.7108 105.51 97.8704 105.551C97.8305 105.872 97.7507 106.193 97.7108 106.515C97.8704 106.555 97.99 106.555 98.1495 106.595C98.1096 106.756 98.1096 106.916 98.0698 107.077C98.7876 107.198 99.5054 107.358 100.223 107.479C100.183 107.639 100.183 107.8 100.144 107.961C100.303 108.001 100.423 108.001 100.582 108.041C100.542 108.202 100.502 108.363 100.502 108.523C100.343 108.483 100.223 108.483 100.064 108.443C100.024 108.604 99.984 108.764 99.984 108.925C100.144 108.965 100.263 108.965 100.423 109.005C100.383 109.327 100.303 109.648 100.223 109.969C100.383 110.01 100.502 110.01 100.662 110.05C100.622 110.371 100.542 110.693 100.502 111.014C100.343 110.974 100.223 110.974 100.064 110.934C99.984 111.255 99.9441 111.576 99.8644 111.898C100.024 111.938 100.144 111.938 100.303 111.978C100.263 112.139 100.263 112.299 100.223 112.46C100.502 112.5 100.782 112.581 101.101 112.621C101.061 112.781 101.061 112.942 101.021 113.103C100.582 113.022 100.183 112.942 99.7447 112.862C99.665 113.183 99.6251 113.504 99.5852 113.826C99.4257 113.786 99.306 113.786 99.1465 113.746C99.1864 113.585 99.1864 113.424 99.2263 113.263C98.9471 113.223 98.668 113.143 98.3489 113.103C98.3888 112.942 98.3888 112.781 98.4287 112.621C98.2692 112.581 98.1495 112.581 97.99 112.54C98.0299 112.38 98.0299 112.219 98.0698 112.058C98.3489 112.099 98.6281 112.179 98.9072 112.219C98.9471 112.058 98.9471 111.898 98.987 111.737C98.2692 111.616 97.5513 111.456 96.8335 111.335C96.7936 111.496 96.7936 111.657 96.7537 111.817C96.3948 111.777 96.1156 111.737 95.8365 111.657ZM98.668 110.733C98.7078 110.572 98.7078 110.411 98.7477 110.251C98.5882 110.21 98.4686 110.21 98.309 110.17C98.2692 110.331 98.2692 110.492 98.2293 110.652C98.3888 110.693 98.5483 110.693 98.668 110.733C98.6281 110.893 98.6281 111.054 98.5882 111.215C98.8674 111.255 99.1465 111.335 99.4257 111.375C99.4656 111.215 99.4656 111.054 99.5054 110.893C99.2662 110.853 98.987 110.773 98.668 110.733ZM97.8305 110.572C97.671 110.532 97.5513 110.532 97.3918 110.492C97.3519 110.652 97.3519 110.813 97.312 110.974C97.4716 111.014 97.5912 111.014 97.7507 111.054C97.7507 110.893 97.7906 110.733 97.8305 110.572ZM99.1465 108.322C99.306 108.363 99.4257 108.363 99.5852 108.403C99.6251 108.242 99.6251 108.081 99.665 107.921C99.5054 107.881 99.3858 107.881 99.2263 107.84C99.1864 108.041 99.1465 108.162 99.1465 108.322Z" fill="#272727"/>
<path d="M92.9647 105.671C93.1641 104.546 93.3635 103.461 93.6028 102.337C94.5998 102.538 95.5968 102.738 96.5938 102.899C96.3944 104.024 96.195 105.108 95.9557 106.233C94.9587 106.073 93.9617 105.872 92.9647 105.671ZM93.9218 102.899C93.7623 103.702 93.6427 104.506 93.4832 105.269C94.201 105.39 94.9189 105.55 95.6367 105.671C95.7962 104.867 95.9158 104.064 96.0754 103.301C95.3575 103.18 94.6397 103.02 93.9218 102.899Z" fill="#272727"/>
<path d="M101.978 107.399C100.981 107.198 99.9839 106.997 98.9869 106.837C99.1863 105.712 99.3857 104.627 99.625 103.502C100.622 103.703 101.619 103.904 102.616 104.065C102.417 105.149 102.177 106.274 101.978 107.399ZM102.098 104.467C101.38 104.346 100.662 104.185 99.9441 104.065C99.7845 104.868 99.6649 105.672 99.5054 106.435C100.223 106.555 100.941 106.716 101.659 106.837C101.779 106.033 101.938 105.23 102.098 104.467Z" fill="#272727"/>
<path d="M92.3269 109.006C93.3239 109.206 94.3209 109.407 95.3179 109.568C95.1185 110.693 94.9191 111.777 94.6798 112.902C93.6828 112.701 92.6858 112.501 91.6888 112.34C91.9281 111.255 92.1275 110.13 92.3269 109.006ZM94.7995 110.01C94.0816 109.889 93.3638 109.729 92.646 109.608C92.4864 110.412 92.3668 111.215 92.2073 111.978C92.9251 112.099 93.643 112.259 94.3608 112.38C94.5203 111.577 94.6799 110.773 94.7995 110.01Z" fill="#272727"/>
<path d="M97.1124 104.988C97.1523 104.667 97.232 104.346 97.2719 104.024C97.1124 103.984 96.9928 103.984 96.8333 103.944C96.913 103.622 96.9529 103.301 96.9928 102.98C97.7106 103.1 98.4285 103.261 99.1463 103.381C99.1064 103.703 99.0267 104.024 98.9868 104.346C98.8273 104.305 98.7076 104.305 98.5481 104.265C98.5082 104.426 98.5082 104.587 98.4683 104.747C98.6279 104.787 98.7475 104.787 98.907 104.828C98.8273 105.149 98.7874 105.47 98.7475 105.792C98.588 105.752 98.4683 105.752 98.3088 105.711C98.3487 105.551 98.3487 105.39 98.3886 105.229C98.2291 105.189 98.1094 105.189 97.9499 105.149C97.9898 104.988 97.9898 104.828 98.0297 104.667C97.8701 104.627 97.7505 104.627 97.591 104.587C97.5511 104.747 97.5511 104.908 97.5112 105.069C97.3916 105.028 97.2321 104.988 97.1124 104.988ZM97.7106 104.105C97.8701 104.145 97.9898 104.145 98.1493 104.185C98.1892 104.024 98.1892 103.864 98.2291 103.703C98.0695 103.663 97.9499 103.663 97.7904 103.622C97.7505 103.783 97.7505 103.944 97.7106 104.105Z" fill="#272727"/>
<path d="M94.919 107.037C94.8791 107.198 94.8791 107.359 94.8393 107.519C95.1184 107.56 95.3976 107.64 95.7166 107.68C95.6767 107.841 95.6767 108.002 95.6369 108.162C95.1982 108.082 94.7994 108.002 94.3607 107.921C94.2809 108.243 94.2411 108.564 94.2012 108.885C93.6429 108.765 93.0446 108.684 92.4863 108.564C92.5262 108.243 92.606 107.921 92.6459 107.6C92.8054 107.64 92.925 107.64 93.0845 107.68C93.0446 107.841 93.0447 108.002 93.0048 108.162C93.2839 108.202 93.5631 108.283 93.8821 108.323C93.9619 107.841 94.0417 107.359 94.1613 106.877C94.3607 106.917 94.6399 106.997 94.919 107.037Z" fill="#272727"/>
<path d="M95.8364 111.657C95.7966 111.817 95.7966 111.978 95.7567 112.139C95.9162 112.179 96.0358 112.179 96.1954 112.219C96.1555 112.38 96.1555 112.541 96.1156 112.701C96.2751 112.741 96.3948 112.741 96.5543 112.782C96.5144 112.942 96.5144 113.103 96.4745 113.264C96.0358 113.183 95.637 113.103 95.1984 113.023C95.2781 112.541 95.3579 112.058 95.4775 111.576C95.5573 111.617 95.6769 111.657 95.8364 111.657Z" fill="#272727"/>
<path d="M94.0817 106.876C93.8026 106.836 93.5234 106.756 93.2044 106.715C93.1645 106.876 93.1645 107.037 93.1246 107.198C92.9651 107.157 92.8454 107.157 92.6859 107.117C92.7258 106.796 92.8056 106.474 92.8454 106.153C93.2841 106.233 93.6829 106.314 94.1216 106.394C94.1216 106.555 94.0817 106.715 94.0817 106.876Z" fill="#272727"/>
<path d="M101.619 109.327C101.46 109.287 101.34 109.287 101.18 109.246C101.22 108.925 101.3 108.604 101.34 108.282C101.18 108.242 101.061 108.242 100.901 108.202C100.941 108.041 100.941 107.881 100.981 107.72C101.26 107.76 101.539 107.84 101.818 107.881C101.818 108.363 101.699 108.845 101.619 109.327Z" fill="#272727"/>
<path d="M94.9191 107.037C94.9589 106.877 94.9589 106.716 94.9988 106.555C95.278 106.595 95.5572 106.676 95.8363 106.716C95.7964 106.877 95.7964 107.037 95.7565 107.198C95.4774 107.158 95.1982 107.077 94.9191 107.037Z" fill="#272727"/>
<path d="M100.582 110.09C100.622 109.929 100.622 109.769 100.662 109.608C100.821 109.648 100.941 109.648 101.101 109.688C101.061 109.849 101.061 110.01 101.021 110.17C100.861 110.17 100.742 110.13 100.582 110.09Z" fill="#272727"/>
<path d="M100.941 110.652C101.101 110.693 101.22 110.693 101.38 110.733C101.34 110.893 101.34 111.054 101.3 111.215C101.141 111.175 101.021 111.175 100.861 111.134C100.861 110.974 100.901 110.813 100.941 110.652Z" fill="#272727"/>
<path d="M98.1096 106.676C98.1495 106.515 98.1495 106.354 98.1894 106.194C98.3489 106.234 98.4685 106.234 98.6281 106.274C98.5882 106.435 98.5882 106.595 98.5483 106.756C98.3888 106.716 98.2691 106.676 98.1096 106.676Z" fill="#272727"/>
<path d="M96.0356 110.733C95.8761 110.693 95.7564 110.693 95.5969 110.652C95.6368 110.492 95.6368 110.331 95.6767 110.17C95.8362 110.211 95.9558 110.211 96.1154 110.251C96.0755 110.411 96.0356 110.572 96.0356 110.733Z" fill="#272727"/>
<path d="M100.223 112.018C100.263 111.857 100.263 111.696 100.303 111.536C100.463 111.576 100.582 111.576 100.742 111.616C100.702 111.777 100.702 111.937 100.662 112.098C100.503 112.058 100.383 112.058 100.223 112.018Z" fill="#272727"/>
<path d="M100.423 108.604C100.582 108.644 100.702 108.644 100.861 108.685C100.821 108.845 100.821 109.006 100.782 109.167C100.622 109.126 100.502 109.126 100.343 109.086C100.383 108.926 100.383 108.765 100.423 108.604Z" fill="#272727"/>
<path d="M97.3914 112.942C97.2319 112.902 97.1123 112.902 96.9528 112.862C96.9926 112.701 96.9926 112.541 97.0325 112.38C97.192 112.42 97.3117 112.42 97.4712 112.46C97.4313 112.621 97.3914 112.782 97.3914 112.942Z" fill="#272727"/>
<path d="M98.2291 113.103C98.1893 113.263 98.1893 113.424 98.1494 113.585C97.9899 113.544 97.8702 113.544 97.7107 113.504C97.7506 113.344 97.7506 113.183 97.7905 113.022C97.95 113.062 98.1095 113.103 98.2291 113.103Z" fill="#272727"/>
<path d="M100.742 114.067C100.582 114.027 100.463 114.027 100.303 113.987C100.343 113.826 100.343 113.666 100.383 113.505C100.542 113.545 100.662 113.545 100.822 113.585C100.782 113.786 100.742 113.947 100.742 114.067Z" fill="#272727"/>
<path d="M98.1096 109.126C97.9501 109.086 97.8304 109.086 97.6709 109.046C97.7108 108.885 97.7108 108.724 97.7507 108.563C97.9102 108.604 98.0298 108.604 98.1893 108.644C98.1495 108.805 98.1096 108.965 98.1096 109.126Z" fill="#272727"/>
<path d="M95.2782 105.149C94.8396 105.069 94.4408 104.988 94.0021 104.908C94.0818 104.426 94.1616 103.944 94.2812 103.462C94.7199 103.542 95.1187 103.622 95.5574 103.703C95.4776 104.185 95.358 104.667 95.2782 105.149Z" fill="#272727"/>
<path d="M100.024 106.033C100.103 105.551 100.183 105.069 100.303 104.587C100.742 104.667 101.14 104.747 101.579 104.828C101.499 105.31 101.419 105.792 101.3 106.274C100.861 106.194 100.462 106.113 100.024 106.033Z" fill="#272727"/>
<path d="M92.7256 111.577C92.8053 111.095 92.8851 110.613 93.0047 110.131C93.4434 110.211 93.8422 110.291 94.2809 110.372C94.2011 110.854 94.1214 111.336 94.0017 111.818C93.6029 111.737 93.1643 111.657 92.7256 111.577Z" fill="#272727"/>
<path d="M95.0391 101.454L93.1648 101.092L92.7261 103.382" stroke="#6E58F1" stroke-width="0.631579" stroke-miterlimit="10"/>
<path d="M101.898 102.739L103.773 103.101L103.334 105.43" stroke="#6E58F1" stroke-width="0.631579" stroke-miterlimit="10"/>
<path d="M92.7657 113.585L90.8914 113.224L91.33 110.934" stroke="#6E58F1" stroke-width="0.631579" stroke-miterlimit="10"/>
<path d="M99.6254 114.911L101.5 115.272L101.938 112.942" stroke="#6E58F1" stroke-width="0.631579" stroke-miterlimit="10"/>
<path d="M105.567 100.53L105.926 98.6016C106.085 97.758 105.527 96.9546 104.689 96.7939L94.5199 94.9058C93.6824 94.7452 92.8848 95.3075 92.7253 96.1511L92.3663 98.0794L105.567 100.53Z" fill="#272727" stroke="#272727" stroke-width="0.631579" stroke-miterlimit="10"/>
<path d="M88.4979 119.41L88.2985 120.615C88.1389 121.459 88.6973 122.262 89.5347 122.423L99.7042 124.311C100.542 124.472 101.339 123.909 101.499 123.066L101.698 121.861L88.4979 119.41Z" fill="#272727" stroke="#272727" stroke-width="0.631579" stroke-miterlimit="10"/>
<path d="M85.1885 114.75C85.1885 114.75 88.7378 115.272 89.8544 115.473C90.9312 115.674 95.3579 114.349 95.7168 115.031C96.0757 115.755 95.5573 116.638 94.5204 117.361C93.4835 118.084 89.336 118.808 89.336 118.808C89.336 118.808 88.0199 121.097 85.5075 121.901C82.9552 122.704 78.9672 122.584 78.9672 122.584" fill="white"/>
<path d="M85.1885 114.75C85.1885 114.75 88.7378 115.272 89.8544 115.473C90.9312 115.674 95.3579 114.349 95.7168 115.031C96.0757 115.755 95.5573 116.638 94.5204 117.361C93.4835 118.084 89.336 118.808 89.336 118.808C89.336 118.808 88.0199 121.097 85.5075 121.901C82.9552 122.704 78.9672 122.584 78.9672 122.584" stroke="#272727" stroke-width="0.631579" stroke-miterlimit="10"/>
<path d="M27.1227 163.117C27.4018 160.546 29.0369 144.035 28.4786 139.858C27.8405 135.358 23.015 100.289 23.015 97.7982C23.015 95.3076 25.7269 91.0896 26.7239 90.4469C27.7209 89.8443 39.8444 79.4801 39.8444 79.4801C44.6699 78.8776 70.5521 86.952 70.5521 86.952C70.5521 86.952 75.2579 88.5187 78.8471 93.8614C82.4363 99.2042 79.6049 105.712 79.6049 105.712C79.6049 105.712 79.6049 120.937 83.8321 136.644C87.6208 150.744 87.1023 161.148 86.9428 163.117" stroke="#272727" stroke-width="0.631579" stroke-miterlimit="10"/>
<path d="M35.4178 101.694C35.4178 101.694 40.2433 120.655 45.3081 127.524" stroke="#272727" stroke-width="0.631579" stroke-miterlimit="10"/>
<path d="M40.4822 121.177C40.4822 121.177 43.5928 127.685 47.0624 130.658" stroke="#272727" stroke-width="0.631579" stroke-miterlimit="10"/>
<path d="M84.0316 47.3426C84.0316 47.3426 83.912 55.3768 83.1543 56.3409C82.3966 57.305 81.2002 58.7914 81.2799 59.5948C81.3597 60.3982 83.0745 65.3795 83.1543 66.1025C83.234 66.7855 80.4026 68.1513 80.4026 68.1513C80.4026 68.1513 75.7366 77.5112 75.258 78.2343C74.7795 78.9172 73.6628 78.8368 72.3867 78.5556C71.1105 78.2744 68.7975 76.8283 68.7975 76.8283L64.291 85.3446C64.291 85.3446 57.0328 79.3591 53.7627 77.1095C50.4925 74.8599 46.4646 72.5701 46.4646 72.5701L50.6919 66.6248C50.6919 66.6248 52.646 64.094 53.1645 59.7555C53.6829 55.4572 54.8394 49.6725 63.8124 45.2537C72.7456 40.7946 81.599 45.4947 84.0316 47.3426Z" fill="white" stroke="#272727" stroke-width="0.631579" stroke-miterlimit="10"/>
<path d="M77.4515 47.1422C77.4515 47.1422 77.8901 51.079 77.2521 52.0832C76.614 53.0875 71.0308 53.8909 71.0308 54.5739C70.9909 55.2568 71.0308 58.6312 70.0338 58.5508C69.0368 58.4705 68.7975 58.6312 68.4784 58.35C68.1993 58.0688 68.7576 55.2166 66.4047 55.6585C64.0518 56.1004 61.8982 59.6354 61.9381 61.6842C61.978 63.7329 63.8125 65.2192 63.8125 65.2192C63.8125 65.2192 63.6131 66.1834 59.7846 67.4688C55.9162 68.7543 51.4098 67.8304 50.652 66.5449C49.8943 65.2594 47.661 48.7089 47.1825 44.3302C46.7039 39.9113 50.333 31.8369 56.6739 29.9087C63.0149 28.0206 70.4725 29.0651 70.4725 29.0651C70.4725 29.0651 74.3009 26.7753 77.6509 28.1412C81.0008 29.507 81.7585 33.4839 81.7585 33.4839C81.7585 33.4839 87.9798 33.2429 89.6548 37.3404C91.3297 41.3977 90.0935 45.937 87.9001 47.8653C85.7066 49.7935 81.9579 47.7849 80.283 47.1422C78.608 46.4994 77.4515 47.1422 77.4515 47.1422Z" fill="#272727" stroke="#272727" stroke-width="0.631579" stroke-miterlimit="10"/>
<path d="M83.1544 56.341C83.1544 56.341 81.3199 54.1717 79.3259 56.3812" stroke="#272727" stroke-width="0.631579" stroke-miterlimit="10"/>
<path d="M80.3228 59.2332C80.2032 59.8759 79.8442 60.3178 79.4853 60.2776C79.1663 60.1973 79.0068 59.6349 79.1264 59.0323C79.246 58.3896 79.605 57.9477 79.9639 57.9879C80.2829 58.0281 80.4424 58.5905 80.3228 59.2332Z" fill="#272727"/>
<path d="M77.5708 70.401C77.5708 70.401 76.1351 70.8831 74.9387 68.9548" stroke="#272727" stroke-width="0.631579" stroke-miterlimit="10"/>
<path d="M68.7574 76.7881C68.7574 76.7881 67.2419 75.342 66.4443 73.6146C65.6467 71.8873 64.8491 70.2402 64.8491 70.2402C64.8491 70.2402 64.9289 76.5873 65.1682 78.2343C65.4074 79.8813 66.0455 81.689 66.0455 81.689L68.7574 76.7881Z" fill="#272727" stroke="#272727" stroke-width="0.631579" stroke-miterlimit="10"/>
<path d="M43.3142 74.9808C43.3142 74.9808 44.7499 72.3295 45.5076 72.2089C46.2653 72.0884 58.5085 75.2218 61.2603 76.7483C64.012 78.315 66.7637 82.2116 66.7637 82.2116L43.3142 74.9808Z" fill="white" stroke="#272727" stroke-width="0.631579" stroke-miterlimit="10"/>
<path d="M42.8757 73.9761C42.8757 73.9761 49.8148 75.7436 57.2325 77.9932C64.6103 80.2026 67.7209 82.5326 68.1596 83.2155C68.5983 83.8984 70.5923 86.9916 70.5923 86.9916C70.5923 86.9916 64.4109 85.7864 52.8457 83.095C41.2805 80.4436 38.9674 80.0821 38.9674 80.0821C38.9674 80.0821 42.3173 74.8598 42.8757 73.9761Z" fill="#6E58F1" stroke="#272727" stroke-width="0.631579" stroke-miterlimit="10"/>
<path d="M56.076 105.832C56.076 105.832 60.5426 131.542 60.9015 134.514C61.2605 137.527 60.5426 145.36 60.9015 151.466C61.2605 157.131 62.6563 162.353 62.8557 163.116H84.7897C84.5903 162.072 82.7957 151.707 82.4368 146.365C82.0779 140.741 81.9582 119.41 81.2005 114.188C80.4428 108.965 80.7219 105.711 80.7219 105.711C80.7219 105.711 82.3172 97.3558 80.4827 93.3788C78.6083 89.4018 71.1906 88.1565 69.715 87.9958" fill="#6E58F1"/>
<path d="M56.076 105.832C56.076 105.832 60.5426 131.542 60.9015 134.514C61.2605 137.527 60.5426 145.36 60.9015 151.466C61.2605 157.131 62.6563 162.353 62.8557 163.116H84.7897C84.5903 162.072 82.7957 151.707 82.4368 146.365C82.0779 140.741 81.9582 119.41 81.2005 114.188C80.4428 108.965 80.7219 105.711 80.7219 105.711C80.7219 105.711 82.3171 97.3558 80.4827 93.3788C78.6083 89.4018 71.1906 88.1565 69.715 87.9958" stroke="#272727" stroke-width="0.631579" stroke-miterlimit="10"/>
<path d="M66.5645 91.7317C66.5645 91.7317 60.3831 96.3916 58.8278 105.751L66.5645 91.7317Z" fill="#6E58F1"/>
<path d="M66.5645 91.7317C66.5645 91.7317 60.3831 96.3916 58.8278 105.751" stroke="#272727" stroke-width="0.631579" stroke-miterlimit="10"/>
<path d="M111.868 64.054H153.542C160.681 64.054 166.424 69.8788 166.424 77.0293C166.424 84.2199 160.641 90.0046 153.542 90.0046H111.868C104.729 90.0046 98.9865 84.1798 98.9865 77.0293C98.9865 69.8788 104.729 64.054 111.868 64.054Z" stroke="#272727" stroke-width="0.631579" stroke-miterlimit="10"/>
<path d="M111.708 89.2413C118.382 89.2413 123.792 83.7917 123.792 77.0694C123.792 70.347 118.382 64.8975 111.708 64.8975C105.035 64.8975 99.6246 70.347 99.6246 77.0694C99.6246 83.7917 105.035 89.2413 111.708 89.2413Z" stroke="#272727" stroke-width="0.631579" stroke-miterlimit="10"/>
<path d="M142.815 77.0292L148.438 71.3651C149.076 70.7223 149.076 69.7181 148.438 69.0753C147.8 68.4326 146.803 68.4326 146.165 69.0753L140.542 74.7395L134.919 69.0753C134.281 68.4326 133.284 68.4326 132.645 69.0753C132.007 69.7181 132.007 70.7223 132.645 71.3651L138.269 77.0292L132.645 82.7336C132.007 83.3763 132.007 84.3806 132.645 85.0233C132.964 85.3447 133.363 85.5054 133.762 85.5054C134.161 85.5054 134.56 85.3447 134.879 85.0233L140.502 79.3592L146.125 85.0233C146.444 85.3447 146.843 85.5054 147.242 85.5054C147.64 85.5054 148.039 85.3447 148.358 85.0233C148.996 84.3806 148.996 83.3763 148.358 82.7336L142.815 77.0292Z" fill="#272727"/>
<path d="M153.542 27.498H111.868C104.729 27.498 98.9865 33.3229 98.9865 40.4734C98.9865 47.664 104.769 53.4487 111.868 53.4487H153.542C160.681 53.4487 166.424 47.6239 166.424 40.4734C166.424 33.3229 160.641 27.498 153.542 27.498Z" fill="#272727"/>
<path d="M153.702 55.0555C161.697 55.0555 168.178 48.5268 168.178 40.4733C168.178 32.4198 161.697 25.8911 153.702 25.8911C145.707 25.8911 139.225 32.4198 139.225 40.4733C139.225 48.5268 145.707 55.0555 153.702 55.0555Z" fill="#E0F067" stroke="#272727" stroke-width="0.631579" stroke-miterlimit="10"/>
<path d="M120.282 48.7482C119.843 48.7482 119.445 48.5875 119.166 48.2662L110.95 40.031C110.312 39.3883 110.312 38.384 110.95 37.7413C111.588 37.0985 112.585 37.0985 113.223 37.7413L120.083 44.6507L129.734 31.7156C130.252 30.9925 131.249 30.872 131.967 31.3942C132.685 31.9164 132.805 32.9207 132.286 33.6438L121.558 48.1055C121.279 48.467 120.841 48.708 120.402 48.7482C120.362 48.7482 120.322 48.7482 120.282 48.7482Z" fill="#E0F067"/>
</g>
</g>
<defs>
<clipPath id="clip0_142_8452">
<rect width="156" height="139" fill="white" transform="translate(17 22)"/>
</clipPath>
<clipPath id="clip1_142_8452">
<rect width="151" height="141" fill="white" transform="translate(19 21)"/>
</clipPath>
</defs>
</svg>
