<svg id="success-5" viewBox="0 0 28 28" fill="none" xmlns="http://www.w3.org/2000/svg">
<path fill-rule="evenodd" clip-rule="evenodd" d="M3.79163 3.49992C3.79163 2.37234 4.70571 1.45825 5.83329 1.45825H17.5C17.9832 1.45825 18.375 1.85 18.375 2.33325V7.29159H23.3333C23.8165 7.29159 24.2083 7.68334 24.2083 8.16659V24.4999C24.2083 25.6275 23.2942 26.5416 22.1666 26.5416H5.83329C4.70572 26.5416 3.79163 25.6275 3.79163 24.4999V3.49992ZM5.83329 3.20825C5.67221 3.20825 5.54163 3.33884 5.54163 3.49992V24.4999C5.54163 24.661 5.6722 24.7916 5.83329 24.7916H22.1666C22.3277 24.7916 22.4583 24.661 22.4583 24.4999V9.04159H17.5C17.0167 9.04159 16.625 8.64984 16.625 8.16659V3.20825H5.83329Z" fill="#666666"/>
<path fill-rule="evenodd" clip-rule="evenodd" d="M16.8813 1.71453C17.223 1.37282 17.777 1.37282 18.1187 1.71453L23.9521 7.54787C24.2938 7.88958 24.2938 8.4436 23.9521 8.7853C23.6103 9.12701 23.0563 9.12701 22.7146 8.7853L16.8813 2.95197C16.5396 2.61026 16.5396 2.05624 16.8813 1.71453Z" fill="#666666"/>
<path fill-rule="evenodd" clip-rule="evenodd" d="M10.5 8.45825C9.69454 8.45825 9.04163 9.11117 9.04163 9.91659C9.04163 10.722 9.69454 11.3749 10.5 11.3749C11.3054 11.3749 11.9583 10.722 11.9583 9.91659C11.9583 9.11117 11.3054 8.45825 10.5 8.45825ZM7.29163 9.91659C7.29163 8.14467 8.72805 6.70825 10.5 6.70825C12.2719 6.70825 13.7083 8.14467 13.7083 9.91659C13.7083 11.6885 12.2719 13.1249 10.5 13.1249C8.72805 13.1249 7.29163 11.6885 7.29163 9.91659Z" fill="#666666"/>
<path fill-rule="evenodd" clip-rule="evenodd" d="M19.5648 11.4336C19.9023 11.5638 20.125 11.8882 20.125 12.25V21.5834C20.125 22.0666 19.7332 22.4584 19.25 22.4584H8.75C8.26675 22.4584 7.875 22.0666 7.875 21.5834V16.3334C7.875 16.0414 8.02064 15.7687 8.26328 15.6062C8.50591 15.4438 8.81357 15.4131 9.08351 15.5244L13.4667 17.3315L18.6015 11.6626C18.8444 11.3945 19.2272 11.3035 19.5648 11.4336ZM18.375 14.5195L14.3507 18.9624C14.1028 19.2361 13.7099 19.3247 13.3686 19.184L9.625 17.6406V20.7084H18.375V14.5195Z" fill="#666666"/>
</svg>
