<svg id="success-1" width="28" height="28" viewBox="0 0 28 28" fill="none" xmlns="http://www.w3.org/2000/svg">
<path fill-rule="evenodd" clip-rule="evenodd" d="M1.45874 5.25016C1.45874 4.12258 2.37283 3.2085 3.50041 3.2085H24.5004C25.628 3.2085 26.5421 4.12259 26.5421 5.25016V21.5835C26.5421 22.7111 25.628 23.6252 24.5004 23.6252H3.50041C2.37283 23.6252 1.45874 22.7111 1.45874 21.5835V5.25016ZM3.50041 4.9585C3.33932 4.9585 3.20874 5.08908 3.20874 5.25016V21.5835C3.20874 21.7446 3.33931 21.8752 3.50041 21.8752H24.5004C24.6615 21.8752 24.7921 21.7446 24.7921 21.5835V5.25016C24.7921 5.08907 24.6615 4.9585 24.5004 4.9585H3.50041Z" fill="#666666"/>
<path fill-rule="evenodd" clip-rule="evenodd" d="M6.12549 11.0835C6.12549 10.6002 6.51724 10.2085 7.00049 10.2085H8.16716C8.6504 10.2085 9.04216 10.6002 9.04216 11.0835C9.04216 11.5667 8.6504 11.9585 8.16716 11.9585H7.00049C6.51724 11.9585 6.12549 11.5667 6.12549 11.0835Z" fill="#666666"/>
<path fill-rule="evenodd" clip-rule="evenodd" d="M11.3755 11.0835C11.3755 10.6002 11.7672 10.2085 12.2505 10.2085H13.4172C13.9004 10.2085 14.2922 10.6002 14.2922 11.0835C14.2922 11.5667 13.9004 11.9585 13.4172 11.9585H12.2505C11.7672 11.9585 11.3755 11.5667 11.3755 11.0835Z" fill="#666666"/>
<path fill-rule="evenodd" clip-rule="evenodd" d="M16.0421 11.0835C16.0421 10.6002 16.4339 10.2085 16.9171 10.2085H21.0004C21.4837 10.2085 21.8754 10.6002 21.8754 11.0835C21.8754 11.5667 21.4837 11.9585 21.0004 11.9585H16.9171C16.4339 11.9585 16.0421 11.5667 16.0421 11.0835Z" fill="#666666"/>
<path fill-rule="evenodd" clip-rule="evenodd" d="M6.12549 16.3335C6.12549 15.8502 6.51724 15.4585 7.00049 15.4585H21.0005C21.4837 15.4585 21.8755 15.8502 21.8755 16.3335C21.8755 16.8167 21.4837 17.2085 21.0005 17.2085H7.00049C6.51724 17.2085 6.12549 16.8167 6.12549 16.3335Z" fill="#666666"/>
</svg>
