<svg id="success-8" viewBox="0 0 28 28" fill="none" xmlns="http://www.w3.org/2000/svg">
<path d="M6.70837 8.16658C6.70837 4.46167 9.71183 1.45825 13.4167 1.45825C17.1216 1.45825 20.125 4.46167 20.125 8.16658V25.6666C20.125 26.1498 19.7333 26.5416 19.25 26.5416H7.58337C7.10012 26.5416 6.70837 26.1498 6.70837 25.6666V15.7499C6.70837 15.2668 7.09992 14.8751 7.583 14.8749M7.583 14.8749L7.58766 14.8749L7.60837 14.8747C7.62754 14.8746 7.65728 14.8742 7.6969 14.8734C7.77615 14.8718 7.89481 14.8686 8.04721 14.862C8.35223 14.849 8.79123 14.8227 9.31922 14.7699C10.3795 14.6639 11.7784 14.4529 13.1653 14.0368C14.5613 13.618 15.8825 13.0097 16.8418 12.1464C17.5911 11.472 18.1248 10.6404 18.3067 9.57884L7.53968 9.04049C7.074 9.01721 6.70837 8.63285 6.70837 8.16658M18.375 13.0975C18.2584 13.2182 18.1374 13.3347 18.0125 13.4472C16.7842 14.5526 15.1888 15.2568 13.6681 15.713C12.1384 16.172 10.6206 16.3985 9.49336 16.5112C9.09739 16.5508 8.74712 16.5766 8.45837 16.5934V24.7916H18.375V13.0975ZM18.3638 7.82951C18.1905 5.2483 16.0418 3.20825 13.4167 3.20825C10.9608 3.20825 8.92181 4.99387 8.52735 7.33769L18.3638 7.82951Z" fill="#666666"/>
<path d="M16.3686 18.048C16.7103 18.3897 16.7103 18.9438 16.3686 19.2855L13.452 22.2021C13.1103 22.5438 12.5562 22.5438 12.2145 22.2021L10.4645 20.4521C10.1228 20.1104 10.1228 19.5564 10.4645 19.2147C10.8062 18.873 11.3603 18.873 11.702 19.2147L12.8333 20.346L15.1312 18.048C15.4729 17.7063 16.0269 17.7063 16.3686 18.048Z" fill="#666666"/>
</svg>
