<svg id="success-7" viewBox="0 0 23 28" fill="none" xmlns="http://www.w3.org/2000/svg">
<g clip-path="url(#clip0_142_5380)">
<path fill-rule="evenodd" clip-rule="evenodd" d="M0.318237 2.54539C0.318237 1.3153 1.31542 0.318115 2.54551 0.318115H21.591C22.1432 0.318115 22.591 0.765831 22.591 1.31812V7.6363C22.7487 7.81158 22.591 7.40048 22.591 7.6363V25.4545C22.591 26.6846 21.5938 27.6818 20.3637 27.6818H2.54551C1.31543 27.6818 0.318237 26.6846 0.318237 25.4545V2.54539ZM2.54551 2.22721C2.36978 2.22721 2.22733 2.36966 2.22733 2.54539V25.4545C2.22733 25.6302 2.36977 25.7727 2.54551 25.7727H20.3637C20.5394 25.7727 20.6819 25.6302 20.6819 25.4545V8.00259V2.22721H2.54551Z" fill="#666666"/>
<path fill-rule="evenodd" clip-rule="evenodd" d="M11.4545 9.71912C10.496 9.71912 9.719 10.4961 9.719 11.4547C9.719 12.4132 10.496 13.1902 11.4545 13.1902C12.413 13.1902 13.1901 12.4132 13.1901 11.4547C13.1901 10.4961 12.413 9.71912 11.4545 9.71912ZM7.63635 11.4547C7.63635 9.34593 9.34581 7.63647 11.4545 7.63647C13.5633 7.63647 15.2727 9.34593 15.2727 11.4547C15.2727 13.5634 13.5633 15.2728 11.4545 15.2728C9.34581 15.2728 7.63635 13.5634 7.63635 11.4547Z" fill="#666666"/>
<path fill-rule="evenodd" clip-rule="evenodd" d="M5.09094 20.595C5.09094 16.9527 7.94002 14 11.4546 14C14.9691 14 17.8182 16.9527 17.8182 20.595C17.8182 21.1701 17.3684 21.6364 16.8134 21.6364C16.2585 21.6364 15.8086 21.1701 15.8086 20.595C15.8086 18.1029 13.8593 16.0826 11.4546 16.0826C9.04988 16.0826 7.10051 18.1029 7.10051 20.595C7.10051 21.1701 6.65065 21.6364 6.09573 21.6364C5.5408 21.6364 5.09094 21.1701 5.09094 20.595Z" fill="#666666"/>
</g>
<defs>
<clipPath id="clip0_142_5380">
<rect width="22.9091" height="28" fill="white"/>
</clipPath>
</defs>
</svg>
