<svg id="success-2" width="28" height="28" viewBox="0 0 28 28" fill="none" xmlns="http://www.w3.org/2000/svg">
<path fill-rule="evenodd" clip-rule="evenodd" d="M5.83415 3.2085C5.67306 3.2085 5.54248 3.33908 5.54248 3.50016V24.5002C5.54248 24.6612 5.67306 24.7918 5.83415 24.7918H22.1675C22.3286 24.7918 22.4591 24.6612 22.4591 24.5002V3.50016C22.4591 3.33908 22.3286 3.2085 22.1675 3.2085H5.83415ZM3.79248 3.50016C3.79248 2.37258 4.70657 1.4585 5.83415 1.4585H22.1675C23.2951 1.4585 24.2091 2.37258 24.2091 3.50016V24.5002C24.2091 25.6277 23.2951 26.5418 22.1675 26.5418H5.83415C4.70657 26.5418 3.79248 25.6277 3.79248 24.5002V3.50016Z" fill="#666666"/>
<path fill-rule="evenodd" clip-rule="evenodd" d="M11.3759 8.16675C11.3759 7.6835 11.7676 7.29175 12.2509 7.29175H19.2509C19.7341 7.29175 20.1259 7.6835 20.1259 8.16675C20.1259 8.65 19.7341 9.04175 19.2509 9.04175H12.2509C11.7676 9.04175 11.3759 8.65 11.3759 8.16675Z" fill="#666666"/>
<path fill-rule="evenodd" clip-rule="evenodd" d="M11.3759 14.0002C11.3759 13.517 11.7676 13.1252 12.2509 13.1252H19.2509C19.7341 13.1252 20.1259 13.517 20.1259 14.0002C20.1259 14.4835 19.7341 14.8752 19.2509 14.8752H12.2509C11.7676 14.8752 11.3759 14.4835 11.3759 14.0002Z" fill="#666666"/>
<path fill-rule="evenodd" clip-rule="evenodd" d="M11.3759 19.8335C11.3759 19.3502 11.7676 18.9585 12.2509 18.9585H19.2509C19.7341 18.9585 20.1259 19.3502 20.1259 19.8335C20.1259 20.3167 19.7341 20.7085 19.2509 20.7085H12.2509C11.7676 20.7085 11.3759 20.3167 11.3759 19.8335Z" fill="#666666"/>
<path fill-rule="evenodd" clip-rule="evenodd" d="M8.7509 9.33358C9.39525 9.33358 9.91756 8.81126 9.91756 8.16691C9.91756 7.52256 9.39525 7.00024 8.7509 7.00024C8.10655 7.00024 7.58423 7.52256 7.58423 8.16691C7.58423 8.81126 8.10655 9.33358 8.7509 9.33358Z" fill="#666666"/>
<path fill-rule="evenodd" clip-rule="evenodd" d="M8.7509 15.1668C9.39525 15.1668 9.91756 14.6445 9.91756 14.0002C9.91756 13.3558 9.39525 12.8335 8.7509 12.8335C8.10655 12.8335 7.58423 13.3558 7.58423 14.0002C7.58423 14.6445 8.10655 15.1668 8.7509 15.1668Z" fill="#666666"/>
<path fill-rule="evenodd" clip-rule="evenodd" d="M8.7509 21.0001C9.39525 21.0001 9.91756 20.4778 9.91756 19.8334C9.91756 19.1891 9.39525 18.6667 8.7509 18.6667C8.10655 18.6667 7.58423 19.1891 7.58423 19.8334C7.58423 20.4778 8.10655 21.0001 8.7509 21.0001Z" fill="#666666"/>
</svg>
