<svg id="success-3" width="28" height="28" viewBox="0 0 28 28" fill="none" xmlns="http://www.w3.org/2000/svg">
<path fill-rule="evenodd" clip-rule="evenodd" d="M13.1249 2.3335C13.1249 1.85025 13.5166 1.4585 13.9999 1.4585C20.9265 1.4585 26.5415 7.07359 26.5415 14.0002C26.5415 20.9267 20.9265 26.5418 13.9999 26.5418C13.5166 26.5418 13.1249 26.1501 13.1249 25.6668C13.1249 25.1836 13.5166 24.7918 13.9999 24.7918C19.96 24.7918 24.7915 19.9602 24.7915 14.0002C24.7915 8.04009 19.96 3.2085 13.9999 3.2085C13.5166 3.2085 13.1249 2.81675 13.1249 2.3335Z" fill="#666666"/>
<path fill-rule="evenodd" clip-rule="evenodd" d="M13.385 1.47333C13.5888 1.46348 13.7938 1.4585 13.9999 1.4585C14.4832 1.4585 14.8749 1.85025 14.8749 2.3335C14.8749 2.81675 14.4832 3.2085 13.9999 3.2085C13.822 3.2085 13.6451 3.21279 13.4695 3.22129C12.9868 3.24462 12.5766 2.87224 12.5532 2.38955C12.5299 1.90687 12.9023 1.49666 13.385 1.47333ZM10.8922 2.71772C11.055 3.17272 10.8181 3.67356 10.3631 3.83638C10.0293 3.95584 9.70306 4.09131 9.38529 4.24186C8.94858 4.44878 8.42682 4.26249 8.2199 3.82577C8.01299 3.38906 8.19928 2.8673 8.63599 2.66039C9.00556 2.48529 9.38508 2.3277 9.7735 2.18871C10.2285 2.02588 10.7293 2.26273 10.8922 2.71772ZM6.81322 4.76781C7.13785 5.12578 7.11083 5.67914 6.75286 6.00378C6.49106 6.2412 6.24096 6.4913 6.00353 6.75311C5.6789 7.11108 5.12554 7.1381 4.76757 6.81346C4.4096 6.48883 4.38258 5.93547 4.70722 5.5775C4.98289 5.27352 5.27327 4.98313 5.57725 4.70746C5.93522 4.38282 6.48858 4.40985 6.81322 4.76781ZM3.82553 8.22015C4.26224 8.42706 4.44853 8.94882 4.24162 9.38553C4.09106 9.7033 3.9556 10.0296 3.83614 10.3634C3.67331 10.8184 3.17247 11.0552 2.71748 10.8924C2.26249 10.7296 2.02564 10.2287 2.18846 9.77374C2.32746 9.38533 2.48505 9.0058 2.66015 8.63624C2.86706 8.19953 3.38882 8.01324 3.82553 8.22015ZM2.38931 12.5535C2.87199 12.5768 3.24437 12.987 3.22104 13.4697C3.21255 13.6454 3.20825 13.8222 3.20825 14.0002C3.20825 14.1781 3.21255 14.3549 3.22104 14.5306C3.24437 15.0133 2.87199 15.4235 2.38931 15.4468C1.90662 15.4702 1.49641 15.0978 1.47308 14.6151C1.46323 14.4113 1.45825 14.2063 1.45825 14.0002C1.45825 13.7941 1.46323 13.589 1.47308 13.3852C1.49641 12.9025 1.90662 12.5302 2.38931 12.5535ZM2.71748 17.1079C3.17247 16.9451 3.67331 17.182 3.83614 17.6369C3.9556 17.9708 4.09106 18.297 4.24162 18.6148C4.44853 19.0515 4.26224 19.5733 3.82553 19.7802C3.38882 19.9871 2.86706 19.8008 2.66015 19.3641C2.48505 18.9945 2.32746 18.615 2.18846 18.2266C2.02564 17.7716 2.26249 17.2708 2.71748 17.1079ZM4.76757 21.1869C5.12554 20.8622 5.6789 20.8892 6.00353 21.2472C6.24096 21.509 6.49106 21.7591 6.75286 21.9965C7.11083 22.3212 7.13785 22.8745 6.81322 23.2325C6.48858 23.5905 5.93522 23.6175 5.57725 23.2929C5.27327 23.0172 4.98289 22.7268 4.70722 22.4228C4.38258 22.0649 4.4096 21.5115 4.76757 21.1869ZM8.2199 24.1745C8.42682 23.7378 8.94858 23.5515 9.38529 23.7585C9.70306 23.909 10.0293 24.0445 10.3631 24.1639C10.8181 24.3268 11.055 24.8276 10.8922 25.2826C10.7293 25.7376 10.2285 25.9744 9.7735 25.8116C9.38508 25.6726 9.00556 25.515 8.63599 25.3399C8.19928 25.133 8.01299 24.6113 8.2199 24.1745ZM12.5532 25.6108C12.5766 25.1281 12.9868 24.7557 13.4695 24.779C13.6451 24.7875 13.822 24.7918 13.9999 24.7918C14.4832 24.7918 14.8749 25.1836 14.8749 25.6668C14.8749 26.1501 14.4832 26.5418 13.9999 26.5418C13.7938 26.5418 13.5888 26.5368 13.385 26.527C12.9023 26.5037 12.5299 26.0935 12.5532 25.6108Z" fill="#666666"/>
</svg>
