<svg id="success-6" viewBox="0 0 28 28" fill="none" xmlns="http://www.w3.org/2000/svg">
<g clip-path="url(#clip0_142_5364)">
<path fill-rule="evenodd" clip-rule="evenodd" d="M14 2.4231C14.446 2.4231 14.8076 2.78471 14.8076 3.23079V5.38463C14.8076 5.83071 14.446 6.19233 14 6.19233C13.5539 6.19233 13.1923 5.83071 13.1923 5.38463V3.23079C13.1923 2.78471 13.5539 2.4231 14 2.4231Z" fill="#666666"/>
<path fill-rule="evenodd" clip-rule="evenodd" d="M19.7885 3.97407C20.1748 4.19711 20.3071 4.69109 20.0841 5.0774L19.0072 6.94266C18.7841 7.32897 18.2902 7.46133 17.9039 7.23829C17.5175 7.01525 17.3852 6.52128 17.6082 6.13496L18.6851 4.2697C18.9082 3.88339 19.4022 3.75103 19.7885 3.97407Z" fill="#666666"/>
<path fill-rule="evenodd" clip-rule="evenodd" d="M24.0259 8.2116C24.249 8.59791 24.1166 9.09189 23.7303 9.31493L21.865 10.3918C21.4787 10.6149 20.9847 10.4825 20.7617 10.0962C20.5386 9.7099 20.671 9.21592 21.0573 8.99289L22.9226 7.91596C23.3089 7.69292 23.8029 7.82528 24.0259 8.2116Z" fill="#666666"/>
<path fill-rule="evenodd" clip-rule="evenodd" d="M21.8077 14.0001C21.8077 13.554 22.1694 13.1924 22.6154 13.1924H24.7693C25.2154 13.1924 25.577 13.554 25.577 14.0001C25.577 14.4462 25.2154 14.8078 24.7693 14.8078H22.6154C22.1694 14.8078 21.8077 14.4462 21.8077 14.0001Z" fill="#666666"/>
<path fill-rule="evenodd" clip-rule="evenodd" d="M20.7617 17.9037C20.9847 17.5174 21.4787 17.3851 21.865 17.6081L23.7303 18.685C24.1166 18.9081 24.249 19.402 24.0259 19.7884C23.8029 20.1747 23.3089 20.307 22.9226 20.084L21.0573 19.0071C20.671 18.784 20.5386 18.2901 20.7617 17.9037Z" fill="#666666"/>
<path fill-rule="evenodd" clip-rule="evenodd" d="M17.9039 20.7617C18.2902 20.5386 18.7841 20.671 19.0072 21.0573L20.0841 22.9226C20.3071 23.3089 20.1748 23.8029 19.7885 24.0259C19.4022 24.249 18.9082 24.1166 18.6851 23.7303L17.6082 21.865C17.3852 21.4787 17.5175 20.9847 17.9039 20.7617Z" fill="#666666"/>
<path fill-rule="evenodd" clip-rule="evenodd" d="M14 21.8076C14.446 21.8076 14.8076 22.1692 14.8076 22.6153V24.7692C14.8076 25.2152 14.446 25.5768 14 25.5768C13.5539 25.5768 13.1923 25.2152 13.1923 24.7692V22.6153C13.1923 22.1692 13.5539 21.8076 14 21.8076Z" fill="#666666"/>
<path fill-rule="evenodd" clip-rule="evenodd" d="M10.0962 20.7617C10.4825 20.9847 10.6149 21.4787 10.3918 21.865L9.31493 23.7303C9.09189 24.1166 8.59791 24.249 8.2116 24.0259C7.82528 23.8029 7.69292 23.3089 7.91596 22.9226L8.99289 21.0573C9.21592 20.671 9.7099 20.5386 10.0962 20.7617Z" fill="#666666"/>
<path fill-rule="evenodd" clip-rule="evenodd" d="M7.23829 17.9037C7.46133 18.29 7.32897 18.784 6.94266 19.0071L5.0774 20.084C4.69109 20.307 4.19711 20.1747 3.97407 19.7884C3.75103 19.402 3.88339 18.9081 4.2697 18.685L6.13496 17.6081C6.52128 17.3851 7.01525 17.5174 7.23829 17.9037Z" fill="#666666"/>
<path fill-rule="evenodd" clip-rule="evenodd" d="M2.4231 14.0001C2.4231 13.554 2.78471 13.1924 3.23079 13.1924H5.38463C5.83071 13.1924 6.19233 13.554 6.19233 14.0001C6.19233 14.4462 5.83071 14.8078 5.38463 14.8078H3.23079C2.78471 14.8078 2.4231 14.4462 2.4231 14.0001Z" fill="#666666"/>
<path fill-rule="evenodd" clip-rule="evenodd" d="M3.97407 8.21159C4.19711 7.82528 4.69109 7.69292 5.0774 7.91596L6.94266 8.99289C7.32897 9.21593 7.46133 9.70991 7.23829 10.0962C7.01525 10.4825 6.52128 10.6149 6.13496 10.3918L4.2697 9.31492C3.88339 9.09188 3.75103 8.59791 3.97407 8.21159Z" fill="#666666"/>
<path fill-rule="evenodd" clip-rule="evenodd" d="M8.21159 3.97407C8.59791 3.75103 9.09188 3.88339 9.31492 4.2697L10.3918 6.13496C10.6149 6.52128 10.4825 7.01525 10.0962 7.23829C9.70991 7.46133 9.21593 7.32897 8.99289 6.94266L7.91596 5.0774C7.69292 4.69109 7.82528 4.19711 8.21159 3.97407Z" fill="#666666"/>
<path fill-rule="evenodd" clip-rule="evenodd" d="M14 26.3846C20.8398 26.3846 26.3846 20.8398 26.3846 14C26.3846 7.16017 20.8398 1.61538 14 1.61538C7.16017 1.61538 1.61538 7.16017 1.61538 14C1.61538 20.8398 7.16017 26.3846 14 26.3846ZM14 28C21.732 28 28 21.732 28 14C28 6.26801 21.732 0 14 0C6.26801 0 0 6.26801 0 14C0 21.732 6.26801 28 14 28Z" fill="#666666"/>
</g>
<defs>
<clipPath id="clip0_142_5364">
<rect width="28" height="28" fill="white"/>
</clipPath>
</defs>
</svg>
