<svg id="success-4" width="28" height="28" viewBox="0 0 28 28" fill="none" xmlns="http://www.w3.org/2000/svg">
<path fill-rule="evenodd" clip-rule="evenodd" d="M4.95776 9.3335C4.95776 8.85025 5.34951 8.4585 5.83276 8.4585H22.1661C22.6493 8.4585 23.0411 8.85025 23.0411 9.3335C23.0411 9.81675 22.6493 10.2085 22.1661 10.2085H5.83276C5.34951 10.2085 4.95776 9.81675 4.95776 9.3335Z" fill="#666666"/>
<path fill-rule="evenodd" clip-rule="evenodd" d="M9.41951 10.2085C9.25019 10.2085 9.11648 10.3522 9.12853 10.5209L10.1285 24.5209C10.1285 24.5209 10.1285 24.5209 10.1285 24.5209C10.1395 24.6736 10.2665 24.7918 10.4195 24.7918H17.5802C17.7332 24.7918 17.8602 24.6736 17.8711 24.5209L18.8711 10.5209C18.8832 10.3522 18.7495 10.2085 18.5802 10.2085H9.41951ZM7.38298 10.6456C7.29856 9.46376 8.23467 8.4585 9.41951 8.4585H18.5802C19.765 8.4585 20.7011 9.46376 20.6167 10.6456L19.6167 24.6456C19.5403 25.714 18.6513 26.5418 17.5802 26.5418H10.4195C9.34835 26.5418 8.45935 25.714 8.38299 24.6457L7.38298 10.6456C7.38298 10.6456 7.38298 10.6456 7.38298 10.6456Z" fill="#666666"/>
<path fill-rule="evenodd" clip-rule="evenodd" d="M15.1662 3.2085C15.0051 3.2085 14.8745 3.33907 14.8745 3.50016V5.8335C14.8745 6.31675 14.4828 6.7085 13.9995 6.7085C13.5163 6.7085 13.1245 6.31675 13.1245 5.8335V3.50016C13.1245 2.37259 14.0386 1.4585 15.1662 1.4585H16.9162C17.3994 1.4585 17.7912 1.85025 17.7912 2.3335C17.7912 2.81675 17.3994 3.2085 16.9162 3.2085H15.1662Z" fill="#666666"/>
<path fill-rule="evenodd" clip-rule="evenodd" d="M9.7385 6.7085C9.59587 6.7085 9.47422 6.81159 9.4508 6.95218L9.19973 8.4585H18.8006L18.5495 6.95222C18.5261 6.81162 18.4044 6.7085 18.2618 6.7085H9.7385ZM7.7246 6.66451C7.88867 5.67999 8.74048 4.9585 9.7385 4.9585H18.2618C19.2598 4.9585 20.1116 5.67999 20.2757 6.66451C20.2757 6.66452 20.2757 6.6645 20.2757 6.66451L20.8664 10.2085H7.13391L7.7246 6.66451C7.7246 6.66452 7.72461 6.6645 7.7246 6.66451Z" fill="#666666"/>
</svg>
