<svg id="twitter" viewBox="0 0 38 32" fill="none" xmlns="http://www.w3.org/2000/svg">
<path d="M34.0939 8.25995C34.118 8.59749 34.118 8.93511 34.118 9.27266C34.118 19.5683 26.2817 31.4313 11.9594 31.4313C7.54693 31.4313 3.44798 30.1533 0 27.9351C0.626926 28.0074 1.22966 28.0315 1.8807 28.0315C5.5215 28.0315 8.87307 26.8019 11.5495 24.7041C8.12562 24.6318 5.25632 22.3894 4.26773 19.3031C4.75 19.3754 5.2322 19.4236 5.73859 19.4236C6.43781 19.4236 7.1371 19.3271 7.78807 19.1584C4.21956 18.435 1.54308 15.3006 1.54308 11.515V11.4186C2.57984 11.9973 3.78553 12.359 5.06335 12.4071C2.96563 11.0086 1.59132 8.62161 1.59132 5.92109C1.59132 4.47442 1.97704 3.14828 2.65221 1.99091C6.48598 6.71679 12.2487 9.80303 18.7105 10.1406C18.59 9.56196 18.5177 8.95923 18.5177 8.35643C18.5177 4.06451 21.9898 0.568359 26.3057 0.568359C28.5481 0.568359 30.5735 1.50871 31.9961 3.02775C33.7562 2.6902 35.444 2.03915 36.939 1.14704C36.3602 2.95546 35.1306 4.47449 33.5151 5.43889C35.0824 5.27019 36.6014 4.83609 37.9999 4.23336C36.9391 5.77644 35.6129 7.15075 34.0939 8.25995V8.25995Z" fill="#A6A6A6"/>
</svg>
